/* XPM */
static char *result[] = {
/* columns rows colors chars-per-pixel */
"126 126 14 1 ",
"  c #130F09",
". c #221B10",
"X c #282013",
"o c #372C1A",
"O c #493A23",
"+ c #4B3C25",
"@ c #584427",
"# c #58462A",
"$ c #5C492C",
"% c #6B5737",
"& c #6A6A6A",
"* c #967D57",
"= c #A8A6A0",
"- c None",
/* pixels */
"*****************************. **********************************************************. ***********************************",
"%%%%%%%%%%%%%%%%%%%%%%%%%%%@O. *%%%%%%%%$%%%%%%%%%%%%%%%%%%%%%$$%%%%%%%%%%%%%%%%%%%%%%%@O. *%%%$%%%%%%%%%%%%%%%%%%%%%%%%%%$$%%",
"%%%%%%%%%%%%%$$$$$$$$$$$$$$@O. *$%%%%%%%$$$%%%%%%%%%%%%%%%%%%%%%$$$$$$$$$$%%%%%%%%%%%%%@O. *%%%$$$%%%%%%%%%%%%%%%%%%%%%%%$$%%%",
"%%%%%%%%%$$$$$%%%%%%%%%%%#++@. *$$#++#%%%%$$$%%%%%%%%%%%%%%%%%%%%%%%%%%%%%$$$$$$%%%%%#++@. *%#++#$$%%%%%%%%%%%%%%%%%%%%%$$%%%%",
"%%%%%%$$$$%%%%%%%%%%%%%%%+=&*. *%%+=&*$%%%%%%$$$$$$$%%%%%%%%%%%%%%%%%%%%%%%%%%%$$$$$$+=&*. *%+=&*%$$%%%%%%%%%%%%%%%%%$$$%%%%%%",
"%%$$$$$%%%%%%%%%%%%%%%%%%+&&*. *%%+&&*$$$%%%%%%%%%%%$$$$$$$$$$$$%%%%%%%%%%%%%%%%%%%%%+&&*. *%+&&*%%$$%%%%%%%%%%%%%$$$%%%%%%%%%",
"$$%%%%%%%%%%$$$$$%%%%%%%%%**O. *%%%**%%%%$%%%%%%%%%%%%%%%%%%%%%%$$$$$$$%%%%%%%%%%%%%%%**O. *%#**%%%%$$%%%%%%%$$$$$%%%%%%%%%%$$",
"%%%%%%%%%%$$%%%%$$$$$$$%%%%@O. *%%%%%%%%%$$%%%%%%%%%%%%%%%%%%%%%%%%%%%%$$$$$$%%%%%%%%%%@O. *%%%%%%%%%%$$$$$$$%%%%%%%%%%%%$$$$%",
"%%%%%%%%%%%$$$%%%%%%%%%$$$$@O. *%%%%%%%%$$%%%%%%%%%%%%%%%%%%%%%%%%%%%%%%%%%%%$$$$$%%%%%@O. *%%%%%%%%%%%%%%%%%%%%%%%%%$$$$%%%%%",
"%%%%%%%%%%%%%$$%%%%%%%%%%%%@O. *%%%%$$$$%%%%%%%%%%$$$$$$$$$$$$$$$$$%%%%%%%%%%%%%%%$$$%%@O. *$%%%%%%%%%%%%%%%%%%%%%%$$$%%%%%%%%",
"%%%%%%%%%%%%%%%$$%%%%%%%%%%@O. *$$$$%%%%%%%%%$$$$$%%%%%%%%%%%%%%%%%$$$$$$$$%%%%%%%%%%$$@O. *$$$$%%%%%%%%%%%%%%$$$$$%%%%%%%%%%%",
"%%%%%%%%%%%%%%%%%$$%%%%%%%%@O. *%%%%%%%%%%$$$%%%%%%%%%%%$$$$%%%%%%%%%%$$$%%$$$$%%%%%%%%@O. *%%%$$$$$$$$$$$$$$$$%%%%%%%%%%%%%%%",
"$$%%%%%%%%%%%%%%%%$$%%%%%%%@O. *%%%%%%%%$$$%%%%%%%%%$$$$%%%$%%%%%%%$$$%%%%%%%%%$$%%%%%%@O. *%%%%%%%%%%%%%%%%%%%%%%%%%%%%%%%$$$",
"%$$$$$$%%%%%%%%%%%%%$%%%%%%@O. *%%%%%$$$%%%%%%$$$$$$%%%%$$$$%%%$$$$$%%%%%%%%%%%%%$$$%%%@@. *%%%%%%%%$$%%%%%%%%%%%%%%%%$$$$$%%%",
"%%%%%%$$$$$%%%%%%%%%%$$%%%%@O. *%%%$$$%%%%%$$$$%%%%$$$$$$%%%%$$$%%%%%%%$$$$%%%%%%%%$$$%@O. *%%%$$$$$$$%%%%%%%%%%%$$$$$$%%%%%%%",
"%%%%%%%%%%%$$$$%%%%%%%$$%%%@@. *$$$$%%%%%$$$%$$$$$$%%%%%%%$$$$%%%%%%%$$$%%%$$$%%%%%%%$$@O. *$$$$%%%%$$%%%%%%%$$$$$%%%%%%%%%%%%",
"%%%%%%%%%%%%%%%$$$%%%%%%$$%@O. *%%%%%%%%%$$$$%%%%%%%%%%$$$$%%%%%%%%$$%%%%%%%%$$$%%%%%%%@O. *%%%%%%$$%%%%%$$$$%%%%%%%%%%%%%%%%%",
"$$$$%%%%%%%%%%%%%%$$%%%%%$%@O. *%%%%%%%%%%%%%%%%%%%$$$$$%%%%%%%%$$$%%%%%%%%%%%%$$$$%%%%@O. *%%%$$$$%%%%$$$%%%%%%%%%%%%%%$$$$$$",
"%%%%$$%%%%%%%%%%%%%%$$%%%%$@O. *%%%%%%%%%%%%%%%$$$$%%%%%%%%%%%%$$%%%%%%$$$$$%%%%%%$$$%%@@. *%$$$%%%%%$$$%%%%%%%%%%%$$$$$%%%%%%",
"%%%%%%$$$%%%%%%%%%%%%%$%%#++@. *%%#++%%%%%$$$$$%%%%%%%%%%%%$$$$%%%%%%$$$%%%$$$$%%%%%%#++@. *$$++%%%$$$%%%%%%%%%%$$$$%%%%%%%%%%",
"%%%%%%%%%$$$%%%%%%%%%%$$%+=&*. *%%+=&*%$$$%%%%%%%%%%%%%%$$$%%%%%%%%%$$%%%%%%%%$$$%%%%+=&*. *%+=&*%$$%%%%%%%%$$$$%%%%%%%%%%%%%%",
"%%%%%%%%%%%$$%%%%%%%%%%$$+&&*. *%%+&&*%%%%%%%%%%%%%%%%%$$%%%%%%%%%%$%%%%%%%%%%%%%$$%%+&&*. *%+&&*$$%%%%%%%%$$%%%%%%%%%%%%%%%%%",
"@@@@@@@@@@@@@@@@@@@@@@@@@@**@. *@@@**@@@@@@@@@@@@@@@@@@@@@@@@@@@@@@@@@@@@@@@@@@@@@@@@@**@. *@@**@@@@@@@@@@@@@@@@@@@@@@@@@@@@@@",
"OOOOO@@OOOOOOOOO@@OOO@OOOOOOO. *@@@@@OOOOOO@@@@@@@@@@@@OO@@@@@@OOOOOOOOOOOOOOOOOOOOOOOO@O. *OOOOOOOOOOOO@@@OOOOOOOOOO@@@@OOOOO",
".............................. ........................................................... ........................ooo........",
"                                                                                                                              ",
" **********************************************************. ***************************************************************. ",
" *%%%%%$%%%%%%%%%%%%%%%%%%%%%%%%%%%%%%%%%%%%%%%%%%%%%%%%%@@. *%$$$$%%%%%%%%%%%%%%%%%%%%%$$$$$$$$$$$%%%%$$$$$$$%%$$$$$$$$$$@O. ",
" *%%%%%$$$$%%%%%%%%%%%%%%%%%%%%$$$$$$$%%%%%%%%%$$$$$$$$$%@O. *%%%%%$$$$$$$$$$$$$$$$$$$$$%%%%%%%%%%%$$$$%%%%%%$$$%%%%%%%%%%@O. ",
" *%#++%%%%$$$$$$$$$$$$$$$$$$$$$$%%%%%$$$$$$$$$$%%%%%%%%$$+O. *%#++%%%%%%%%%%%%%%%%%%%%%%%%%%%%%%%%%%%%%%%%%%%%%%%%%%%%%#++@O. ",
" *%+=&*%%%%%%%%%%%%%%%%%%%%%%%%%%%%%%%%%%%%%%%%%%%%%%%%+=&*. *%+=&*%%%%%%%%%%%%%%%%%%%%%%%%%%%%%%%%%%%%%%%%%%%$$$$$$$$$+=&*O. ",
" *%+&&*%%%%%%%%%%%%%%%%%%%%%%%%%%%$$$$%%%%%%%%%%%%%%%%%+&&*. *%+&&*%%%%%%%%%%%%%%%%%%%%%%%%%%%%%%%%%%%%%%%%$$$$%%%%%%%%+&&*O. ",
" *%#**%%%%%%%%%%%%%%%%%%%%%%%%%%%%$%%$$$$$$$$$$$%%%%%%%%**@. *%%**$$$$$$$$$$$$$$$$$$$$$$$$$$$%%%%%%%%%%%%$$$%%%%%%%%%%%#**@@. ",
" *%%%%%%%%%%%%%%%%%%%%%%%%%%%%%%%%$$%%%%%%%%%%%$$$$$%%%%%@@. *%%%%%%%%%%%%%%%%%%%%%%%%%%%%%$$$%%%%%%%%%$$$%%%%%%%%%%%%%%%%@@. ",
" *%%%%%%%%%%%%%%%%%%%%%%%%%%%%%%%%%$$$$$%%%%%%%%%%%$$$$$$@@. *%%%%%%%%%%%%%%%%%%%%$$$$$$$$$%%%%%%%%%%$$$%%%%%%%$$$$%%%%%%%@O. ",
" *%%%%%$$$$$$$$$$$$$$$$$$$$%%%%%%%%%%%%$$$$$$$$$$$%%%%%%%@O. *%%$$$$$$$$$$$$$$$$$$$%%%%%%%%%%%%%%%%$$%%%%%%%%$$%%%$%%%%%%%@O. ",
" *%%$$$%%%%%%%%%%%%%%%%%%%%$$$$$%%%%%%%%%%%%%%%%%$$$$$$$$@O. *$$$%%%%%%%%%%%%%%%%%%%%%%%%%%%%%%%$$$%%%%%%$$$$%%%%$%%%%%%%%@O. ",
" *$$$%%%%%%%%%%%%%%%%%%%%%%%%%%%$$$$$$$$$%%%%%%%%%%%%%%%%@@. *%%%%%%%%%%%%%%%%%%%%%%%%%%%%%%%$$$%%%%%%%%$$%%%%%$$%%%%%%$$$@O. ",
" *$%%%%%$$$$$$$$$$$$$$%%%%%%%%%%%%%%%%%%%$$$$$$$%%%%%%%%%@@. *%%%%%%%%%%%%%%%%%%%%%%%%%%$$$$$%%%%%%%%%$$%%%%%%$%%%%%%$$$%%@@. ",
" *%%%%%$%%%%%%%%%%%%%$$$%%%%%%%%%%%%%%%%%%%%%%%%$$$$$$$$%@O. *$$$$$$$$$$$$$$$$$$$$$$$$$$%%%%%%%%%%%$$$%%%%%%$$%%%%%%$$%%%%@O. ",
" *%%%%$$$$$$$$$$$$$$$$$%%%%%%%%%%%%%%%%%%%%%%%%%%%%%%%%%%@O. *%%%%%%%%%%%%%%%%%%%%%%%%%%%%%%%%%%$$$%%%%%%%$$%%%%%%%$%%%%%%@@. ",
" *$$$%%%%%%%%%%%%%%%%%%%%%%%%$$$$$$$$$$$$%%%%%%%%%%%%%%%%@O. *%%%%%%%%%%%%%%%%%%%%%%%%%%%%%%%%%$$%%%%%$$$$%%%%%%%%$$%%%%%%@O. ",
" *$%%$$$$%%%%%%%%%%%%%%$$$$$$%%%%%%%%%%%%$$$$%%%%%%%%%%%%@O. *$$$$$$$$$$$$$%%%%%%%%%%%%%%%%%%%%$$$$$$$%%%%%%%%%%%$%%%%%$$$@O. ",
" *%%%%%%%$$$$$$$$$$$$$$$%%%%%%%%%%%%%%%%%%%%%$$$$$%%%%%%%@O. *%%%%%%%%%%%%%$$$$%%%%%%%%%%%%%%%%$%%%%%%%%%%%%%%%$$%%%%%$$%%@O. ",
" *%#++#%%%%%%%%%%%%%%%%%%%%%%%%%%%%%%%%%%%%%%%%%%$$$$$%%++%. *%#++%%%%%%%%%%%%%$$$$$%%%%%%%%%%%%%%%%%%%%%%%%$$$%%%%%%$%#++@O. ",
" *%+=&*%%%%%%%%%%%%%%%%%%%%%$$$$$$$$$$$$$$%%%%%%%%%%%$%+=&*. *%+=&*%%%%%%%%%%%%%%%%%$$$$%%%%%%%%%%%%%%%%%$$$%%%%%%%%$%%+=&*O. ",
" *%+&&*%%%%%%%%%%%%%%%%%%%$$$%%%%%%%%%%%%%$$%%%%%%%%%%%+&&*. *%+&&*%%%%%%%%%%%%%%%%%%%%%$$$$$%%%%%%%%%$$$%%%%%%%%%%$%%%+&&*O. ",
" *@@**@@@@@@@@@@@@@@@@@@@@@@@@@@@@@@@@@@@@@@@@@@@@@@@@@@**%. *@@**@@@@@@@@@@@@@@@@@@@@@@@@@@@@@@@@@@@@@@@@@@@@@@@@@@@@@@**@O. ",
" *OOOOOOOOO@@@@@OOOOOOOOO@@@O@@@OOO@@@OOOOOOOO@@OOOOO@@@OOO. *OOOOOOOOOOOO@@@OOOO@O@@@OOOOOOOOO@OOOOOOOOOOO@O@@@@OOOOOOOOO@O. ",
" ........................................................... ................................................................ ",
"                                                                                                                              ",
"*****************************. **********************************************************. ***********************************",
"%%%%%%%%%%%%%%%%$%%%%%%%%%%@O. *%%%%%%%$%%%%%%%%%%%$%%%%%$%%%%%%%%%%%%%%%%%%$%%%%%%%%%%@@. *$%%%%%%%%%%%%%%%%%%%%%%%%%%%%%%%%%",
"%%%%%%%%%%%%%%%%%$$%%%%%%%%@O. *%%%%$$$$%%%%%%%%%$$$%%%%%$$$$$$%%%%%%%%%%%%%$$$$%%%%%%%@O. *%$$$$$$$$%%%%%%%%%%%%%%%%%%%%%%%%%",
"%%%%%%%%%%%%%%%%%%$$%%%%#++@@. *%#++$%%%%%%%%%%$$$%%%%%%%%%%%%%$$$$$$$%%%%%%%%%%$$$%%%++@. *%#++%%%%$$$$$$$$$$$$$$$$$$$%%%%%%%",
"%%%%%%%%%%$$$$%%%%%%$$$%+=&*@. *%+=&*%%%%%%%%$$%%%%%%%%%%%%%%%%%%%%%%%$$$$%%%%%%%%%$$+=&*. *%+=&*%%%%%%%%%%%%%%%%%%%%%$$$$$%%%",
"$$$$$$$$$$$%%$$$%%%%%%$$+&&*O. *%+&&*%%%%%$$$%%%%%%%%%%%%%%%%%%%%%%%%%%%%%$$$$%%%%%%%+&&*. *%+&&*%%%%%%%%%%%%%%%%%%%%%%%%%$$$$",
"%%%%%%%%%%%%%%%$$$%%%%%%%**@O. *%%**%%%$$$%%%%%%%%%%%%%%%%%%%%%%%%%%%%%%%%%%%$$$$%%%%%**O. *%%**%%%%%%%%%%%%%%%%%%%%%%%%%%%%%%",
"%%%%%%%%%%%%%%%%%$$$%%%%%%%@O. *%%$$$$$$%%%%%%%%%%$$$$$$$$$$$$$$$$$%%%%%%%%%%%%%$$$$%%%@O. *%%%%%%%%%%%%%%%$$$$$$$$$$$%%%%%%%%",
"%%%%%%%$$$$$$$$$%%%%$$%%%%%@@. *$$$%%%%%%%%%$$$$$$%%%%%%%%%%%%%%%%%$$$$$$$$%%%%%%%%$$$$@O. *%%%%%%%%%%$$$$$%%%%%%%%%%%$$$$%%%%",
"$$$$$$$$%%%%%%%$$%%%%%$$$$%@O. *%%%%%%%%%%$$%%%%%%%%%%%%%%%%%%%%%%%%%%%%%%%$$$$$$%%%%%%@O. *$$%%%%%%%%$$%%%%%%%%$$%%%%%%%%$$$$",
"%%%%%%%%%%%%%$$$%%%%%%%%%%$@O. *$$$$$$$$$$%%%%%%$$$$$$$$$$$$$$$$$%%%%%%%%%%%%%%%%$$$$%%@O. *%$$$$%%%%%%%$$$$%%%%%%$$$$%%%%%%%%",
"$$$%%%%%%%$$$$%%%%%%%%%%%%%@@. *%%%%%%%%%%%%%%%%$$%%%%%%%%%%%%%%%$$$%%%%%%%%%%%%%%%%$$$@@. *%%%%$$$$%%%%%%%%$$$$%%%%%%%%%%%%$$",
"%%%%%%%%$$$%%%%%%%%%%%%%%$$@@. *%%%%%%%%%%%%%%%%%%$$$$$$$$$$$$$$$$$$%%%%%%%%%%%%%%%%%%%@O. *%%%%%%%$$$%%%%%%%%%%$$$$$$$$%%%%%%",
"$$$$$$$$%%%%%%%%%%$$$$$$$%%@@. *$$$$$$$$%%%%%%%%%%%%%%%%%%%%%%%%%%%%%%%%%%%%%%%%%%%%%%%@O. *%%%%%%%%%$$$$%%%%%%%%%%%%%%%$$$$$$",
"%%%%%%%%%%%%%%$$$$$%%%%%%%%@O. *%%%%%%%%$$$$$%%%%%%%%%%%%%%%%%%%%%%%%%%$$$$$$$$$$$$$$$$@O. *%%%%%%%%%%%%$$$%%%%%%%%%%%%%%%%%%%",
"%%%%%%%%%%$$$$%%%%%%%%%%%%%@O. *%%%%%%%%%%%%%$$$$$$$$$$$$$$$$$$$$$$$$$$%%%%%%%%%%%%%%%$@@. *%%%%%%%%%%%%%%%$$$$$$%%%%%%%%%%%%%",
"$$$$$$$$$$%%%%%%%%%%%%$$$$%@O. *%%$$$%%%%%%%%%%%%%%%%%%%%%%%%%%%%%%%%%%%%%%%%%%%%%%%%%%@@. *$$$$$$$%%%%%%%%%%%%%%$$$$$$$$$$$$$",
"%%%%%%%%%%%%%%%%%$$$$$$%%%%@O. *$$$%$$$%%%%%%%%%%%%%$$$$$$$$$$$$$$$$$$$$$$%%%%%%%%%%%%%@O. *%%%%%%$$$$%%%%%%%%%%%%%%%%%%%%%%%%",
"%%%%%%%%%%%%$$$$$$%%%%%%#++@O. *%#++#$$%%%%%%%%%$$$$$%%%%%%%%%%%%%%%%%%%%%$$$$$$%%%%%%++O. *%%++%%%%%$$$%%%%%%%%%%%%%%%%%%%%%%",
"%%%%%%%$$$$$%%%%%%%%%%%%+=&*@. *%+=&*%%%%%%$$$$$%%%%%%%%%%%%%%%%%%%%%%%%%%%%%%%$$$$%%+=&*. *%+=&*%%%%%%%$$$$$$$$$$$$$$$$$%%%%%",
"$$$$$$$$%%%%%%%%%%%%%%%%+&&*@. *%+&&*%%%%$$%%%%%%%%%%%%%%%%%%%%%%%%%%%%%%%%%%%%%%%%$$+&&*. *%+&&*%%%%%%%%%%%%%%%%%%%%%%%$$$$$$",
"@@@@@@@@@@@@@@@@@@@@@@@@@**@O. *@@**@@@@@@@@@@@@@@@@@@@@@@@@@@@@@@@@@@@@@@@@@@@@@@@@@@**@. *@@**@@@@@@@@@@@@@@@@@@@@@@@@@@@@@@",
"OOO@@OOOOOO@@OOOOOO@OOOOOOO@O. *OOO@@@OOO@@OO@OOOOOOO@@@OOOOOO@@@OOOOO@@OOOO@@@O@@@OOO@OO. *@OOOOOOO@@O@@OOOOOOOO@@O@OOOOOOOOO",
".............................. ........................................................... ...................................",
"                                                                                                                              ",
" **********************************************************. ***************************************************************. ",
" *%%%%%$%%%%%%%%%%%%%%%%%%%%%%%%%%%%%%%%%%%%%%%%%%%%%%%%%@@. *%$$$$%%%%%%%%%%%%%%%%%%%%%$$$$$$$$$$$%%%%$$$$$$$%%$$$$$$$$$$@O. ",
" *%%%%%$$$$%%%%%%%%%%%%%%%%%%%%$$$$$$$%%%%%%%%%$$$$$$$$$%@O. *%%%%%$$$$$$$$$$$$$$$$$$$$$%%%%%%%%%%%$$$$%%%%%%$$$%%%%%%%%%%@O. ",
" *%#++%%%%$$$$$$$$$$$$$$$$$$$$$$%%%%%$$$$$$$$$$%%%%%%%%$$+O. *%#++%%%%%%%%%%%%%%%%%%%%%%%%%%%%%%%%%%%%%%%%%%%%%%%%%%%%%#++@O. ",
" *%+=&*%%%%%%%%%%%%%%%%%%%%%%%%%%%%%%%%%%%%%%%%%%%%%%%%+=&*. *%+=&*%%%%%%%%%%%%%%%%%%%%%%%%%%%%%%%%%%%%%%%%%%%$$$$$$$$$+=&*O. ",
" *%+&&*%%%%%%%%%%%%%%%%%%%%%%%%%%%$$$$%%%%%%%%%%%%%%%%%+&&*. *%+&&*%%%%%%%%%%%%%%%%%%%%%%%%%%%%%%%%%%%%%%%%$$$$%%%%%%%%+&&*O. ",
" *%#**%%%%%%%%%%%%%%%%%%%%%%%%%%%%$%%$$$$$$$$$$$%%%%%%%%**@. *%%**$$$$$$$$$$$$$$$$$$$$$$$$$$$%%%%%%%%%%%%$$$%%%%%%%%%%%#**@@. ",
" *%%%%%%%%%%%%%%%%%%%%%%%%%%%%%%%%$$%%%%%%%%%%%$$$$$%%%%%@@. *%%%%%%%%%%%%%%%%%%%%%%%%%%%%%$$$%%%%%%%%%$$$%%%%%%%%%%%%%%%%@@. ",
" *%%%%%%%%%%%%%%%%%%%%%%%%%%%%%%%%%$$$$$%%%%%%%%%%%$$$$$$@@. *%%%%%%%%%%%%%%%%%%%%$$$$$$$$$%%%%%%%%%%$$$%%%%%%%$$$$%%%%%%%@O. ",
" *%%%%%$$$$$$$$$$$$$$$$$$$$%%%%%%%%%%%%$$$$$$$$$$$%%%%%%%@O. *%%$$$$$$$$$$$$$$$$$$$%%%%%%%%%%%%%%%%$$%%%%%%%%$$%%%$%%%%%%%@O. ",
" *%%$$$%%%%%%%%%%%%%%%%%%%%$$$$$%%%%%%%%%%%%%%%%%$$$$$$$$@O. *$$$%%%%%%%%%%%%%%%%%%%%%%%%%%%%%%%$$$%%%%%%$$$$%%%%$%%%%%%%%@O. ",
" *$$$%%%%%%%%%%%%%%%%%%%%%%%%%%%$$$$$$$$$%%%%%%%%%%%%%%%%@@. *%%%%%%%%%%%%%%%%%%%%%%%%%%%%%%%$$$%%%%%%%%$$%%%%%$$%%%%%%$$$@O. ",
" *$%%%%%$$$$$$$$$$$$$$%%%%%%%%%%%%%%%%%%%$$$$$$$%%%%%%%%%@@. *%%%%%%%%%%%%%%%%%%%%%%%%%%$$$$$%%%%%%%%%$$%%%%%%$%%%%%%$$$%%@@. ",
" *%%%%%$%%%%%%%%%%%%%$$$%%%%%%%%%%%%%%%%%%%%%%%%$$$$$$$$%@O. *$$$$$$$$$$$$$$$$$$$$$$$$$$%%%%%%%%%%%$$$%%%%%%$$%%%%%%$$%%%%@O. ",
" *%%%%$$$$$$$$$$$$$$$$$%%%%%%%%%%%%%%%%%%%%%%%%%%%%%%%%%%@O. *%%%%%%%%%%%%%%%%%%%%%%%%%%%%%%%%%%$$$%%%%%%%$$%%%%%%%$%%%%%%@@. ",
" *$$$%%%%%%%%%%%%%%%%%%%%%%%%$$$$$$$$$$$$%%%%%%%%%%%%%%%%@O. *%%%%%%%%%%%%%%%%%%%%%%%%%%%%%%%%%$$%%%%%$$$$%%%%%%%%$$%%%%%%@O. ",
" *$%%$$$$%%%%%%%%%%%%%%$$$$$$%%%%%%%%%%%%$$$$%%%%%%%%%%%%@O. *$$$$$$$$$$$$$%%%%%%%%%%%%%%%%%%%%$$$$$$$%%%%%%%%%%%$%%%%%$$$@O. ",
" *%%%%%%%$$$$$$$$$$$$$$$%%%%%%%%%%%%%%%%%%%%%$$$$$%%%%%%%@O. *%%%%%%%%%%%%%$$$$%%%%%%%%%%%%%%%%$%%%%%%%%%%%%%%%$$%%%%%$$%%@O. ",
" *%#++#%%%%%%%%%%%%%%%%%%%%%%%%%%%%%%%%%%%%%%%%%%$$$$$%%++%. *%#++%%%%%%%%%%%%%$$$$$%%%%%%%%%%%%%%%%%%%%%%%%$$$%%%%%%$%#++@O. ",
" *%+=&*%%%%%%%%%%%%%%%%%%%%%$$$$$$$$$$$$$$%%%%%%%%%%%$%+=&*. *%+=&*%%%%%%%%%%%%%%%%%$$$$%%%%%%%%%%%%%%%%%$$$%%%%%%%%$%%+=&*O. ",
" *%+&&*%%%%%%%%%%%%%%%%%%%$$$%%%%%%%%%%%%%$$%%%%%%%%%%%+&&*. *%+&&*%%%%%%%%%%%%%%%%%%%%%$$$$$%%%%%%%%%$$$%%%%%%%%%%$%%%+&&*O. ",
" *@@**@@@@@@@@@@@@@@@@@@@@@@@@@@@@@@@@@@@@@@@@@@@@@@@@@@**%. *@@**@@@@@@@@@@@@@@@@@@@@@@@@@@@@@@@@@@@@@@@@@@@@@@@@@@@@@@**@O. ",
" *OOOOOOOOO@@@@@OOOOOOOOO@@@O@@@OOO@@@OOOOOOOO@@OOOOO@@@OOO. *OOOOOOOOOOOO@@@OOOO@O@@@OOOOOOOOO@OOOOOOOOOOO@O@@@@OOOOOOOOO@O. ",
" ........................................................... ................................................................ ",
"                                                                                                                    XXX       ",
"*****. ****************************************************************. *****************************************************",
"%%%@@. *%%%%%%%%%$$%%%%%$$%%%%%%%%%%%%%$%%%%$$%%%%%%%%%%%%%$%%%%%%%%%@O. *%%%%%%%%%%%%$%%%%%%%$$$%%%%%%%%%%%%%%%%%%%$%%%%%%%%%",
"%%%@O. *%%%%%%$$$%%%%%%%%$$$$$$$$$$$$$$%%%%%%$$$$%%%%%%%%%%$$$%%%%%%%@O. *$$$$$%%%%%%%%$$$%%%%%%$$$$%%%%%%%%%%%%%%%%$$%%%%%%%%",
"#++@@. *%#++#$%%%%%%%%%%%%%%%%%%%%%%%%%%%%%%%%%%$$$%%%%%%%%%%$$$%%%%++O. *%#++%$$$$$$$$$$$%%%%%%%%%%$$$$%%%%%%%%%%%%%%$$$%%%%%",
"+=&*@. *%+=&*%%%%%%%%%%%%%%%%%%%%%%%%%%%%%%%%%%%%%$$$%%%%%%%%%%$$$$+=&*. *%+=&*%%%%%%%%%%%%%%%%%%%%%%%%%$$$$%%%%%%%%%%%%$$$%%%",
"+&&*O. *%+&&*%%%%%%%%%$$$$$$$$$$$$$$$%%%%%%%%%%%%%%%%$$$%%%%%%%%%%%+&&*. *%+&&*%%%%%%%%%%%%%%%%%%%%%%%%%%%%%$$$%%%%%%%%%%%$$$$",
"#**@O. *%#**%%%%%%%$$$$%%%%%%%%%%%%%%$$$$$$$%%%%%%%%%%%%$$$%%%%%%%%%**O. *%#**%%%%%%%%%%%%%%%%%%%%%%%%%%%%%%%%$$$$%%%%%%%%%%%%",
"%%%@O. *%%%%%%%%$$$%%%%%%%%%%%%%%%%%%%%%%%%%$$$%%%%%%%%%%%$$$%%%%%%%%@@. *%%$$$$$$$$$$$$$$$$$$%%%%%%%%%%%%%%%%%%%%$$$%%%%%%%%%",
"%$$@O. *%%%%%$$$%%%%%%%%%%%%%%%%%%%%%%%%%%%%%%%$$$$%%%%%%%%%%$$$$$%%%@O. *$$%%%%%%%%%%%%%%%%%%$$$%%%%%%%%%%%%%%%%%%%%$$%%%%%%%",
"$$%@O. *%%$$$$%%%%%%%%%%$$$$$$$$$$%%%%%%%%%%%%%%%%%$$$%%%%%%%%%%%$$$$@@. *%%%%%%%%%%%%%%%%%%%%%%%$$$%%%%%%%%%%%%%%%%%%%$$%%%%%",
"%%%@O. *$$%%%%%%%$$$$$$$%%%%%%%%%$$$$$$$%%%%%%%%%%%%%%$$$%%%%%%%%%%%%@@. *$$$$$$$$$$$$$$$$%%%%%%%%%%$$$%%%%%%%%%%%%%%%%%$$%%%%",
"%%%@O. *%%%%%%$$$%%%%%%%%%$$$$$%%%%%%%%%$$$$$%%%%%%%%%%%%$$$$%%%%%%%%@@. *%%%%%%%%%%%%%%%$$$$%%%%%%%%%%$$$$%%%%%%%%%%%%%%$$$$$",
"%%%@O. *%%%%%%$%%%%%%%%%%%%%%%%%%%%%%%%%%%%%%$$$$%%%%%%%%%%%$$$$$%%%%@O. *%%%%%%%%%%%%%%%%%%$$$%%%%%%%%%%%$$$$%%%%%%%%%%%%%%%$",
"$$$@@. *%%%%%%%$$$$$$$$$$$$$$$$$$$$$%%%%%%%%%%%%%$$$%%%%%%%%%%%%$$$$$@O. *$$$$$$$$%%%%%%%%%%%%$$$%%%%%%%%%%%%%$$$%%%%%%%%%%%%%",
"%%%@@. *%%%%%%%%%%%%%%%%%%%%%%%%%%%%$$$$$$$$$%%%%%%%$$$%%%%%%%%%%%%%%@O. *%%%%%%%$$$$$%%%%%%%%%%$$$%%%%%%%%%%%%%%$$$%%%%%%%%%%",
"%%%@O. *$$$%%%%%%%%%%%%%%%%%%%%%%%%%%%%%%%%%$$$$%%%%%%$$$$%%%%%%%%%%%@O. *%%%%%%%%%%%%$$$%%%%%%%%%%$$%%%%%%%%%%%%%%%$$$$%%%%%%",
"%%%@O. *%%%$$$$$%%%%%%%%%%%%%%%%%%%%%%%%%%%%%%%%$$$%%%%%%$$$$%%%%%%%%@O. *$$$$$$$$$%%%%%$$$$$%%%%$$$$%%%%%%%%%%%%%%%%%%%$$$$$$",
"%%%@O. *%%%%%%%%$$$$%%%%%%%%%%%%%%%%%%%%%%%%%%%%%%$$$%%%%%%%$$%%%%%%%@O. *%%%%%%%%%$$$$%%%%%$$$$$%%%%%%%%%%%%%%%%%%%%%%%%%%%%%",
"#++@O. *%#++%%%%%%%%$$$$$$%%%%%%%%%%%%%%%%%%%%%%%%%%%$$%%%%%%$%%%%%%++O. *%#++%%%%%%%%%$$$%%%%%%%%%%%%%%%%$$$$$$$$%%%%%%%%%%%%",
"+=&*O. *%+=&*%%%%%%%%%%%%%$$$$$$%%%%%%%%%%%%%%%%%%%%%%%$$$$$$$%%%%%+=&*. *%+=&*%%%%%%%%%%$$$$$%%%%%%$$$$$$$%%%%%%%$$$$$$%%%%%%",
"+&&*O. *%+&&*%%%%%%%%%%%%%%%%%%%$$$$$$$$%%%%%%%%%%%%%%%%%%%%%%%%%%%+&&*. *%+&&*%%%%%%%%%%%%%%$$$$$$$%%%%%%%%%%%%%%%%%%%$%%%%%%",
"@**@O. *@@**@@@@@@@@@@@@@@@@@@@@@@@@@@@$$@@@@@@@@@@@@@@@@@@@@@@@@@@@**O. *@@**@@@@@@@@@@@@@@@@@@@@@@@@@@@@@@@@@@@@@@@@@@@@@@@@",
"OOOO@. *OOOOOOOOOO@@@OOOOOO@@O@@@OOOOOOOO@OOOOOOOOOOO@OOOOOOOOOO@@OOOOO. *OOOOOOO@@O@OOOOOOO@@OOOOOOOOOOOOOOOOOO@@OO@@@@OOOO@@",
"...... oooo............................................................. .....................................................",
"------------------------------------------------------------------------------------------------------------------------------"
};
