/* XPM */
static char *result[] = {
/* columns rows colors chars-per-pixel */
"126 126 23 1 ",
"  c #130F09",
". c #221B10",
"X c #282013",
"o c #372C1A",
"O c #493A23",
"+ c #4B3C25",
"@ c #584427",
"# c #58462A",
"$ c #5E4B2D",
"% c #5F4C2F",
"& c #6D5530",
"* c #6B5737",
"= c #6A6A6A",
"- c #826500",
"; c #967D57",
": c #CDA006",
"> c #E4BD3B",
", c #FFC500",
"< c #A68D65",
"1 c #FFD442",
"2 c #FAD969",
"3 c #A8A6A0",
"4 c #FFF4D0",
/* pixels */
";;;;;;;;;;;;;;;;;;;;;;;;;;;;;. ;;;;;;;;;;;;;;;;;;;;;;;;;;;;;;;;;;;;;;;;;;;;;;;;;;;;;;;;;;. ;;;;;;;;;;;;;;;;;;;;;;;;;;;;;;;;;;;",
"***************************@O. ;*******************************************************@O. ;**********************************",
"***************************@O. ;*******************************************************@O. ;**********************************",
"*************************#++@. ;**#++#***********************************************#++@. ;*#++#*****************************",
"*************************+3=;. ;**+3=;***********************************************+3=;. ;*+3=;*****************************",
"*************************+==;. ;**+==;***********************************************+==;. ;*+==;*****************************",
"**************************;;O. ;***;;*************************************************;;O. ;*#;;******************************",
"***************************@O. ;*******************************************************@O. ;**********************************",
"***************************@O. ;*******************************************************@O. ;**********************************",
"***************************@O. ;***********************,,,,,,,,,,,,,,,,****************@O. ;**********************************",
"***************************@O. ;******************,,,,,,,,,,,,,,,,,,,4444444444********@O. ;**********************************",
"***************************@O. ;***************,,,,,,,,,,,,,,,,,,44444444444444********@O. ;**********************************",
"***************************@O. ;************,,,,,,,,,,,,,,,,,,44444444444444444444*****@O. ;**********************************",
"***************************@O. ;**********,,,,,,,,,,,,,,,,44444444444444444444444444***@@. ;**********************************",
"***************************@O. ;*******,,,,,,,,,,,,,,,,,,444444444444444444444444444444@O. ;**********************************",
"***************************@@. ;******,,,,,,,,,,,,,,,,4444444444444444444444444444444444O. ;**********************************",
"***************************@O. ;****,,,,,,,,,,,,,,,,44444444444444444444444444444444444444 ;**********************************",
"***************************@O. ;**,,,,,,,,,,,,,,,,444444444444444444444444444444444444444444**********************************",
"***************************@O. ;*,,,,,,,,,,,,,,,444444444444444444444444444444444444444444444*********************************",
"*************************#++@. ;,,,,,,,,,,,,,,444444444444444444444444444444444444444444444444++******************************",
"*************************+3=;.,,,,,,,,,,,,,,,444444444444444444444444444444444444444444444444444;*****************************",
"*************************+==;,,,,,,,,,,,,,,444444444444444444444444444444444444444444444444444444*****************************",
"@@@@@@@@@@@@@@@@@@@@@@@@@@;;,,,,,,,,,,,,,444444444444444444444444444444444444444444444444444444444@@@@@@@@@@@@@@@@@@@@@@@@@@@@",
"OOOOO@@OOOOOOOOO@@OOO@OOOOO,,,,,,,,,,,,,44444444444444444444444444444444444444444444444444444444444OOOOO@@@OOOOOOOOOO@@@@OOOOO",
"..........................,,,,,,,,,,,,,444444444444444444444444444444444444444444444444444444444444,...............ooo........",
"                         ,,,,,,,,,,,,44444444444444444444------------444444444444444444444444444,,,,,       XXXXXXXXXXXXXXXXXX",
" ;;;;;;;;;;;;;;;;;;;;;;;,,,,,,,,,,,,4444444444444444----------------------4444444444444444444,,,,,,,,,;;;;;;;<<<<<<<<<<<<<<<oX",
" ;*********************,,,,,,,,,,,,,4444444444444--------,,,,,,,,,,,,--------44444444444444,,,,,,,,,,,,*******************@@. ",
" ;********************,,,,,,,,,,,,,444444444444------,,,,,,,,,,,,,,,,,,,,------4444444444,,,,,,,,,,,,,,,******************@@. ",
" ;**++****************,,,,,,,,,,,,44444444444-----,,,,,,,,,,,,,,,,,,,,,,,,,,-----444444,,,,,,,,,,,,,,,,,***************#+%&$oX",
" ;*+3=;**************,,,,,,,,,,,,4444444444-----,,,,,,,,,,,,,,,,,,,,,,,,,,,,,,-----444,,,,,,,,,,,,,,,,,,,**************+3=;O. ",
" ;*+==;*************,,,,,,,,,,,,4444444444----,,,,,,,,,,,,,,,,,,,,,,,,,,,,,,,,,,----,,,,,,,,,,,,,,,,,,,,,,*************+==;O. ",
" ;**;;*************,,,,,,,,,,,,4444444444---,,,,,,,,,,,,,,,,,,,,,,,,,,,,,,,,,,,44,---,,,,,,,,,,,,,,,,,,,,,,************#;;@O. ",
" ;*****************,,,,,,,,,,,444444444----,,,,,,,,,,,,,,,,,,,,,,444444444444444444----,,,,,,,,,,,,,,,,,,,,***************@O. ",
" ;****************,,,,,,,,,,,444444444----,,,,,,,,,,,,,,,,,,,,4444444444444444444444----,,,,,,,,,,,,,,,,,,,,**************@O. ",
" ;****************,,,,,,,,,,444444444---,,,,,,,,,,,,,,,,,,,444444444444444444444444444---,,,,,,,,,,,,,,,,,,,**************@O. ",
" ;***************,,,,,,,,,,444444444---,,,,,,,,,,,,,,,,,,444444444444444444444444444444---,,,,,,,,,,,,,,,,,,,*************@@. ",
" ;**************,,,,,,,,,,444444444---,,,,,,,,,,,,,,,,,444444444444::::44444444444444444---,,,,,,,,,,,,,,,,,,,************@@. ",
" ;**************,,,,,,,,44444444444--,,,,,,,,,,,,,,,,44444444444:::>>>>244444444444444444--,,,,,,,,,,,,,,,,,,,************@O. ",
" ;**************,,,,,,,44444444444---,,,,,,,,,,,,,,4444444444:::>>>>>>>244444444444444444---,,,,,,,,,,,,,,,,,,************@O. ",
" ;*************,,,,,,,,4444444444---,,,,,,,,,,,,,444444444:::>>>>>>>>>24444444444444444444---,,,,,,,,,,,,,,,,,,***********@O. ",
" ;*************,,,,,,,4444444444---,,,,,,,,,,,,,4444444:::>>>>>>>>>>>2444444444444444444444---,,,,,,,,,,,,,,,,,***********@O. ",
" ;************,,,,,,,44444444444--,,,,,,,,,,,,,44444:::>>>>>>>>>>>>>>14444444444444444444444--,,,,,,,,,,,,,,,,,,**********@O. ",
" ;************,,,,,,44444444444---,,,,,,,,,,,444444:>>>>>>>>>>>>>>>>>14444444444444444444444---,,,,,,,,,,,,,,,,,**********@O. ",
" ;************,,,,,,44444444444--,,,,,,,,,,,444444:>>>>>>>>>>>>>>>>>>244444444444444444,,,,,,--,,,,,,,,,,,,,,,,,**********@O. ",
" ;**++*******,,,,,,44444444444---,,,,,,,,,,4444444:>>>>>>>>>>>>>>>>>>244444444444,,,,,,,,,,,,---,,,,,,,,,,,,,,,,,******#++@O. ",
" ;*+3=;******,,,,,444444444444--,,,,,,,,,,44444444:>>>>>>>>>>>>>>>>>>244444444,,,,,,,,,,,,,,,,--,,,,,,,,,,,,,,,,,******+3=;O. ",
" ;@+==;@@@@@@,,,,,44444444444---,,,,,,,,,444444444:>>>>>>>>>>>>>>>>>>24444444,,,,,,,,,,,,,,,,,---,,,,,,,,,,,,,,,,@@@@@@+==;@. ",
" ;O@;;@@@OOO,,,,,444444444444--,,,,,,,,,4444444444:>>>>>>1:>>>>>>>>>>244444,,,,,,,,,,,,,,,,,,,,--,,,,,,,,,,,,,,,,,OOOOO@;;@O. ",
"............,,,,4444444444444--,,,,,,,,44444444444:>>>>114:>>>>>>>>>>24444,,,,,,,,,,,,,,,,,,,,,--,,,,,,,,,,,,,,,,,........... ",
"            ,,,4444444444444---,,,,,,,444444444444:>>11444:>>>>>>>>>>2444,,,,,,,,,,,,,,,,,,,,,,---,,,,,,,,,,,,,,,,            ",
";;;;;;;;;;;;,,44444444444444--,,,,,,,444444444444441144444:>>>>>>>>>>244,,,,,,,,,,,,,,,,,,,,,,,,--,,,,,,,,,,,,,,,,;;;;;;;;;;;;",
"************,,44444444444444--,,,,,,4444444444444444444444:>>>>>>>>>>24,,,,,,,,,,,,,,,,,,,,,,,,,--,,,,,,,,,,,,,,,,************",
"***********,,444444444444444--,,,,,44444444444444444444444:>>>>>>>>>>2,,,,,,,,,,,,,,,,,,,,,,,,,,--,,,,,,,,,,,,,,,,,***********",
"***********,,444444444444444--,,,,,44444444444444444444444:>>>>>>>>>>1,,,,,,,,,,,,,,,,,,,,,,,,,,--,,,,,,,,,,,,,,,,,***********",
"***********,444444444444444--,,,,,,44444444444444444444444:>>>>>>>>>>1,,,,,,,,,,,,,,,,,,,,,,,,,,,--,,,,,,,,,,,,,,,,***********",
"***********4444444444444444--,,,,,444444444444444444444444:>>>>>>>>>>1,,,,,,,,,,,,,,,,,,,,,,,,,,,--,,,,,,,,,,,,,,,,***********",
"***********4444444444444444--,,,,,444444444444444444444444:>>>>>>>>>>1,,,,,,,,,,,,,,,,,,,,,,,,,,,--,,,,,,,,,,,,,,,,***********",
"***********4444444444444444--,,,,4444444444444444444444444:>>>>>>>>>>1,,,,,,,,,,,,,,,,,,,,,,,,,,,--,,,,,,,,,,,,,,,,***********",
"***********4444444444444444--,,,44444444444444444444444444:>>>>>>>>>>2,,,,,,,,,,,,,,,,,,,,,,,,,,,--,,,,,,,,,,,,,,,,***********",
"***********4444444444444444--,,,44444444444444444444444444:>>>>>>>>>>2,,,,,,,,,,,,,,,,,,,,,,,,,,,--,,,,,,,,,,,,,,,,***********",
"***********4444444444444444--,,,444444444444444444444444,,:>>>>>>>>>>2,,,,,,,,,,,,,,,,,,,,,,,,,,,--,,,,,,,,,,,,,,,,***********",
"***********4444444444444444--,,44444444444444444444444,,,,:>>>>>>>>>>2,,,,,,,,,,,,,,,,,,,,,,,,,,,--,,,,,,,,,,,,,,,,***********",
"***********4444444444444444--,444444444444444444444444,,,,:>>>>>>>>>>2,,,,,,,,,,,,,,,,,,,,,,,,,,,--,,,,,,,,,,,,,,,,***********",
"***********4444444444444444--,44444444444444444444444,,,,,:>>>>>>>>>>2,,,,,,,,,,,,,,,,,,,,,,,,,,,--,,,,,,,,,,,,,,,,***********",
"***********4444444444444444--44444444444444444444444,,,,,,:>>>>>>>>>>2,,,,,,,,,,,,,,,,,,,,,,,,,,,--,,,,,,,,,,,,,,,,***********",
"***********4444444444444444--4444444444444444444444,,,,,,,:>>>>>>>>>>2,,,,,,,,,,,,,,,,,,,,,,,,,,,--,,,,,,,,,,,,,,,,***********",
"***********44444444444444444--44444444444444444444,,,,,,,,:>>>>>>>>>>1,,,,,,,,,,,,,,,,,,,,,,,,,,--,,,,,,,,,,,,,,,,,***********",
"***********44444444444444444--44444444444444444444,,,,,,,,:>>>>>>>>>>1,,,,,,,,,,,,,,,,,,,,,,,,,,--,,,,,,,,,,,,,,,,,***********",
"************4444444444444444--4444444444444444444,,,,,,,,,:>>>>>>>>>>1,,,,,,,,,,,,,,,,,,,,,,,,,,--,,,,,,,,,,,,,,,,************",
"************4444444444444444--444444444444444444,,,,,,,,,,:>>>>>>>>>>1,,,,,,,,,,,,,,,,,,,,,,,,,,--,,,,,,,,,,,,,,,,************",
"************4444444444444444---44444444444444444,,,,,,,,,,:>>>>>>>>>>1,,,,,,,,,,,,,,,,,,,,,,,,,---,,,,,,,,,,,,,,,,************",
"@@@@@@@@@@@@4444444444444444,--4444444444444444,,,,,,,,,,,:>>>>>>>>>>1,,,,,,,,,,,,,,,,,,,,,,,,,--,,,,,,,,,,,,,,,,,@@@@@@@@@@@@",
"OOO@@OOOOOO@444444444444444,,--4444444444444444,,,,,,,,,,,:>>>>>>>>>>1,,,,,,,,,,,,,,,,,,,,,,,,,--,,,,,,,,,,,,,,,,,@O@OOOOOOOOO",
".............444444444444,,,,---44444444444444,,,,,,,,,,,,:>>>>>>>>>>1,,,,,,,,,,,,,,,,,,,,,,,,---,,,,,,,,,,,,,,,,.............",
"             44444444444,,,,,,--44444444444444,,,,,,,,,,,,:>>>>>>>>>>111112,,,,,,,,,,,,,,,,,,,--,,,,,,,,,,,,,,,,,             ",
" ;;;;;;;;;;;;44444444444,,,,,,---4444444444444,,,,,,,:>>>>>>>>>>>>>>>>>>>>2,,,,,,,,,,,,,,,,,,---,,,,,,,,,,,,,,,,,;;;;;;;;;;;. ",
" ;************444444444,,,,,,,,--444444444444,,,,,,,,:>>>>>>>>>>>>>>>>>>>>1,,,,,,,,,,,,,,,,,,--,,,,,,,,,,,,,,,,,**********@O. ",
" ;************444444444,,,,,,,,---4444444444,,,,,,,,,:>>>>>>>>>>>>>>>>>>>>1,,,,,,,,,,,,,,,,,---,,,,,,,,,,,,,,,,,**********@O. ",
" ;*#++********44444444,,,,,,,,,,--4444444444,,,,,,,,,:>>>>>>>>>>>>>>>>>>>>1,,,,,,,,,,,,,,,,,--,,,,,,,,,,,,,,,,,,*******#++@O. ",
" ;*+3=;********4444444,,,,,,,,,,---44444444,,,,,,,,,,:>>>>>>>>>>>>>>>>>>>>2,,,,,,,,,,,,,,,,---,,,,,,,,,,,,,,,,,********+3=;O. ",
" ;*+==;********4444444,,,,,,,,,,,---4444444,,,,,,,,,,2211111112222111111122,,,,,,,,,,,,,,,---,,,,,,,,,,,,,,,,,,********+==;O. ",
" ;*#;;**********44444,,,,,,,,,,,,,---444444,,,,,,,,,,,,,,,,,,,,,,,,,,,,,,,,,,,,,,,,,,,,,,---,,,,,,,,,,,,,,,,,,*********#;;@@. ",
" ;**************44444,,,,,,,,,,,,,,--44444,,,,,,,,,,,,,,,,,,,,,,,,,,,,,,,,,,,,,,,,,,,,,,,--,,,,,,,,,,,,,,,,,,,************@@. ",
" ;**************4444,,,,,,,,,,,,,,,---4444,,,,,,,,,,,,,,,,,,,,,,,,,,,,,,,,,,,,,,,,,,,,,,---,,,,,,,,,,,,,,,,,,,************@O. ",
" ;***************444,,,,,,,,,,,,,,,,---44,,,,,,,,,,,,,,,,,,,,,,,,,,,,,,,,,,,,,,,,,,,,,,---,,,,,,,,,,,,,,,,,,,*************@O. ",
" ;****************44,,,,,,,,,,,,,,,,,---4,,,,,,,,,,,,,,,,,,,,,,,,,,,,,,,,,,,,,,,,,,,,,---,,,,,,,,,,,,,,,,,,,**************@O. ",
" ;****************4,,,,,,,,,,,,,,,,,,,----,,,,,,,,,,,,,,,,,,,,,,,,,,,,,,,,,,,,,,,,,,----,,,,,,,,,,,,,,,,,,,,**************@O. ",
" ;*****************,,,,,,,,,,,,,,,,,,,,----,,,,,,,,,,,,,,,,,,,,,,,,,,,,,,,,,,,,,,,,----,,,,,,,,,,,,,,,,,,,,***************@@. ",
" ;*****************,,,,,,,,,,,,,,,,,,,,,,---,,,,,,,,,,,,,,,,,,,,,,,,,,,,,,,,,,,,,,---,,,,,,,,,,,,,,,,,,,,,,***************@O. ",
" ;******************,,,,,,,,,,,,,,,,,,,,,,----,,,,,,,,,,,,,,,,,,,,,,,,,,,,,,,,,,----,,,,,,,,,,,,,,,,,,,,,,****************@@. ",
" ;*******************,,,,,,,,,,,,,,,,,,,,,,-----,,,,,,,,,,,,,,,,,,,,,,,,,,,,,,-----,,,,,,,,,,,,,,,,,,,,,,*****************@O. ",
" ;********************,,,,,,,,,,,,,,,,,,,,,,,-----,,,,,,,,,,,,,,,,,,,,,,,,,,-----,,,,,,,,,,,,,,,,,,,,,,,******************@O. ",
" ;********************,,,,,,,,,,,,,,,,,,,,,,,,,------,,,,,,,,,,,,,,,,,,,,------,,,,,,,,,,,,,,,,,,,,,,,,,******************@O. ",
" ;*#++#****************,,,,,,,,,,,,,,,,,,,,,,,,,,--------,,,,,,,,,,,,--------,,,,,,,,,,,,,,,,,,,,,,,,,,****************#++@O. ",
" ;*+3=;*****************,,,,,,,,,,,,,,,,,,,,,,,,,,,,----------------------,,,,,,,,,,,,,,,,,,,,,,,,,,,,*****************+3=;O. ",
" ;*+==;******************,,,,,,,,,,,,,,,,,,,,,,,,,,,,,,,,------------,,,,,,,,,,,,,,,,,,,,,,,,,,,,,,,,******************+==;O. ",
" ;@@;;@@@@@@@@@@@@@@@@@@@@,,,,,,,,,,,,,,,,,,,,,,,,,,,,,,,,,,,,,,,,,,,,,,,,,,,,,,,,,,,,,,,,,,,,,,,,,,@@@@@@@@@@@@@@@@@@@@;;@O. ",
" ;OOOOOOOOO@@@@@OOOOOOOOO@@,,,,,,,,,,,,,,,,,,,,,,,,,,,,,,,,,,,,,,,,,,,,,,,,,,,,,,,,,,,,,,,,,,,,,,,,OOOOOOOO@O@@@@OOOOOOOOO@O. ",
" ...........................,,,,,,,,,,,,,,,,,,,,,,,,,,,,,,,,,,,,,,,,,,,,,,,,,,,,,,,,,,,,,,,,,,,,,,........................... ",
"                             ,,,,,,,,,,,,,,,,,,,,,,,,,,,,,,,,,,,,,,,,,,,,,,,,,,,,,,,,,,,,,,,,,,,,                   XXX       ",
";;;;;. ;;;;;;;;;;;;;;;;;;;;;;;,,,,,,,,,,,,,,,,,,,,,,,,,,,,,,,,,,,,,,,,,,,,,,,,,,,,,,,,,,,,,,,,,,;;;;;;;;;;;;;;;;;;;;;;;;;;;;;;",
"***@@. ;************************,,,,,,,,,,,,,,,,,,,,,,,,,,,,,,,,,,,,,,,,,,,,,,,,,,,,,,,,,,,,,,********************************",
"***@O. ;*************************,,,,,,,,,,,,,,,,,,,,,,,,,,,,,,,,,,,,,,,,,,,,,,,,,,,,,,,,,,,,*********************************",
"#++@@. ;*#++#*********************,,,,,,,,,,,,,,,,,,,,,,,,,,,,,,,,,,,,,,,,,,,,,,,,,,,,,,,,,,**********************************",
"+3=;@. ;*+3=;***********************,,,,,,,,,,,,,,,,,,,,,,,,,,,,,,,,,,,,,,,,,,,,,,,,,,,,,,************************************",
"+==;O. ;*+==;*************************,,,,,,,,,,,,,,,,,,,,,,,,,,,,,,,,,,,,,,,,,,,,,,,,,,**************************************",
"#;;@O. ;*#;;***************************,,,,,,,,,,,,,,,,,,,,,,,,,,,,,,,,,,,,,,,,,,,,,,,,***************************************",
"***@O. ;**********************************,,,,,,,,,,,,,,,,,,,,,,,,,,,,,,,,,,,,,,,,,,******************************************",
"***@O. ;************************************,,,,,,,,,,,,,,,,,,,,,,,,,,,,,,,,,,,,,,********************************************",
"***@O. ;***************************************,,,,,,,,,,,,,,,,,,,,,,,,,,,,,,,,***********************************************",
"***@O. ;******************************************,,,,,,,,,,,,,,,,,,,,,,,,,,**************************************************",
"***@O. ;***********************************************,,,,,,,,,,,,,,,,. ;****************************************************",
"***@O. ;*************************************************************@O. ;****************************************************",
"***@@. ;*************************************************************@O. ;****************************************************",
"***@@. ;*************************************************************@O. ;****************************************************",
"***@O. ;*************************************************************@O. ;****************************************************",
"***@O. ;*************************************************************@O. ;****************************************************",
"***@O. ;*************************************************************@O. ;****************************************************",
"#++@O. ;*#++********************************************************++O. ;*#++************************************************",
"+3=;O. ;*+3=;******************************************************+3=;. ;*+3=;***********************************************",
"+==;O. ;*+==;******************************************************+==;. ;*+==;***********************************************",
"@;;@O. ;@@;;@@@@@@@@@@@@@@@@@@@@@@@@@@@@@@@@@@@@@@@@@@@@@@@@@@@@@@@@;;O. ;@@;;@@@@@@@@@@@@@@@@@@@@@@@@@@@@@@@@@@@@@@@@@@@@@@@@",
"OOOO@. ;OOOOOOOOOO@@@OOOOOO@@O@@@OOOOOOOO@OOOOOOOOOOO@OOOOOOOOOO@@OOOOO. ;OOOOOOO@@O@OOOOOOO@@OOOOOOOOOOOOOOOOOO@@OO@@@@OOOO@@",
"...... oooo............................................................. .....................................................",
"XXXXXXXXXXX                XX         XXXXXXXXXXXXXXXXXXXXXXXXXXXXXXXXXXXXXXXXXXXXXX                                          "
};
