/* XPM */
static char *result[] = {
/* columns rows colors chars-per-pixel */
"126 126 13 1 ",
"  c #130F09",
". c #221B10",
"X c #372C1A",
"o c #493A23",
"O c #4B3C25",
"+ c #584427",
"@ c #58462A",
"# c #5C492C",
"$ c #6B5737",
"% c #6A6A6A",
"& c #967D57",
"* c #A8A6A0",
"= c None",
/* pixels */
"&&&&&&&&&&&&&&&&&&&&&&&&&&&&&. oooooooooooooooooooooooooooooooooooooooooooooooooooooooooo &&&&&&&&&&&&&&&&&&&&&&&&&&&&&&&&&&&&",
"$$$$$$$$$$$$$$$$$$$$$$$$$$$+o. o++++++++++++++++++++++++++++++++++++++++++++++++++++++++o &$$$$$$$$$####$$$$#######$$$##$$$$$$",
"$$$$$$$$$$$$$##############+o. o+$$$$$$$$$#$$$$$$$$#$$$$$$$$#$$$$$$$$$$$$$$$$$$##$$$$$$+o &$&&$$$####$$$$$$$$$$$$$$$$$$####$$$",
"$$$$$$$$$#####$$$$$$$$$$$@OO+. o+$@OO@$$$$##$$$$$$$$#########$$$$$$$$$$$$$$$$##$$$$$$@O+o &&%%O##$$$$$$$$$$$$$$$$$$$$$$$$$####",
"$$$$$$####$$$$$$$$$$$$$$$O*%&. o+$O*%&$$$$$$##$$$$$$$$$$$$$$$$$$$$$$$$$$$#####$$$$$$$O*%& &&%*O$$$$$$$$$$$#########$$$$$$$$$$#",
"$$#####$$$$$$$$$$$$$$$$$$O%%&. o+#O%%&$$$$$$$$####$$$$$$$$$$$############$$$$$$$$$$##O%%& &$OO$$$$$$$$####$$$$$$$$######$$$$$$",
"##$$$$$$$$$$#####$$$$$$$$$&&o. o+$$&&##$$$$$$$$$$$###########$$$$$$$$$$$$$$$$$$####$$$&&o &$$$$$$$$###$$$$$$$$$$$$$$$$$#######",
"$$$$$$$$$$##$$$$#######$$$$+o. o+$$$$$#####$$$$$$$$$$$$$$$$$$$$$$$$$$$$$$$$#####$$$$$$$+o &$$$$$$###$$$$$$########$$$$$$$$$$$$",
"$$$$$$$$$$$###$$$$$$$$$####+o. o+$$$$$$$$$$###$$$$$$$$$$$$$$$$$$$$$$$$#####$$$$$$$$####+o &$$$####$$$$$###$$$$$$$##$$$$$$$$$$$",
"$$$$$$$$$$$$$##$$$$$$$$$$$$+o. o+$$$$$$$$$$$$###$$$$$$$$$$$$$$$$#######$$$$$$$$$$###$$$+o &###$$$$$$$$$#####$$$$$##$$$$$$$$$$$",
"$$$$$$$$$$$$$$$##$$$$$$$$$$+o. o+########$$$$$$##################$$$$$$$$$$$$$$$##$$$$$+o &$$$$$$$$$$$$$$$$$#####$$$$$$$######",
"$$$$$$$$$$$$$$$$$##$$$$$$$$+o. o+$$$$$$$###$$$$$$$$$$$$$$$$$$$$$$$$$$$$$$$$$$$$##$$$$$$+o &$$$$$$$#######$$$$$$$$$$$$$##$$$$$$",
"##$$$$$$$$$$$$$$$$##$$$$$$$+o. o+###$$$$$$$###$$$$$$$$$$$$$$$$$$$$$$$$#####$$###$$$$$$$+o &$$$$$###$$$$$#####$$$$$$###$$$$$$$$",
"$######$$$$$$$$$$$$$#$$$$$$+o. o+$$#$$$$$$$###########################$$$$#####$$$$$$$$++  &$$##$$$$+$$$$$$$##+$$##$$$$$$$$$##",
"$$$$$$#####$$$$$$$$$$##$$$$+o. o+##$$$$$###$$$$$$$$$$$$$$$$$$$$$$$$$$$$$$$$$$$+$$$$$$$$+o   &&&$$$$+$$$$$$$$$$+&#$$$$$$$+$$###",
"$$$$$$$$$$$####$$$$$$$##$$$++. o##$$$###$$$$$$$$$$$$$$$$$$$$$$$$$$$$$$$$$$+$$$+$$$$$$$$+o      &$$$&$$$$$$$$$+  &$$$$$$+  &$$$",
"$$$$$$$$$$$$$$$###$$$$$$##$+o. o+$$##$$$$$$$$$$$$$$$$$$$$$$$$$+$$$$$$$+$$$$+$$$+ &$$$$$+o       &+   &$+$$$++    &&$$$+   &$$$",
"####$$$$$$$$$$$$$$##$$$$$#$+o. o+###$$$$$$$$$$$$$$###$$$$$$$$$$+$$$$$+$$$$+$$$$+  &$$$$+        &+      &$+        &$+     &&$",
"$$$$##$$$$$$$$$$$$$$##$$$$#+o. o+#$$$$$$$$$$$#####$$##########$+$$$$+$$$$$$ $$$$   &&$$$                            &        $",
"$$$$$$###$$$$$$$$$$$$$#$$@OO+. o+$@OO$$$$$###$$$$$$$$$$$$$$$$#+$$$$+&$$$$$  &$$+     &&+                                      ",
"$$$$$$$$$###$$$$$$$$$$##$O*%&. o+$O*%&$$$##$$$$$$$$$$$$$$$$$$$ &$$+  &$$+    &$+                                              ",
"$$$$$$$$$$$##$$$$$$$$$$##O%%&. o+$O%%&$##$$$$$$$$#######$$$$$+  &$+   &+      &                                               ",
"++++++++++++++++++++++++++&&+. o+++&&++++++++++++++++++++&$$+   &$                                                            ",
"ooooo++ooooooooo++ooo+ooooooo. oo++++oooooo++++++++++++o  &$+                                                                 ",
".............................. .....................       &                                                                  ",
"                                                                                                                              ",
"                                                                                                                          &&&.",
" .oo+o$$&&                                                                                                             &&&$++.",
" .+&&+$$$$&                                                                                                          &&$$$$+o.",
" .&%%O$$$$$                                                                                                        &&$$$$$OO+.",
" .&%*O$$&                                                                                                          $$$$$++*%&.",
" .oOO$$$$&                                                                                                             +$O%%&.",
" .o+$$$$$$&                                                                                                          &&$$O&&o.",
" .++$$$$$$$&                                                                                                        &&$$$$$+o.",
" .++$$$$$$$$&                                                                                                       $$$$$$$+o.",
" .o+$$$$$$$$$                                                                                                        &&$$$$+o.",
" .o+$$$$$$                                                                                                         &&$$$$$$+o.",
" .o+$$$$$$                                                                                                         $$$$$+++++.",
" .++$$$$$$&&                                                                                                        $$++$$$+o.",
" .o+$$$$$$$$                                                                                                       &&&$$$$$+o.",
" .o+$$$$$                                                                                                         &$$$$$$$$+o.",
" .o+$$$$$&                                                                                                        $$$$$$$$$++.",
" .o+$$$$$$&                                                                                                         $$$$+++++.",
" .o&&O$$$$                                                                                                           &$+$$$+o.",
" .&%%O$&                                                                                                             ++$$$OOo.",
" .&%*$$$&&&&                                                                                                          &$$O*%&.",
" .+OO$$$$$$$                                                                                                        &&$$$O%%&.",
" .o+$$$$$$                                                                                                         &$$$$$+&&+.",
" .++$$$$                                                                                                           $$$$$$o+oo.",
" .$$$                                                                                                                         ",
"                                                                                                                              ",
"&&&&&&&&&&&&&&&&&&&&&&&&&&&&&..oo+o$$&&                                                      &&&. &&&&&&&&&&&&&&&&&&&&&&&&&&&&",
"$$$$$$$$$$$$$$$$#$$$$$$$$$$+o..+&&+$$$$&                                                  &&&$++. &#$$$$$$$$$$$$$$$$$$$$$$$$$$",
"$$$$$$$$$$$$$$$$$##$$$$$$$$+o..&%%O$$$$$                                                &&$$$$+o. &$########$$$$$$$$$$$$$$$$$$",
"$$$$$$$$$$$$$$$$$$##$$$$@OO++..&%*O$$&                                                &&$$$$$OO+. &$@OO$$$$###################",
"$$$$$$$$$$####$$$$$$###$O*%&+..oOO$$$$&                                               $$$$$++*%&. &$O*%&$$$$$$$$$$$$$$$$$$$$$#",
"###########$$###$$$$$$##O%%&o..o+$$$$$$&                                                  +$O%%&. &$O%%&$$$$$$$$$$$$$$$$$$$$$$",
"$$$$$$$$$$$$$$$###$$$$$$$&&+o..++$$$$$$$&                                               &&$$O&&o. &$$&&$$$$$$$$$$$$$$$$$$$$$$$",
"$$$$$$$$$$$$$$$$$###$$$$$$$+o..++$$#####$&                                             &&$$$$$+o. &$$$$$$$$$$$$$$$###########$",
"$$$$$$$#########$$$$##$$$$$++..o+##$$$$##$                                             $$$$$$$+o. &$$$$$$$$$$#####$$$$$$$$$$$#",
"########$$$$$$$##$$$$$####$+o..o+$$$$$$                                                 &&$$$$+o. &##$$$$$$$$##$$$$$$$$##$$$$$",
"$$$$$$$$$$$$$###$$$$$$$$$$#+o..o+$$###$                                               &&$$$$$$+o. &$####$$$$$$$####$$$$$$####$",
"###$$$$$$$####$$$$$$$$$$$$$++..++###$##&&                                             $$$$$+++++. &$$$$####$$$$$$$$####$$$$$$$",
"$$$$$$$$###$$$$$$$$$$$$$$##++..o+$$$$$$$$                                              $$++$$$+o. &$$$$$$$###$$$$$$$$$$#######",
"########$$$$$$$$$$#######$$++..o+$$$$$                                                &&&$$$$$+o. &$$$$$$$$$####$$$$$$$$$$$$$$",
"$$$$$$$$$$$$$$#####$$$$$$$$+o..o+$$$$$&                                              &$$$$$$$$+o. &$$$$$$$$$$$$###$$$$$$$$$$$$",
"$$$$$$$$$$####$$$$$$$$$$$$$+o..o+$$$$$$&                                             $$$$$$$$$++. &$$$$$$$$$$$$$$$######$$$$$$",
"##########$$$$$$$$$$$$####$+o..o&&O$$$$                                                $$$$+++++. &#######$$$$$$$$$$$$$$######",
"$$$$$$$$$$$$$$$$$######$$$$+o..&%%O$&                                                   &$+$$$+o. &$$$$$$####$$$$$$$$$$$$$$$$$",
"$$$$$$$$$$$$######$$$$$$@OO+o..&%*$$$&&&&                                               ++$$$OOo. &$$OO$$$$$###$$$$$$$$$$$$$$$",
"$$$$$$$#####$$$$$$$$$$$$O*%&+..+OO$$$$$$$                                                &$$O*%&. &$O*%&$$$$$$$###############",
"########$$$$$$$$$$$$$$$$O%%&+..o+$###$$                                                &&$$$O%%&. &$O%%&$$$$$$$$$$$$$$$$$$$$$$",
"+++++++++++++++++++++++++&&+o..++$$$$                                                 &$$$$$+&&+. &++&&+++++++++++++++++++++++",
"ooo++oooooo++oooooo+ooooooo+o..$$$                                                    $$$$$$o+oo. &+ooooooo++o++oooooooo++o+oo",
"..............................                                                                    ............................",
"                                                                                                                              ",
"                                                                                                                          &&&.",
" .oo+o$$&&                                                                                                             &&&$++.",
" .+&&+$$$$&                                                                                                          &&$$$$+o.",
" .&%%O$$$$$                                                                                                        &&$$$$$OO+.",
" .&%*O$$&                                                                                                          $$$$$++*%&.",
" .oOO$$$$&                                                                                                             +$O%%&.",
" .o+$$$$$$&                                                                                                          &&$$O&&o.",
" .++#####$$&                                                                                                        &&$$$$$+o.",
" .++$$$$###$&                                                                                                       $$$$$$$+o.",
" .o+$$$$$$$$$                                                                                                        &&$$$$+o.",
" .o+$$$$$$                                                                                                         &&$$$$$$+o.",
" .o+$$$$$$                                                                                                         $$$$$+++++.",
" .++#$$$$#&&                                                                                                        $$++$$$+o.",
" .o+$##$$$$$                                                                                                       &&&$$$$$+o.",
" .o+$$##$                                                                                                         &$$$$$$$$+o.",
" .o+$$$##&                                                                                                        $$$$$$$$$++.",
" .o+$$$$#$&                                                                                                         $$$$+++++.",
" .o&&O$$$$                                                                                                           &$+$$$+o.",
" .&%%O$&                                                                                                             ++$$$OOo.",
" .&%*$$$&&&&                                                                                                          &$$O*%&.",
" .+OO$$$$$$$                                                                                                        &&$$$O%%&.",
" .o+$$$$$$                                                                                                         &$$$$$+&&+.",
" .++$$$$                                                                                                           $$$$$$o+oo.",
" .$$$                                                                                                                         ",
"                                                                                                                              ",
"&&&&&. oooo++++o                                                         &&&&&&&&&&&&&&&&&&&&&&&&&&&&&&&&&&&&&&&&&&&&&&&&&&&&&",
"$$$++. oo++$$$$$&                                                      & &$$$$$$$$$$$$#$$$$$$$###$$$$$$$$$$$$$$$$$$$#$$$$$$$$$",
"$$$+o. o++$$$$$$&      &                                              &. &#####$$$$$$$$###$$$$$$####$$$$$$$$$$$$$$$$##$$$$$$$$",
"@OO++. o+@OO@$$$$&   &&+                                           &&&o. &$@OO$###########$$$$$$$$$$####$$$$$$$$$$$$$$###$$$$$",
"O*%&+. o+O*%&$$$$$&&$#$+          &                               &O*%&. &$O*%&$$$$$$$$$$$$$$$$$$$$$$$$$####$$$$$$$$$$$$###$$$",
"O%%&o. o+O%%&$$$$$$##$$$&&      &&$+         &          &        &$O%%&. &$O%%&$$$$$$$$$$$$$$$$$$$$$$$$$$$$$###$$$$$$$$$$$####",
"@&&+o. o+@&&$$$$$###$$$$$$  &+&&$$+  &+     &#+        &$+      &$$$&&o. &$@&&$$$$$$$$$$$$$$$$$$$$$$$$$$$$$$$$####$$$$$$$$$$$$",
"$$$+o. o+$$$$$$###$$$$$$$$ &#$$$$$&&&$$&   &##$+&    &&$$$&$+   &$$$$++. &$$##################$$$$$$$$$$$$$$$$$$$$###$$$$$$$$$",
"$##+o. oo$$$$$#$$$$$$$$$$$&$##$$$$$$$$$+  &$#$$$$$  &$$$$$$$$$&$$$$$$+o. &##$$$$$$$$$$$$$$$$$$###$$$$$$$$$$$$$$$$$$$$##$$$$$$$",
"##$+o. o+$####$$$$$$$$$$++$$$##$$$$$$$$$$&$#$$$$$$$&$$$$$$$$$$+$$$$$$+o. &$$$$$$$$$$$$$$$$$$$$$$$###$$$$$$$$$$$$$$$$$$$##$$$$$",
"$$$+o. o+##$$$$$$$$$$$$$+$$$$$##$$$$$$$$$$$$$$$$$$$+$$$$$$$$$+$$$$$$$+o. &################$$$$$$$$$$###$$$$$$$$$$$$$$$$$##$$$$",
"$$$+o. o+$$$$$$$$$$$$$$+$$$$$$$$##$$$$$$$$$$$$$$$$##$$$$$$$$$$$$$$$$$+o. &$$$$$$$$$$$$$$$####$$$$$$$$$$####$$$$$$$$$$$$$$#####",
"$$$+o. o+$$$$$$$$$$$$$$$$$$$$$$$$####$$$$$$$$$$$###$$$$$$$$$$$$$$$###+o. &$$$$$$$$$$$$$$$$$$###$$$$$$$$$$$####$$$$$$$$$$$$$$$#",
"###++. o+$####$$$$$$$$$$$$$$$$$$$$$$$###########$$$$$$$$$$$$$$$###$$$+o. &########$$$$$$$$$$$$###$$$$$$$$$$$$$###$$$$$$$$$$$$$",
"$$$++. o+##$$#####$$$$$$$$$$$$$$$$$$$$$$$$$$$$$$$$$$$$$$$$$####$$$$$$+o. &$$$$$$$#####$$$$$$$$$$###$$$$$$$$$$$$$$###$$$$$$$$$$",
"$$$+o. o+$$$$$$$$$####$$$$$$$$$$$$$$$$$$$$$$$$$$$$$$$$$#####$$$$$$$$$+o. &$$$$$$$$$$$$###$$$$$$$$$$##$$$$$$$$$$$$$$$####$$$$$$",
"$$$+o. o+$$$$$$$$$$$$$#####$$$$$$$$$$$$$$$$$$$$$$$$$####$$$$$$$$$$###+o. &#########$$$$$#####$$$$####$$$$$$$$$$$$$$$$$$$######",
"$$$+o. oo$$#####$$$$$$$$$$$######$$$$$$$$$$$$$$$$###$$$$$$$$$$$$###$$+o. &$$$$$$$$$####$$$$$#####$$$$$$$$$$$$$$$$$$$$$$$$$$$$$",
"@OO+o. oo@OO$$$$###$$$$$$$$$$$$$$###$$$$$$$$$$$$##$$$$$$$$$$$$###$$$OOo. &$@OO$$$$$$$$$###$$$$$$$$$$$$$$$$########$$$$$$$$$$$$",
"O*%&o. ooO*%&$$$$$$###$$$$$$$$$$$$$###$$$$$$$###$$$$$$$$$$$$###$$$$O*%&. &$O*%&$$$$$$$$$$#####$$$$$$#######$$$$$$$######$$$$$$",
"O%%&o. ooO%%&$$$$$$$$###$$$$$$$$$$$$$$########$$$$$$$$$$$$$##$$$$$$O%%&. &$O%%&$$$$$$$$$$$$$$#######$$$$$$$$$$$$$$$$$$$#$$$$$$",
"+&&+o. o++&&++++++++++++++++++++++++++++++++++++++++++++++++++++++++&&o. &++&&++++++++++++++++++++++++++++++++++++++++++++++++",
"oooo+. ooooooooooo+++oooooo++o+++oooooooo+ooooooooooo+oooooooooo++ooooo. &ooooooo++o+ooooooo++oooooooooooooooooo++oo++++oooo++",
"...... XXXX............................................................. .....................................................",
"=============================================================================================================================="
};
