/* XPM */
static char *result[] = {
/* columns rows colors chars-per-pixel */
"126 126 35 1 ",
"  c black",
". c #130F09",
"X c #281D0A",
"o c #211310",
"O c #221B10",
"+ c #2C210E",
"@ c #282013",
"# c #3D2D13",
"$ c #372C1A",
"% c #493A23",
"& c #4B3C25",
"* c #554120",
"= c #584427",
"- c #58462A",
"; c #5E4B2D",
": c #71582E",
"> c #7B5E2E",
", c #6B5737",
"< c #735D39",
"1 c #7D6032",
"2 c #6A6A6A",
"3 c #866836",
"4 c #8E6B32",
"5 c #A07B3E",
"6 c #93564B",
"7 c #9D7C46",
"8 c #967D57",
"9 c #A46559",
"0 c #BB9558",
"q c #A68D65",
"w c #B19B78",
"e c #888888",
"r c #A8A6A0",
"t c #E2E2E2",
"y c None",
/* pixels */
"88888888888888888888888888888O.8888888888888888888888888888888888888888888888888888888888O.88888888888888888888888888888888888",
",,,,,,,,,,,,,,,,,,,,,,,,,,,=%O.8,,,,,,,,,,,,,,,,,,,,,,,,,,,,,,,,,,,,,,,,,,,,,,,,,,,,,,,=%O.8,,,,,,,,,,,,,,,,,,,,,,,,,,,,,,,,,,",
",,,,,,,,,,,,,,,,,,,,,,,,,,,=%O.8,,,,,,,,,,,,,,,,,,,,,,,,,,,,,,,,,,,,,,,,,,,,,,,,,,,,,,,=%O.8,,,,,,,,,,,,,,,,,,,,,,,,,,,,,,,,,,",
",,,111111111111111111111111111111111111111111111111111111111111111111111111111111111111111111111111111111111111111111111111,,,",
",,,155555555555555555555555555555555555555555555555555555555555555555555555555555555555555555555555555555555555555555555551,,,",
",,,15<<5555555555555555555555555555555555555555555555555555555555555555555555555555555555555555555555555555555555555555<<51,,,",
",,,1<tew555555555555555555555te55te55555555555555555555555555555555555555555555555555555555te55te555555555555555555555<tew1,,,",
",,,1<eew5555555555555555555tteeeeeeee5555555555555555555555555555555555555555555555555555tteeeeeeee5555555555555555555<eew1,,,",
",,,15ww51111111111111111111tteeeeeeee1111111111111111111111111111111111111111111111111111tteeeeeeee11111111111111111115ww51,,,",
",,,155551545454545454545454545454545454545454545454545454545454545454545454545454545454545454545454545454545454545454155551,,,",
",,,155551454545454545454545454545454545454545454545454545454545454545454545454545454545454545454545454545454545454545155551,,,",
",,,155551545400000000000000000000000000000000000000000000045454545450000000000000000000000000000000000000000000005454155551,,,",
",,,1555514545*********************************************5454545454*********************************************4545155551,,,",
",,,1555515454*********************************************4545454545*********************************************5454155551,,,",
",,,1555514545*********************************************5454545454*********************************************4545155551,,,",
",,,155551545499999999999999999996666666666666666666666666645454545456666666666666666666666666699999999999999999995454155551,,,",
",,,155551454599999999999666666666666666666666666666666666654545454546666666666666666666666666666666666999999999994545155551,,,",
",,,155551545499999966666666666666666666666666666666666666645454545456666666666666666666666666666666666666669999995454155551,,,",
",,,155551454599966666666666666666666666666666666666666666654545454546666666666666666666666666666666666666666669994545155551,,,",
",,,155551545496666666666666666666666666666666666666666666645454545456666666666666666666666666666666666666666666695454155551,,,",
",,,155551454566666666666666666666666666666666666666666666654545454546666666666666666666666666666666666666666666664545155551,,,",
",,,155551545466666666666666666666666666666666666666666666645454545456666666666666666666666666666666666666666666665454155551,,,",
"===155551454566666666666666666666666666666666666666666666654545454546666666666666666666666666666666666666666666664545155551===",
"%%%155551545466666666666666666666666666666666666666666666645454545456666666666666666666666666666666666666666666665454155551%%%",
"OOO155551454566666667777776666666666666666666666666666666654545454546666666666666666666666666666666677777766666664545155551OOO",
"...155551545466666673>>33376666666666666666666666666666666454545454566666666666666666666666666666667333>>376666665454155551@@@",
".8815555145456666667>>777>7666666666666666oooooooooooooooo5454545454oooooooooooooooo6666666666666667>777>>76666664545155551q$@",
".8,1555515454666666>37777>>66666666ooooooooooooooooooooooo4545454545ooooooooooooooooooooooo66666666>>77773>6666665454155551=O.",
".8,155551454566666673>7733766ooooooooooooooooooooooooooooo5454545454ooooooooooooooooooooooooooooo6673377>376666664545155551=O.",
".8,155551545466666677>33>776oooooooooooooooooooooooooooooo4545454545oooooooooooooooooooooooooooooo677>33>776666665454155551;$@",
".8,1555514545666666**7777*oooooooooooooooooooooooooooooooo5454545454oooooooooooooooooooooooooooooooo*7777**6666664545155551%O.",
".8,1555515454666666*******oooooooooooooooooooooooooooooooo4545454545oooooooooooooooooooooooooooooooo*******6666665454155551%O.",
".8,1555514545666666*******oooooooooooooooooooooooooooooooo5454545454oooooooooooooooooooooooooooooooo*******6666664545155551%O.",
".8,1555515454666666*******::::::::::::::::::::::::::::::::4545454545::::::::::::::::::::::::::::::::*******6666665454155551%O.",
".8,155551454566666o***************************************5454545454***************************************o666664545155551%O.",
".8,1555515454666oooo######################################4545454545######################################oooo6665454155551%O.",
".8,155551454566ooooo######################################5454545454######################################ooooo664545155551=O.",
".8,15555154546oooooo#####ooooooooooooooooooooooooooooooooo4545454545ooooooooooooooooooooooooooooooooo#####oooooo65454155551=O.",
".8,1555514545ooooooo#####ooooooooooooooooooooooooooooooooo5454545454ooooooooooooooooooooooooooooooooo#####ooooooo4545155551%O.",
".8,1555515454ooooooo+++++ooooooooooooooooooooooooooooooooo4545454545ooooooooooooooooooooooooooooooooo+++++ooooooo5454155551%O.",
".8,1555514545oooooooo++++#################################5454545454#################################++++oooooooo4545155551%O.",
".8,1555515454oooooooo+++++++++++++++++++++++++++++++++++++4545454545+++++++++++++++++++++++++++++++++++++oooooooo5454155551%O.",
".8,1555514545oooooooo+++oooooooooooooooooooooooooooooooooo5454545454oooooooooooooooooooooooooooooooooo+++oooooooo4545155551%O.",
".8,1555515454oooooooo+++oooooooooooooooooooooooooooooooooo4545454545oooooooooooooooooooooooooooooooooo+++oooooooo5454155551%O.",
".8,1555514545ooooooooo+ooooooooooooooooooooooooooooooooooo5454545454ooooooooooooooooooooooooooooooooooo+ooooooooo4545155551%O.",
".8,1555515454ooooooooo++++++++++++++++++++++++++++++++++++4545454545++++++++++++++++++++++++++++++++++++ooooooooo5454155551%O.",
".8,1555514545ooooooooo+ooooooooooooooooooooooooooooooooooo5454545454ooooooooooooooooooooooooooooooooooo+ooooooooo4545155551%O.",
".8=1555515454oooooooooXooooooooooooooooooooooooooooooooooo4545454545oooooooooooooooooooooooooooooooooooXooooooooo5454155551=O.",
".8%1555514545oooooooooXooooooooooooooooooooooooooooooooooo5454545454oooooooooooooooooooooooooooooooooooXooooooooo4545155551%O.",
"OOO1555515454oooooooooXXXXXXXXXXXXXXXXXXXXXXXXXXXXXXXXXXXX4545454545XXXXXXXXXXXXXXXXXXXXXXXXXXXXXXXXXXXXooooooooo5454155551OO.",
"...1555514545ooooooooooooooooooooooooooooooooooooooooooooo5454545454ooooooooooooooooooooooooooooooooooooooooooooo4545155551...",
"8881555515454ooooooooooooooooooooooooooooooooooooooooooooo4545454545ooooooooooooooooooooooooooooooooooooooooooooo5454155551888",
",,,1555514545oooooooooooooooooooooooooooooooooooooo       5454545454       oooooooooooooooooooooooooooooooooooooo4545155551,,,",
",,,1555515454ooooooooooooooooooooooooooooooooo            4545454545            ooooooooooooooooooooooooooooooooo5454155551,,,",
",,,1555514545ooooooooooooooooooooooooooooooo              5454545454              ooooooooooooooooooooooooooooooo4545155551,,,",
",,,155551545455555555555555555555555555555555555555555555545454545455555555555555555555555555555555555555555555555454155551,,,",
",,,155551454545454545454545454545454545454545454545454545454545454545454545454545454545454545454545454545454545454545155551,,,",
",,,155551545454545454545454545454545454545454545454545454545454545454545454545454545454545454545454545454545454545454155551,,,",
",,,155551454545454545454545454545454545454545454545454545454545454545454545454545454545454545454545454545454545454545155551,,,",
",,,155551545454545454545454545454545454545454545454545454545454545454545454545454545454545454545454545454545454545454155551,,,",
",,,155551454545454545454545454545454545454545454545454545454545454545454545454545454545454545454545454545454545454545155551,,,",
",,,155551545454545454545454545454545454545454545454545454545454545454545454545454545454545454545454545454545454545454155551,,,",
",,,155551454545454545454545454545454545454545454545454545454545454545454545454545454545454545454545454545454545454545155551,,,",
",,,155551545454545454545454545454545454545454545454545454545454545454545454545454545454545454545454545454545454545454155551,,,",
",,,155551454545454545454545454545454545454545454545454545454545454545454545454545454545454545454545454545454545454545155551,,,",
",,,155551545454545454545454545454545454545454545454545454545454545454545454545454545454545454545454545454545454545454155551,,,",
",,,155551454545454545454545454545454545454545454545454545454545454545454545454545454545454545454545454545454545454545155551,,,",
",,,155551545454545454545454545454545454545454545454545454545454545454545454545454545454545454545454545454545454545454155551,,,",
",,,155551454545454545454545454545454545454545454545454545454545454545454545454545454545454545454545454545454545454545155551,,,",
",,,155551545454545454545454545454545454545454545454545454545454545454545454545454545454545454545454545454545454545454155551,,,",
",,,155551454500000000000000000000000000000000000000000000054545454540000000000000000000000000000000000000000000004545155551,,,",
",,,1555515454*********************************************4545454545*********************************************5454155551,,,",
"===1555514545*********************************************5454545454*********************************************4545155551===",
"%%%1555515454*********************************************4545454545*********************************************5454155551%%%",
"OOO1555514545oooooooooooooooooooooooooo                   5454545454                   oooooooooooooooooooooooooo4545155551OOO",
"...1555515454oooooooooooooooooooooooooo                   4545454545                   oooooooooooooooooooooooooo5454155551...",
".881555514545oooooooooooooooooooooooooo                   5454545454                   oooooooooooooooooooooooooo45451555518O.",
".8,1555515454ooooooooooooooooooooooooooo                  4545454545                  ooooooooooooooooooooooooooo5454155551%O.",
".8,1555514545oooooooooooooooooooooooooooo                 5454545454                 oooooooooooooooooooooooooooo4545155551%O.",
".8,1555515454oooooooooooooooooooooooooooo                 4545454545                 oooooooooooooooooooooooooooo5454155551%O.",
".8,1555514545ooooooooooooooooooooooooooooo                5454545454                ooooooooooooooooooooooooooooo4545155551%O.",
".8,1555515454oooooooooooooooooooooooooooooo               4545454545               oooooooooooooooooooooooooooooo5454155551%O.",
".8,1555514545ooooooooooooooooooooooooooooooo              5454545454              ooooooooooooooooooooooooooooooo4545155551=O.",
".8,1555515454oooooooooooooooooooooooooooooooo             4545454545             oooooooooooooooooooooooooooooooo5454155551=O.",
".8,1555514545oooooooooooooooooooooooooooooooooo           5454545454           oooooooooooooooooooooooooooooooooo4545155551%O.",
".8,1555515454oooooooooooooooooooooooooooooooooooo         4545454545         oooooooooooooooooooooooooooooooooooo5454155551%O.",
".8,1555514545oooooooooooooooooooooooooooooooooooooo       5454545454       oooooooooooooooooooooooooooooooooooooo4545155551%O.",
".8,1555515454ooooooooooooooooooooooooooooooooooooooooooooo4545454545ooooooooooooooooooooooooooooooooooooooooooooo5454155551%O.",
".8,1555514545ooooooooooooooooooooooooooooooooooooooooooooo5454545454ooooooooooooooooooooooooooooooooooooooooooooo4545155551=O.",
".8,1555515454ooooooooooooooooooooooooooooooooooooooooooooo4545454545ooooooooooooooooooooooooooooooooooooooooooooo5454155551%O.",
".8,1555514545ooooooooooooooooooooooooooooooooooooooooooooo5454545454ooooooooooooooooooooooooooooooooooooooooooooo4545155551=O.",
".8,1555515454ooooooooooooooooooooooooooooooooooooooooooooo4545454545ooooooooooooooooooooooooooooooooooooooooooooo5454155551%O.",
".8,1555514545ooooooooooooooooooooooooooooooooooooooooooooo5454545454ooooooooooooooooooooooooooooooooooooooooooooo4545155551%O.",
".8,1555515454ooooooooooooooooooooooooooooooooooooooooooooo4545454545ooooooooooooooooooooooooooooooooooooooooooooo5454155551%O.",
".8,1555514545ooooooooooooooooooooooooooooooooooooooooooooo5454545454ooooooooooooooooooooooooooooooooooooooooooooo4545155551%O.",
".8,1555515454ooooooooooooooooooooooooooooooooooooooooooooo4545454545ooooooooooooooooooooooooooooooooooooooooooooo5454155551%O.",
".8,1555514545ooooooooooooooooooooooooooooooooooooooooooooo5454545454ooooooooooooooooooooooooooooooooooooooooooooo4545155551%O.",
".8=1555515454ooooooooooooooooooooooooooooooooooooooooooooo4545454545ooooooooooooooooooooooooooooooooooooooooooooo5454155551%O.",
".8%1555514545ooooooooooooooooooooooooooooooooooooooooooooo5454545454ooooooooooooooooooooooooooooooooooooooooooooo4545155551%O.",
".OO1555515454ooooooooooooooooooooooooooooooooooooooooooooo4545454545ooooooooooooooooooooooooooooooooooooooooooooo5454155551OO.",
"...1555514545ooooooooooooooooooooooooooooooooooooooooooooo5454545454ooooooooooooooooooooooooooooooooooooooooooooo4545155551...",
"8881555515454ooooooooooooooooooooooooooooooooooooooooooooo4545454545ooooooooooooooooooooooooooooooooooooooooooooo5454155551888",
",,,15555145456oooooooooooooooooooooooooooooooooooooooooooo5454545454oooooooooooooooooooooooooooooooooooooooooooo64545155551,,,",
",,,15555154546oooooooooooooooooooooooooooooooooooooooooooo4545454545oooooooooooooooooooooooooooooooooooooooooooo65454155551,,,",
"-&&155551454566ooooooooooooooooooooooooooooooooooooooooooo5454545454ooooooooooooooooooooooooooooooooooooooooooo664545155551,,,",
"&r2155551545466ooooooooooooooooooooooooooooooooooooooooooo4545454545ooooooooooooooooooooooooooooooooooooooooooo665454155551,,,",
"&221555514545666oooooooooooooooooooooooooooooooooooooooooo5454545454oooooooooooooooooooooooooooooooooooooooooo6664545155551,,,",
"-881555515454666oooooooooooooooooooooooooooooooooooooooooo4545454545oooooooooooooooooooooooooooooooooooooooooo6665454155551,,,",
",,,15555145456666ooooooooooooooooooooooooooooooooooooooooo5454545454ooooooooooooooooooooooooooooooooooooooooo66664545155551,,,",
",,,155551545466666oooooooooooooooooooooooooooooooooooooooo4545454545oooooooooooooooooooooooooooooooooooooooo666665454155551,,,",
",,,1555514545666666ooooooooooooooooooooooooooooooooooooooo5454545454ooooooooooooooooooooooooooooooooooooooo6666664545155551,,,",
",,,155551545466666666ooooooooooooooooooooooooooooooooooooo4545454545ooooooooooooooooooooooooooooooooooooo666666665454155551,,,",
",,,155551454596666666666oooooooooooooooooooooooooooooooooo5454545454oooooooooooooooooooooooooooooooooo666666666694545155551,,,",
",,,15555154549966666666666oooooooooooooooooooooooooooooooo4545454545oooooooooooooooooooooooooooooooo66666666666995454155551,,,",
",,,155551454545454545454545454545454545454545454545454545454545454545454545454545454545454545454545454545454545454545155551,,,",
",,,155551545454545454545454545454545454545454545454545454545454545454545454545454545454545454545454545454545454545454155551,,,",
",,,155551454545454545454545454545454545454545454545454545454545454545454545454545454545454545454545454545454545454545155551,,,",
",,,15<<5111111111111111111111111111111111111111111111111111111111111111111111111111111111111111111111111111111111111115<<51,,,",
",,,1<tew55555555555555555555555555555555555555555555555555555555555555555555555555555555555555555555555555555555555555<tew1,,,",
"-&&1<eew55555555555555555555555555555555555555555555555555555555555555555555555555555555555555555555555555555555555555<eew1,,,",
"&r215ww5555555555555555555555555555555555555555555555555555555555555555555555555555555555555555555555555555555555555555ww51,,,",
"&22155555555555555555555555555555555555555555555555555555555555555555555555555555555555555555555555555555555555555555555551,,,",
"=88111111111111111111111111111111111111111111111111111111111111111111111111111111111111111111111111111111111111111111111111===",
"%%%%=O.8%%%%%%%%%%===%%%%%%==%===%%%%%%%%=%%%%%%%%%%%=%%%%%%%%%%==%%%%%O.8%%%%%%%==%=%%%%%%%==%%%%%%%%%%%%%%%%%%==%%====%%%%==",
"OOOOOO.$$$$OOOOOOOOOOOOOOOOOOOOOOOOOOOOOOOOOOOOOOOOOOOOOOOOOOOOOOOOOOOOO.OOOOOOOOOOOOOOOOOOOOOOOOOOOOOOOOOOOOOOOOOOOOOOOOOOOOO",
"yyyyyyyyyyyyyyyyyyyyyyyyyyyyyyyyyyyyyyyyyyyyyyyyyyyyyyyyyyyyyyyyyyyyyyyyyyyyyyyyyyyyyyyyyyyyyyyyyyyyyyyyyyyyyyyyyyyyyyyyyyyyyy"
};
