/* XPM */
static char *bd0a3588aa464560bd2735cf1caf85c2tTiYiwTvrR9FleNy[] = {
/* columns rows colors chars-per-pixel */
"126 126 32 1 ",
"  c None",
". c black",
"X c #130F09",
"o c #221B10",
"O c #282013",
"+ c #39221A",
"@ c #372C1A",
"# c #480B1F",
"$ c #610303",
"% c #71041A",
"& c #590E27",
"* c #493A23",
"= c #4B3C25",
"- c #584427",
"; c #58462A",
": c #5C492C",
"> c #6B5737",
", c #6A6A6A",
"< c #8C2200",
"1 c #B72D01",
"2 c #8F0823",
"3 c #8F2222",
"4 c #A02626",
"5 c #AC5D2F",
"6 c #AA4257",
"7 c #967D57",
"8 c #CD5555",
"9 c #B99A6E",
"0 c #E6905D",
"q c #A8A6A0",
"w c #E8C798",
"e c white",
/* pixels */
"77777777777777777777777777777oX7777777777777777777777777777777777777777777777777777777777oX77777777777777777777777777777777777",
">>>>>>>>>>>>>>>>>>>>>>>>>>>-*oX7>>>>>>>>:>>>>>>>>>>>>>>>>>>>>>::>>>>>>>>>>>>>>>>>>>>>>>-*oX7>>>:>>>>>>>>>>>>>>>>>>>>>>>>>>::>>",
">>>>>>>>>>>>>::::::::::::::-*oX7:>>>>>>>:::>>>>>>>>>>>>>>>>>>>>>::::::::::>>>>>>>>>>>>>-*oX7>>>:::>>>>>>>>>>>>>>>>>>>>>>>::>>>",
">>>>>>>>>:::::>>>>>>>>>>>;==-oX7::;==;>>>>:::>>>>>>>>>>>>>>>>>>>>>>>>>>>>>::::::>>>>>;==-oX7>;==;::>>>>>>>>>>>>>>>>>>>>>::>>>>",
">>>>>>::::>>>>>>>>>>>>>>>=q,7oX7>>=q,7:>>>>>>:::::::>>>>>>>>>>>>>>>>>>>>>>>>>>>::::::=q,7oX7>=q,7>::>>>>>>>>>>>>>>>>>:::>>>>>>",
">>:::::>>>>>>>>>>>>>>>>>>=,,7oX7>>=,,7:::>>>>>>>>>>>::::::::::::>>>>>>>>>>>>>>>>>>>>>=,,7oX7>=,,7>>::>>>>>>>>>>>>>:::>>>>>>>>>",
"::>>>>>>>>>>:::::>>>>>>>>>77*oX7>>>77>>>>:>>>>>>>>>>>>>>>>>>>>>>:::::::>>>>>>>>>>>>>>>77*oX7>;77>>>>::>>>>>>>:::::>>>>>>>>>>::",
">>>>>>>>>>::>>>>:::::::>>>>-*oX7>>>>>>>>>::>>>>>>>>>>>>>>>>>>>>>>>>>>>>::::::>>>>>>>>>>-*oX7>>>>>>>>>>:::::::>>>>>>>>>>>>::::>",
">>>>>>>>>>>:::>>>>>>>>>::::-*oX7>>>>>>>>::>>>>>>>>>>>>>>>............>>>>>>>>:::::>>>>>-*oX7>>>>>>>>>>>>>>>>>>>>>>>>>::::>>>>>",
">>>>>>>>>>>>>::>>>>>>>>>>>>-*oX7>>>>::::>>>>>>>>>>:::....++++++++++++....>>>>>>>>>:::>>-*oX7:>>>>>>>>>>>>>>>>>>>>>>:::>>>>>>>>",
">>>>>>>>>>>>>>>::>>>>>>>>>>-*oX7::::>>>>>>>>>:::::>..++++++++++++++++++++..>>>>>>>>>>::-*oX7::::>>>>>>>>>>>>>>:::::>>>>>>>>>>>",
">>>>>>>>>>>>>>>>>::>>>>>>>>-*oX7>>>>>>>>>>:::>>>>>.++++++++++++++++++++++++...:>>>>>>>>-*oX7>>>::::::::::::::::>>>>>>>>>>>>>>>",
"::>>>>>>>>>>>>>>>>::>>>>>>>-*oX7>>>>>>>>:::>>>>>>.++++++++++++++++++++++++++++.::>>>>>>-*oX7>>>>>>>>>>>>>>>>>>>>>>>>>>>>>>>:::",
">::::::>>>>>>>>>>>>>:>>>>>>-*oX7>>>>>:::>>>>>>::.++++++++++++++++++++++++++++++..:::>>>--oX7>>>>>>>>>>>>>>>>>>>>>>>>>>:::::>>>",
">>>>>>:::::>>>>>>>>>>::>>>>-*oX7>>>:::>>>>>::::>.++++++++++++++++++++++++++++++++.>:::>-*oX7>>>>>>>>>>>>>>>>>>>>>::::::>>>>>>>",
">>>>>>>>>>>::::>>>>>>>::>>>--oX7::::>>>>>:::>::.++++++++++++++++++++++++++++++++++.>>::-*oX7>>>>>>>>>>>>>>>>>:::::>>>>>>>>>>>>",
">>>>>>>>>>>>>>>:::>>>>>>::>-*oX7>>>>>>>>>::::>.++++++++++++++++++++++++++++++++++++.>>>-*oX7>>>>>>>>>>>>>::::>>>>>>>>>>>>>>>>>",
"::::>>>>>>>>>>>>>>::>>>>>:>-*oX7>>>>>>>>>>>>>.++++++++++++++++++++++++++++++++++++++.>>-*oX7>>>>>>>>>>>:::>>>>>>>>>>>>>>::::::",
">>>>::>>>>>>>>>>>>>>::>>>>:-*oX7>>>>>>>>>>>>>.+++++++++++++++++++++++++++++++++++++++.>--oX7>>>>>>>>>:::>>>>>>>>>>>:::::>>>>>>",
">>>>>>:::>>>>>>>>>>>>>:>>;==-oX7>>;==>>>>>::.+++++++++++++++++++++++++++++++++++++++++.=-oX7>>==>>>:::>>>>>>>>>>::::>>>>>>>>>>",
">>>>>>>>>:::>>>>>>>>>>::>=q,7oX7>>=q,7>:::>.+++++++++++++++++++++++++++++++++++++++++++.7oX7>=q,7>::>>>>>>>>::::>>>>>>>>>>>>>>",
">>>>>>>>>>>::>>>>>>>>>>::=,,7oX7>>=,,7>>>>>.++++++++++++++++++++++++++++++++++++++++++++.oX7>=,,7::>>>>>>>>::>>>>>>>>>>>>>>>>>",
"--------------------------77-oX7---77-----.+++++++++++++++++++++++++++++++++++++++++++++.oX7--77------------------------------",
"*****--*********--***-*******oX7-----*****.++++++++++++++++++++++++++++++++++++++++++++++.X7************---**********----*****",
"ooooooooooooooooooooooooooooooXoooooooooo.++++++++++++++++++++++++++++++++++++++++++++++++.oooooooooooooooooooooooo@@@oooooooo",
"XXXXXXXXXXXXXXXXXXXXXXXXXXXXXXXXXXXXXXXXX.++++++++++++++++++++++++++++++++++++++++++++++++.XXXXXXXXXXXXXXXXXXXXXXXXXXXXXXXXXXX",
"X777777777777777777777777777777777777777.+++++++++++++++++++++++++++++++++++++++++++++++++.777777777777777777777777777777777oX",
"X7>>>>>:>>>>>>>>>>>>>>>>>>>>>>>>>>>>>>>>.++++++++++++++++++++++++++++++++++++++++++++++++++.:::::::>>>>:::::::>>::::::::::-*oX",
"X7>>>>>::::>>>>>>>>>>>>>>>>>>>>:::::::>.+++++++++++++++++++++++++++++++++++++++++++++++++++.>>>>>>>::::>>>>>>:::>>>>>>>>>>-*oX",
"X7>;==>>>>::::::::::::::::::::::>>>>>::.+++++++++++++++++++++++++++++++++++++++++++++++++++..>>>>>>>>>>>>>>>>>>>>>>>>>>;==-*oX",
"X7>=q,7>>>>>>>>>>>>>>>>>>>>>>>>>>>>>>>.++++++++++++++++++++++++++++++++++++++++++++++++++++w.>>>>>>>>>>>>>>>>>:::::::::=q,7*oX",
"X7>=,,7>>>>>>>>>>>>>>>>>>>>>>>>>>>::::.+++++++++++++++++++++++++++++++++++++++++++++++++999w.>>>>>>>>>>>>>>::::>>>>>>>>=,,7*oX",
"X7>;77>>>>>>>>>>>>>>>>>>>>>>>>>>>>:>>:.99++++++++++++++++++++++++++++++++++++++++++++999wwww.>>>>>>>>>>>>:::>>>>>>>>>>>;77--oX",
"X7>>>>>>>>>>>>>>>>>>>>>>>>>>>>>>>>::>.www999999++++++++++++++++++++++++++++++++999999wwwwwwww.>>>>>>>>>:::>>>>>>>>>>>>>>>>--oX",
"X7>>>>>>>>>>>>>>>>>>>>>>>>>>>>>>>>>::.wwwwwwwww999999++++++++++++++++++++999999wwwwwwwwwwwwww.>>>>>>>:::>>>>>>>::::>>>>>>>-*oX",
"X7>>>>>::::::::::::::::::::>>>>>>>>>>.wwwwwwwwwwwwwww99999999999999999999wwwwwwwwwwwwwwwwwwww.>>>>>::>>>>>>>>::>>>:>>>>>>>-*oX",
"X7>>:::>>>>>>>>>>>>>>>>>>>>:::::>>>>.wwwwwwwwwwwwwwwwwwwwwwwwwwwwwwwwwwwwwwwwwwwwwwwwwwwwwwww.>>:::>>>>>>::::>>>>:>>>>>>>>-*oX",
"X7:::>>>>>>>>>>>>>>>>>>>>>>>>>>>::::.wwwwwwwwwwwwwwwwwwwwwwwwwwwwwwwwwwwwwwwwwwwwwwwwwwwwwwww.::>>>>>>>>::>>>>>::>>>>>>:::-*oX",
"X7:>>>>>::::::::::::::>>>>>>>>>>>>>>.wwwwwwwwwwwwwwwwwwwwwwwwwwwwwwwwwwwwwwwwwwwwwwwwwwwwwwww.>>>>>>>>::>>>>>>:>>>>>>:::>>--oX",
"X7>>>>>:>>>>>>>>>>>>>:::>>>>>>>>>>>..www........wwwwwwwwwwwwwwwwwwwwwwwwwwwwwwwwwwwwwwwwwwwww.>>>>>:::>>>>>>::>>>>>>::>>>>-*oX",
"X7>>>>:::::::::::::::::>>>>>>>>>>>>.wwwwwwwwwwwwwwwwwwwwwwwwwwwwwwwwwwwwwwwwwwwwwwwwwwwwwwwww.>>:::>>>>>>>::>>>>>>>:>>>>>>--oX",
"X7:::>>>>>>>>>>>>>>>>>>>>>>>>::::::.w99wwwwwwwwwwwwwwwwwwwwwwwwwwwwwwwwwwwwwwwwwwwwwwwwwwwwww.>::>>>>>::::>>>>>>>>::>>>>>>-*oX",
"X7:>>::::>>>>>>>>>>>>>>::::::>>>>>>.99ww333eeeewwwwwwwwwwwwwwwwwwwwwwwwwwwwwwwwwwwwwwwwwwwwww.>:::::::>>>>>>>>>>>:>>>>>:::-*oX",
"X7>>>>>>>:::::::::::::::>>>>>>>>>>.999ww333eeeewwwwwwwwwwwwwwwwwwwwwwwwwwwwwwwwwwwwwwwwwwwwww.>:>>>>>>>>>>>>>>>::>>>>>::>>-*oX",
"X7>;==;>>>>>>>>>>>>>>>>>>>>>>>>>>>.99www333eeeewwwwwwwwwwwwwwwwwwwwwwwwwwwwwwwwwwwwwwwwwwwwww.>>>>>>>>>>>>>>:::>>>>>>:>;==-*oX",
"X7>=q,7>>>>>>>>>>>>>>>>>>>>>::::::.wwwww444eeeewwwwwwwwwwwwwwwwwwwwwwwwwwwwwwwwwwwwwwwwwwwww.>>>>>>>>>>>>:::>>>>>>>>:>>=q,7*oX",
"X7>=,,7>>>>>>>>>>>>>>>>>>>:::>>>>>.wwwww444eeeewwwwwwwwwwwwwwwwwwwwwwwwwwwwwwwwwwwwwwwwwwwww.>>>>>>>>>:::>>>>>>>>>>:>>>=,,7*oX",
"X7--77---------------------------..wwwww444eeeewwwwwwwwwwwwwwwwwwwwwwwwwwwwwwwwwwwwwwwwwwwww.---------------------------77-*oX",
"X7*********-----*********---*---*.wwwwww444eeeewwwwwwwwwwwwwwwwwwwwwwwwwwwwwwwwwwwwwwwwwwwww.**-***********-*----*********-*oX",
"Xoooooooooooooooooooooooooooooooo.wwwwww448eeeewwwwwwwwwwwwwwwwwwwwwwwwwwwwwwwwwwwwwwwwwwww.oooooooooooooooooooooooooooooooooX",
"XXXXXXXXXXXXXXXXXXXXXXXXXXXXXXXXX.wwwwww884eeeewwwwwwwwwwwwwwwwwwwwwwwwwwwwwwwwwwwwwwwwwwww.XXXXXXXXXXXXXXXXXXXXXXXXXXXXXXXXXX",
"77777777777777777777777777777oX77.w9wwww444eeeewwwwwwwwwwwwwwwwwwwwwwwwwwwwwwwwwwwwwwwwwww.77777777777777777777777777777777777",
">>>>>>>>>>>>>>>>:>>>>>>>>>>-*oX7>.ww9wwwwwwwwwwwwwwwwwwwwwwwwwwwwwwwwwwwwwwwwwwwwwwwwwwwww.7:>>>>>>>>>>>>>>>>>>>>>>>>>>>>>>>>>",
">>>>>>>>>>>>>>>>>::>>>>>>>>-*oX7>.wwwwwwwwwwwwwwwwwwwwwwwwwwwwwwwwwwwwwwwwwwwwwwwwwwwwwwww.7>::::::::>>>>>>>>>>>>>>>>>>>>>>>>>",
">>>>>>>>>>>>>>>>>>::>>>>;==--oX7>.wwwwwwwwwwwwwwwwwwwwwwwwwwwwwwwwwwwwwwwwwwwwwwwwwwwwwwww.7>;==>>>>:::::::::::::::::::>>>>>>>",
">>>>>>>>>>::::>>>>>>:::>=q,7-oX7>.wwwwwwwwwwwwwwwwwwwwwwwwwwwwwwwww9wwwwwwwwwwwwwwwwwwwww.X7>=q,7>>>>>>>>>>>>>>>>>>>>>:::::>>>",
":::::::::::>>:::>>>>>>::=,,7*oX7>.........wwwwwwwwwwwwwwwwwwwwwwww99wwwwwwwwwwwwwwwwwwwww.X7>=,,7>>>>>>>>>>>>>>>>>>>>>>>>>::::",
">>>>>>>>>>>>>>>:::>>>>>>>77-*oX7>>.&&&&&&&..wwwwwwwwwwwwwwwwwwwww99wwwwwwwwwwwwwwwwwwwww.oX7>>77>>>>>>>>>>>>>>>>>>>>>>>>>>>>>>",
">>>>>>>>>>>>>>>>>:::>>>>>>>-*oX7>>:.&&&&&&&..wwwwwwwwwwwwwwwwwww99wwwwwwwwwwwwwwwwwwwww.*oX7>>>>>>>>>>>>>>>:::::::::::>>>>>>>>",
">>>>>>>:::::::::>>>>::>>>>>--oX7:::.&&&&&&&&&.wwwwwwwwwwwwwwwww99wwwwwwwwwwwwwwwwwwwww.-*oX7>>>>>>>>>>:::::>>>>>>>>>>>::::>>>>",
"::::::::>>>>>>>::>>>>>::::>-*oX7>>>.&&&&&&&&&.wwwwwwwwwwwwwwwww9wwwwwwwwwwwwwwwwwwwww.>-*oX7::>>>>>>>>::>>>>>>>>::>>>>>>>>::::",
">>>>>>>>>>>>>:::>>>>>>>>>>:-*oX7:::.&&&&&&&&&&.wwwwwwwwwwwwwww99wwwwwwwwwwwwwwwwwwww.>>-*oX7>::::>>>>>>>::::>>>>>>::::>>>>>>>>",
":::>>>>>>>::::>>>>>>>>>>>>>--oX7>>>.&&&&&&&&&&.wwwwwwwwwwwww999wwwwwwwwwwwwwwwwwwww.:::--oX7>>>>::::>>>>>>>>::::>>>>>>>>>>>>::",
">>>>>>>>:::>>>>>>>>>>>>>>::--oX7>>>.########&&..wwwwwwwwwwww99wwwwwwwwwwwwwwwwwww..>>>>-*oX7>>>>>>>:::>>>>>>>>>>::::::::>>>>>>",
"::::::::>>>>>>>>>>:::::::>>--oX7::.############.wwwwwwwwww99wwwwwwwwww.....wwwww.>>>>>>-*oX7>>>>>>>>>::::>>>>>>>>>>>>>>>::::::",
">>>>>>>>>>>>>>:::::>>>>>>>>-*oX722222222#######.wwwwwwwww99wwwwwwwww..00000.....:::::::-*oX7>>>>>>>>>>>>:::>>>>>>>>>>>>>>>>>>>",
">>>>>>>>>>::::>>>>>>>>>>>>>-*oX22666666222####.wwwwwwww999wwwwwwwww.0000000000.>>>>>>>:--oX7>>>>>>>>>>>>>>>::::::>>>>>>>>>>>>>",
"::::::::::>>>>>>>>>>>>::::>-*o2266622222662##.wwwwwww999wwwwwwwww..000000000000.>>>>>>>--oX7:::::::>>>>>>>>>>>>>>:::::::::::::",
">>>>>>>>>>>>>>>>>::::::>>>>-*o26622222222222.wwwwwww999wwwwwwwww.00000000000000..>>>>>>-*oX7>>>>>>::::>>>>>>>>>>>>>>>>>>>>>>>>",
">>>>>>>>>>>>::::::>>>>>>;==-*o2222.%%%2222..wwwwwww99wwwwwwwwww.0000000000000000..>>>>==*oX7>>==>>>>>:::>>>>>>>>>>>>>>>>>>>>>>",
">>>>>>>:::::>>>>>>>>>>>>=q,7-o22>=.%%%%2..wwwwwwww9wwwwwwwwwww.000000000000000000.:>>=q,7oX7>=q,7>>>>>>>:::::::::::::::::>>>>>",
"::::::::>>>>>>>>>>>>>>>>=,,7-oX7>=,.....wwwwwwwwwwwwwwwwwwwww.0000000000000000000..::=,,7oX7>=,,7>>>>>>>>>>>>>>>>>>>>>>>::::::",
"-------------------------77-*oX7--7.wwwwwwwwwwwwwwwwwwwwwwww.000000000000000000000.---77-oX7--77------------------------------",
"***--******--******-*******-*oX7***..wwwwwwwwwwwwwwww.......0000000000000000000000.***-**oX7-*******--*--********--*-*********",
"ooooooooooooooooooooooooooooooXooooo.................00000000000000000000000000000..ooooooXooooooooooooooooooooooooooooooooooo",
"XXXXXXXXXXXXXXXXXXXXXXXXXXXXXXXXXXXXXXXXXX.0000000000000000000000000000000000000000.XXXXXXXXXXXXXXXXXXXXXXXXXXXXXXXXXXXXXXXXXX",
"X77777777777777777777777777777777777777777.0000000000000000000000000000000000000000.7777777777777777777777777777777777777777oX",
"X7>>>>>:>>>>>>>>>>>>>>>>>>>>>>>>>>>>>>>>>>.0000000000000000000000000000000000000000.>>>>:::::::::::>>>>:::::::>>::::::::::-*oX",
"X7>>>>>::::>>>>>>>>>>>>>>>>>>>>:::::::>>>>.0000000000000000000000000000000000000000.::::>>>>>>>>>>>::::>>>>>>:::>>>>>>>>>>-*oX",
"X7>;==>>>>::::::::::::::::::::::>>>>>::::.00000000000000000000000000000000000000000.>>>>>>>>>>>>>>>>>>>>>>>>>>>>>>>>>>>;==-*oX",
"X7>=q,7>>>>>>>>>>>>>>>>>>>>>>>>>>>>>>>>>>.00000000000000000000050000000000000000000.>>>>>>>>>>>>>>>>>>>>>>>>>>:::::::::=q,7*oX",
"X7>=,,7>>>>>>>>>>>>>>>>>>>>>>>>>>>::::>>>.0000000000000000000005.000000000000000000.>>>>>>>>>>>>>>>>>>>>>>>::::>>>>>>>>=,,7*oX",
"X7>;77>>>>>>>>>>>>>>>>>>>>>>>>>>>>:>>::::.0000000000000000000005..00000000000000000.:::::::::>>>>>>>>>>>>:::>>>>>>>>>>>;77--oX",
"X7>>>>>>>>>>>>>>>>>>>>>>>>>>>>>>>>::>>>>>.00000000000000000000055.00000000000000000.>>>>>>>:::>>>>>>>>>:::>>>>>>>>>>>>>>>>--oX",
"X7>>>>>>>>>>>>>>>>>>>>>>>>>>>>>>>>>:::::>.000000000000000000000005.0000000000000000.:::::::>>>>>>>>>>:::>>>>>>>::::>>>>>>>-*oX",
"X7>>>>>::::::::::::::::::::>>>>>>>>>>>>::.000000000000000000000005.0000000000000000.>>>>>>>>>>>>>>>::>>>>>>>>::>>>:>>>>>>>-*oX",
"X7>>:::>>>>>>>>>>>>>>>>>>>>:::::>>>>>>>>>.000000000000000000000005.0000000000000000.>>>>>>>>>>>>:::>>>>>>::::>>>>:>>>>>>>>-*oX",
"X7:::>>>>>>>>>>>>>>>>>>>>>>>>>>>:::::::::.000000000000000000000005.0000000000000000.>>>>>>>>>:::>>>>>>>>::>>>>>::>>>>>>:::-*oX",
"X7:>>>>>::::::::::::::>>>>>>>>>>>>>>>>>>>.000000000000000000000005..000000000000000.>>>>:::::>>>>>>>>>::>>>>>>:>>>>>>:::>>--oX",
"X7>>>>>:>>>>>>>>>>>>>:::>>>>>>>>>>>>>>>>>.0000000000000000000000005.000000000000000.::::>>>>>>>>>>>:::>>>>>>::>>>>>>::>>>>-*oX",
"X7>>>>:::::::::::::::::>>>>>>>>>>>>>>>>>>.0000000000000000000000005..00000000000000.>>>>>>>>>>>>:::>>>>>>>::>>>>>>>:>>>>>>--oX",
"X7:::>>>>>>>>>>>>>>>>>>>>>>>>::::::::::::..0000000000000000000000055.00000000000000.>>>>>>>>>>>::>>>>>::::>>>>>>>>::>>>>>>-*oX",
"X7:>>::::>>>>>>>>>>>>>>::::::>>>>>>>>>>>>:....0000000000000000000005.00000000000000.>>>>>>>>>>>:::::::>>>>>>>>>>>:>>>>>:::-*oX",
"X7>>>>>>>:::::::::::::::>>>>>>>>>>>>>>>>>>.11.........................0000000000000.>>>>>>>>>>>:>>>>>>>>>>>>>>>::>>>>>::>>-*oX",
"X7>;==;>>>>>>>>>>>>>>>>>>>>>>>>>>>>>>>>>>>.111111111111111111111111<<.0000000000000.>>>>>>>>>>>>>>>>>>>>>>>>:::>>>>>>:>;==-*oX",
"X7>=q,7>>>>>>>>>>>>>>>>>>>>>::::::::::::::..11111111111111111111111<<.0000000000000.::::>>>>>>>>>>>>>>>>>:::>>>>>>>>:>>=q,7*oX",
"X7>=,,7>>>>>>>>>>>>>>>>>>>:::>>>>>>>>>>>>>:.11111111111111111111111<...00000000000..>>>>:::::>>>>>>>>>:::>>>>>>>>>>:>>>=,,7*oX",
"X7--77-------------------------------------.1111111111111111111111<<.w.00000000000.-------------------------------------77-*oX",
"X7*********-----*********---*---***---*****.1111111111111111111111<<.ww.0000000000.---*********-***********-*----*********-*oX",
"Xoooooooooooooooooooooooooooooooooooooooooo..11111111111111111111<..www..000000.....oooooooooooooooooooooooooooooooooooooooooX",
"XXXXXXXXXXXXXXXXXXXXXXXXXXXXXXXXXXXXXXXXXXXX.11111111111111111111<<.wwww........www..XXXXXXXXXXXXXXXXXXXXXXXXXXXXXXXOOOXXXXXXX",
"77777oX7777777777777777777777777777777777777..1111111111111111111<<.wwwwwwwwwwwwwwww.77777777777777777777777777777777777777777",
">>>--oX7>>>>>>>>>::>>>>>::>>>>>>>>>>>>>:>>>>:.1111111111111111111<.wwwwwwwwwwwwwwwwww.:>>>>>>>:::>>>>>>>>>>>>>>>>>>>:>>>>>>>>>",
">>>-*oX7>>>>>>:::>>>>>>>>::::::::::::::>>>>>>.1111111111111111111<.wwwwwwwwwwwwwwwwww.>:::>>>>>>::::>>>>>>>>>>>>>>>>::>>>>>>>>",
";==--oX7>;==;:>>>>>>>>>>>>>>>>>>>>>>>>>>>>>>>>.111111111111111111<.wwwwwwwwwwwwwwwwww.::::>>>>>>>>>>::::>>>>>>>>>>>>>>:::>>>>>",
"=q,7-oX7>=q,7>>>>>>>>>>>>>>>>>>>>>>>>>>>>>>>>>..11111111111111111<.ww.....wwwwwwwwwww.>>>>>>>>>>>>>>>>>>::::>>>>>>>>>>>>:::>>>",
"=,,7*oX7>=,,7>>>>>>>>>:::::::::::::::>>>>>>>>>>.11111111111111111<<..wwwwwwwwwwwwwwww.>>>>>>>>>>>>>>>>>>>>>>:::>>>>>>>>>>>::::",
";77-*oX7>;77>>>>>>>::::>>>>>>>>>>>>>>:::::::>>>..1111111111111111<<.wwwwwwwwwwwwwwwww.>>>>>>>>>>>>>>>>>>>>>>>>::::>>>>>>>>>>>>",
">>>-*oX7>>>>>>>>:::>>>>>>>>>>>>>>>>>>>>>>>>>:::>>.111111111111111<.wwwwwwwwwwwwwwwwww.::::::::>>>>>>>>>>>>>>>>>>>>:::>>>>>>>>>",
">::-*oX7>>>>>:::>>>>>>>>>>>>>>>>>>>>>>>>>>>>>>>:::.11111111111111<.wwwwwwwwwwwwwwwww.>>>>>>>>>:::>>>>>>>>>>>>>>>>>>>>::>>>>>>>",
"::>-*oX7>>::::>>>>>>>>>>::::::::::>>>>>>>>>>>>>>>>..1111111111111<.wwwwwwwwwwwwwwwww.>>>>>>>>>>>>:::>>>>>>>>>>>>>>>>>>>::>>>>>",
">>>-*oX7::>>>>>>>:::::::>>>>>>>>>:::::::>>>>>>>>>>>..111111111111<.wwwwwwwwwwwwwwww.::::::>>>>>>>>>>:::>>>>>>>>>>>>>>>>>::>>>>",
">>>-*oX7>>>>>>:::>>>>>>>>>:::::>>>>>>>>>:::::>>>>>>.1.11111111111...wwwwwwwwwwwwww..>>>>>::::>>>>>>>>>>::::>>>>>>>>>>>>>>:::::",
">>>-*oX7>>>>>>:>>>>>>>>>>>>>>>>>>>>>>>>>>>>>>::::>>.1111111111111.>.wwwwwwwwwwww..>>>>>>>>>>:::>>>>>>>>>>>::::>>>>>>>>>>>>>>>:",
":::--oX7>>>>>>>:::::::::::::::::::::>>>>>>>>>>>>>::.1111111111111.::...wwwwwww..::>>>>>>>>>>>>:::>>>>>>>>>>>>>:::>>>>>>>>>>>>>",
">>>--oX7>>>>>>>>>>>>>>>>>>>>>>>>>>>>:::::::::>>>>>>.111111111111.>>>>-*.......>>>:::::>>>>>>>>>>:::>>>>>>>>>>>>>>:::>>>>>>>>>>",
">>>-*oX7:::>>>>>>>>>>>>>>>>>>>>>>>>>>>>>>>>>::::>>>.111111111111.>>>>-*oX7>>>>>>>>>>>>:::>>>>>>>>>>::>>>>>>>>>>>>>>>::::>>>>>>",
">>>-*oX7>>>:::::>>>>>>>>>>>>>>>>>>>>>>>>>>>>>>>>:::.111111111111.>>>>-*oX7:::::::::>>>>>:::::>>>>::::>>>>>>>>>>>>>>>>>>>::::::",
">>>-*oX7>>>>>>>>::::>>>>>>>>>>>>>>>>>>>>>>>>>>>>>>:.11111111111..>>>>-*oX7>>>>>>>>>::::>>>>>:::::>>>>>>>>>>>>>>>>>>>>>>>>>>>>>",
";==-*oX7>;==>>>>>>>>::::::>>>>>>>>>>>>>>>>>>>...>>>.11111111111.>>>>==*oX7>;==>>>>>>>>>:::>>>>>>>>>>>>>>>>::::::::>>>>>>>>>>>>",
"=q,7*oX7>=q,7>>>>>>>>>>>>>::::::>>>>>>>>>>>>..$.....11111111111.>>>=q,7oX7>=q,7>>>>>>>>>>:::::>>>>>>:::::::>>>>>>>::::::>>>>>>",
"=,,7*oX7>=,,7>>>>>>>>>>>>>>>>>>>::::::::>>>.$$$$$$$.$$$$$$$$$$$...>=,,7oX7>=,,7>>>>>>>>>>>>>>:::::::>>>>>>>>>>>>>>>>>>>:>>>>>>",
"-77-*oX7--77---------------------------::-.$$$$$$$$$$$$$$$$$$$$$$$.-77*oX7--77------------------------------------------------",
"****-oX7**********---******--*---********.$$$$$$$$$$$$$$$$$$$$$$$$$.***oX7*******--*-*******--******************--**----****--",
"ooooooX@@@@oooooooooooooooooooooooooooooo.$$$$$$$$$$$$$$$$$$$$$$$$$.ooooXooooooooooooooooooooooooooooooooooooooooooooooooooooo",
"                                        ............................                                                          "
};
