/* XPM */
static char *_a406cae4fa34119a5f13645bbab6909TDH0UxPygaLjt5TW[] = {
/* columns rows colors chars-per-pixel */
"126 126 32 1 ",
"  c None",
". c black",
"X c #130F09",
"o c #221B10",
"O c #282013",
"+ c #39221A",
"@ c #372C1A",
"# c #480B1F",
"$ c #610303",
"% c #7F051D",
"& c #590E27",
"* c #493A23",
"= c #4B3C25",
"- c #584427",
"; c #58462A",
": c #5C492C",
"> c #6B5737",
", c #6A6A6A",
"< c #8C2200",
"1 c #B72D01",
"2 c #8F0823",
"3 c #8F2222",
"4 c #A02626",
"5 c #AC5D2F",
"6 c #AA4257",
"7 c #967D57",
"8 c #CD5555",
"9 c #B99A6E",
"0 c #E6905D",
"q c #A8A6A0",
"w c #E8C798",
"e c white",
/* pixels */
"77777777777777777777777777777oX7777777777777777777777777777777777777777777777777777777777oX77777777777777777777777777777777777",
">>>>>>>>>>>>>>>>>>>>>>>>>>>-*oX7>>>>>>>>:>>>>>>>>>>>>>>>>>>>>>::>>>>>>>>>>>>>>>>>>>>>>>-*oX7>>>:>>>>>>>>>>>>>>>>>>>>>>>>>>::>>",
">>>>>>>>>>>>>::::::::::::::-*oX7:>>>>>>>:::>>>>>>>>>>>>>>>>>>>>>::::::::::>>>>>>>>>>>>>-*oX7>>>:::>>>>>>>>>>>>>>>>>>>>>>>::>>>",
">>>>>>>>>:::::>>>>>>>>>>>;==-oX7::;==;>>>>:::>>>>>>>>>>>>>>>>>>>>>>>>>>>>>::::::>>>>>;==-oX7>;==;::>>>>>>>>>>>>>>>>>>>>>::>>>>",
">>>>>>::::>>>>>>>>>>>>>>>=q,7oX7>>=q,7:>>>>>>:::::::>>>>>>>>>>>>>>>>>>>>>>>>>>>::::::=q,7oX7>=q,7>::>>>>>>>>>>>>>>>>>:::>>>>>>",
">>:::::>>>>>>>>>>>>>>>>>>=,,7oX7>>=,,7:::>>>>>>>>>>>::::::::::::>>>>>>>>>>>>>>>>>>>>>=,,7oX7>=,,7>>::>>>>>>>>>>>>>:::>>>>>>>>>",
"::>>>>>>>>>>:::::>>>>>>>>>77*oX7>>>77>>>>:>>>>>>>>>>>>>>>>>>>>>>:::::::>>>>>>>>>>>>>>>77*oX7>;77>>>>::>>>>>>>:::::>>>>>>>>>>::",
">>>>>>>>>>::>>>>:::::::>>>>-*oX7>>>>>>>>>::>>>>>>>>>>>>>>>>>>>>>>>>>>>>::::::>>>>>>>>>>-*oX7>>>>>>>>>>:::::::>>>>>>>>>>>>::::>",
">>>>>>>>>>>:::>>>>>>>>>::::-*oX7>>>>>>>>::>>>>>>>>>>>>>>>............>>>>>>>>:::::>>>>>-*oX7>>>>>>>>>>>>>>>>>>>>>>>>>::::>>>>>",
">>>>>>>>>>>>>::>>>>>>>>>>>>-*oX7>>>>::::>>>>>>>>>>:::....++++++++++++....>>>>>>>>>:::>>-*oX7:>>>>>>>>>>>>>>>>>>>>>>:::>>>>>>>>",
">>>>>>>>>>>>>>>::>>>>>>>>>>-*oX7::::>>>>>>>>>:::::>..++++++++++++++++++++..>>>>>>>>>>::-*oX7::::>>>>>>>>>>>>>>:::::>>>>>>>>>>>",
">>>>>>>>>>>>>>>>>::>>>>>>>>-*oX7>>>>>>>>>>:::>>>...++++++++++++++++++++++++...:>>>>>>>>-*oX7>>>::::::::::::::::>>>>>>>>>>>>>>>",
"::>>>>>>>>>>>>>>>>::>>>>>>>-*oX7>>>>>>>>:::>>>>.++++++++++++++++++++++++++++++.::>>>>>>-*oX7>>>>>>>>>>>>>>>>>>>>>>>>>>>>>>>:::",
">::::::>>>>>>>>>>>>>:>>>>>>-*oX7>>>>>:::>>>>>..++++++++++++++++++++++++++++++++..:::>>>--oX7>>>>>>>>>>>>>>>>>>>>>>>>>>:::::>>>",
">>>>>>:::::>>>>>>>>>>::>>>>-*oX7>>>:::>>>>>:.++++++++++++++++++++++++++++++++++++.>:::>-*oX7>>>>>>>>>>>>>>>>>>>>>::::::>>>>>>>",
">>>>>>>>>>>::::>>>>>>>::>>>--oX7::::>>>>>::.++++++++++++++++++++++++++++++++++++++.>>::-*oX7>>>>>>>>>>>>>>>>>:::::>>>>>>>>>>>>",
">>>>>>>>>>>>>>>:::>>>>>>::>-*oX7>>>>>>>>>:.++++++++++++++++++++++++++++++++++++++++.>>>-*oX7>>>>>>>>>>>>>::::>>>>>>>>>>>>>>>>>",
"::::>>>>>>>>>>>>>>::>>>>>:>-*oX7>>>>>>>>>.++++++++++++++++++++++++++++++++++++++++++.>>-*oX7>>>>>>>>>>>:::>>>>>>>>>>>>>>::::::",
">>>>::>>>>>>>>>>>>>>::>>>>:-*oX7>>>>>>>>.++++++++++++++++++++++++++++++++++++++++++++.>--oX7>>>>>>>>>:::>>>>>>>>>>>:::::>>>>>>",
">>>>>>:::>>>>>>>>>>>>>:>>;==-oX7>>;==>>.++++++++++++++++++++++++++++++++++++++++++++++.=-oX7>>==>>>:::>>>>>>>>>>::::>>>>>>>>>>",
">>>>>>>>>:::>>>>>>>>>>::>=q,7oX7>>=q,7.++++++++++++++++++++++++++++++++++++++++++++++++.7oX7>=q,7>::>>>>>>>>::::>>>>>>>>>>>>>>",
">>>>>>>>>>>::>>>>>>>>>>::=,,7oX7>>=,,.++++++++++++++++++++++++++++++++++++++++++++++++++.oX7>=,,7::>>>>>>>>::>>>>>>>>>>>>>>>>>",
"--------------------------77-oX7---77.++++++++++++++++++++++++++++++++++++++++++++++++++.oX7--77------------------------------",
"*****--*********--***-*******oX7----.++++++++++++++++++++++++++++++++++++++++++++++++++++.X7************---**********----*****",
"ooooooooooooooooooooooooooooooXoooo.++++++++++++++++++++++++++++++++++++++++++++++++++++++.oooooooooooooooooooooooo@@@oooooooo",
"XXXXXXXXXXXXXXXXXXXXXXXXXXXXXXXXXXX.++++++++++++++++++++++++++++++++++++++++++++++++++++++.XXXXXXXXXXXXXXXXXXXXXXXXXXXXXXXXXXX",
"X7777777777777777777777777777777777.++++++++++++++++++++++++++++++++++++++++++++++++++++++.777777777777777777777777777777777oX",
"X7>>>>>:>>>>>>>>>>>>>>>>>>>>>>>>>>.++++++++++++++++++++++++++++++++++++++++++++++++++++++++.:::::::>>>>:::::::>>::::::::::-*oX",
"X7>>>>>::::>>>>>>>>>>>>>>>>>>>>:::.++++++++++++++++++++++++++++++++++++++++++++++++++++++++.>>>>>>>::::>>>>>>:::>>>>>>>>>>-*oX",
"X7>;==>>>>::::::::::::::::::::::>..++++++++++++++++++++++++++++++++++++++++++++++++++++++++..>>>>>>>>>>>>>>>>>>>>>>>>>>;==-*oX",
"X7>=q,7>>>>>>>>>>>>>>>>>>>>>>>>>>.w++++++++++++++++++++++++++++++++++++++++++++++++++++++++w.>>>>>>>>>>>>>>>>>:::::::::=q,7*oX",
"X7>=,,7>>>>>>>>>>>>>>>>>>>>>>>>>>.w999++++++++++++++++++++++++++++++++++++++++++++++++++999w.>>>>>>>>>>>>>>::::>>>>>>>>=,,7*oX",
"X7>;77>>>>>>>>>>>>>>>>>>>>>>>>>>>.wwww999++++++++++++++++++++++++++++++++++++++++++++999wwww.>>>>>>>>>>>>:::>>>>>>>>>>>;77--oX",
"X7>>>>>>>>>>>>>>>>>>>>>>>>>>>>>>.wwwwwwww999999++++++++++++++++++++++++++++++++999999wwwwwwww.>>>>>>>>>:::>>>>>>>>>>>>>>>>--oX",
"X7>>>>>>>>>>>>>>>>>>>>>>>>>>>>>>.wwwwwwwwwwwwww999999++++++++++++++++++++999999wwwwwwwwwwwwww.>>>>>>>:::>>>>>>>::::>>>>>>>-*oX",
"X7>>>>>::::::::::::::::::::>>>>>.wwwwwwwwwwwwwwwwwwww99999999999999999999wwwwwwwwwwwwwwwwwwww.>>>>>::>>>>>>>>::>>>:>>>>>>>-*oX",
"X7>>:::>>>>>>>>>>>>>>>>>>>>:::::.wwwwwwwwwwwwwwwwwwwwwwwwwwwwwwwwwwwwwwwwwwwwwwwwwwwwwwwwwwww.>>:::>>>>>>::::>>>>:>>>>>>>>-*oX",
"X7:::>>>>>>>>>>>>>>>>>>>>>>>>>>>.wwwwwwwwwwwwwwwwwwwwwwwwwwwwwwwwwwwwwwwwwwwwwwwwwwwwwwwwwwww.::>>>>>>>>::>>>>>::>>>>>>:::-*oX",
"X7:>>>>>::::::::::::::>>>>>>>>>>.wwwwwwwwwwwwwwwwwwwwwwwwwwwwwwwwwwwwwwwwwwwwwwwwwwwwwwwwwwww.>>>>>>>>::>>>>>>:>>>>>>:::>>--oX",
"X7>>>>>:>>>>>>>>>>>>>:::>>>>>>>>.wwwwwwwwwwwww........wwwwwwwwwwwwwwwwww........wwwwwwwwwwwww.>>>>>:::>>>>>>::>>>>>>::>>>>-*oX",
"X7>>>>:::::::::::::::::>>>>>>>>>.wwwwwwwwwwwwwwwwwwwwwwwwwwwwwwwwwwwwwwwwwwwwwwwwwwwwwwwwwwww.>>:::>>>>>>>::>>>>>>>:>>>>>>--oX",
"X7:::>>>>>>>>>>>>>>>>>>>>>>>>:::.wwwwwwwwwwwwwwwwwwwwwwww99ww9ww9ww99wwwwwwwwwwwwwwwwwwwwwwww.>::>>>>>::::>>>>>>>>::>>>>>>-*oX",
"X7:>>::::>>>>>>>>>>>>>>::::::>>>.wwwwwwwwwwwwwweeee333wwwww9ww99ww9wwwww333eeeewwwwwwwwwwwwww.>:::::::>>>>>>>>>>>:>>>>>:::-*oX",
"X7>>>>>>>:::::::::::::::>>>>>>>>.wwwwwwwwwwwwwweeee333wwwwww9wwww9wwwwww333eeeewwwwwwwwwwwwww.>:>>>>>>>>>>>>>>>::>>>>>::>>-*oX",
"X7>;==;>>>>>>>>>>>>>>>>>>>>>>>>>.wwwwwwwwwwwwwweeee333wwwwwww9ww9wwwwwww333eeeewwwwwwwwwwwwww.>>>>>>>>>>>>>>:::>>>>>>:>;==-*oX",
"X7>=q,7>>>>>>>>>>>>>>>>>>>>>:::::.wwwwwwwwwwwwweeee444wwwwwwww99wwwwwwww444eeeewwwwwwwwwwwww.>>>>>>>>>>>>:::>>>>>>>>:>>=q,7*oX",
"X7>=,,7>>>>>>>>>>>>>>>>>>>:::>>>>.wwwwwwwwwwwwweeee444wwwwwwwwwwwwwwwwww444eeeewwwwwwwwwwwww.>>>>>>>>>:::>>>>>>>>>>:>>>=,,7*oX",
"X7--77---------------------------.wwwwwwwwwwwwweeee444wwwwwwwwwwwwwwwwww444eeeewwwwwwwwwwwww.---------------------------77-*oX",
"X7*********-----*********---*---*.wwwwwwwwwwwwweeee444wwwwwwwwwwwwwwwwww444eeeewwwwwwwwwwwww.**-***********-*----*********-*oX",
"Xooooooooooooooooooooooooooooooooo.wwwwwwwwwwwweeee844wwwwwwwwwwwwwwwwww448eeeewwwwwwwwwwww.oooooooooooooooooooooooooooooooooX",
"XXXXXXXXXXXXXXXXXXXXXXXXXXXXXXXXXX.wwwwwwwwwwwweeee488wwwwwwwwww9wwwwwww884eeeewwwwwwwwwwww.XXXXXXXXXXXXXXXXXXXXXXXXXXXXXXXXXX",
"77777777777777777777777777777oX7777.wwwwwwwwwwweeee444wwwwwwwwww9wwwwwww444eeeewwwwwwwwwww.77777777777777777777777777777777777",
">>>>>>>>>>>>>>>>:>>>>>>>>>>-*oX7>>>.wwwwwwwwwwwwwwwwwwwwwwww9www9wwwwwwwwwwwwwwwwwwwwwwwww.7:>>>>>>>>>>>>>>>>>>>>>>>>>>>>>>>>>",
">>>>>>>>>>>>>>>>>::>>>>>>>>-*oX7>>>.wwwwwwwwwwwwwwwwwwwwwww9wwwww9wwwwwwwwwwwwwwwwwwwwwwww.7>::::::::>>>>>>>>>>>>>>>>>>>>>>>>>",
">>>>>>>>>>>>>>>>>>::>>>>;==--oX7>;=.wwwwwwwwwwwwwwwwwwwwwwwwwwwwwwwwwwwwwwwwwwwwwwwwwwwwww.7>;==>>>>:::::::::::::::::::>>>>>>>",
">>>>>>>>>>::::>>>>>>:::>=q,7-oX7>=q,.wwwwwwwwwwwwwwwwwwwwwwwwwwwwwwwwwwwwwwwwwwwwwwwwwwww.X7>=q,7>>>>>>>>>>>>>>>>>>>>>:::::>>>",
":::::::::::>>:::>>>>>>::=,,7*oX7>=...wwwwwwwwwwwwwwwwwwwww..........wwwwwwwwwwwwwwwwwwwww...>=,,7>>>>>>>>>>>>>>>>>>>>>>>>>::::",
">>>>>>>>>>>>>>>:::>>>>>>>77-*.....005.wwwwwwwwwwwwwwwwwww..&&&&&&&&..wwwwwwwwwwwwwwwwwww.500.....>>>>>>>>>>>>>>>>>>>>>>>>>>>>>",
">>>>>>>>>>>>>>>>>:::>>>>>>>..000000055.wwwwwwwwwwwwwwwww..&&&&&&&&&&..wwwwwwwwwwwwwwwww.550000000..>>>>>>>>:::::::::::>>>>>>>>",
">>>>>>>:::::::::>>>>::>>>>.000000000055.wwwwwwwwwwwwwww.&&&&&&%%&&&&&&.wwwwwwwwwwwwwww.550000000000.>>:::::>>>>>>>>>>>::::>>>>",
"::::::::>>>>>>>::>>>>>:::.0000000000005..wwwwwwwwwwwww..&&&&&&%%&&&&&&..wwwwwwwwwwwww..5000000000000.>::>>>>>>>>::>>>>>>>>::::",
">>>>>>>>>>>>>:::>>>>>>>>.0000000000000555.wwwwwwwwwwww.&&&&&&%%%%&&&&&&.wwwwwwwwwwww.5550000000000000.>>::::>>>>>>::::>>>>>>>>",
":::>>>>>>>::::>>>>>>>>>..0000000000000005.wwwwwwwwwwww.&&&&&&%%%%&&&&&&.wwwwwwwwwwww.5000000000000000..>>>>>::::>>>>>>>>>>>>::",
">>>>>>>>:::>>>>>>>>>>>..000000000000000055.wwwwwwwwww..&&#####%%#####&&..wwwwwwwwww.550000000000000000..>>>>>>>>::::::::>>>>>>",
"::::::::>>>>>>>>>>::::.00000000000000000055.wwwwwwwww.##################.wwwwwwwww.55000000000000000000.:>>>>>>>>>>>>>>>::::::",
">>>>>>>>>>>>>>:::::>>..000000000000000000055.wwwwwwww.##################.wwwwwwww.550000000000000000000..::>>>>>>>>>>>>>>>>>>>",
">>>>>>>>>>::::>>>>>>>.00000000000000000000055.wwwwwwww.####22266222####.wwwwwwww.55000000000000000000000.>>::::::>>>>>>>>>>>>>",
"::::::::::>>>>>>>>>>>.000000000000000000000055.wwwwwww..##2222222222##..wwwwwww.550000000000000000000000.>>>>>>>>:::::::::::::",
">>>>>>>>>>>>>>>>>:::..0000000000000000000000055.wwwwwww..222226622222..wwwwwww.5500000000000000000000000..>>>>>>>>>>>>>>>>>>>>",
">>>>>>>>>>>>::::::>>.000000000000000000000000055.wwwwwww...22266222...wwwwwww.550000000000000000000000000.>>>>>>>>>>>>>>>>>>>>",
">>>>>>>:::::>>>>>>>>.0000000000000000000000000055...wwwwww.22266222.wwwwww...5500000000000000000000000000.:::::::::::::::>>>>>",
"::::::::>>>>>>>>>>>>.0000000000000000000000000005555.wwwwww22266222wwwwww.5555000000000000000000000000000.>>>>>>>>>>>>>>::::::",
"--------------------.00000000000000000000000000005555..wwwww222222wwwww..55550000000000000000000000000000.--------------------",
"***--******--******-.0000000000000000000000000000000555..wwww2222wwww..5550000000000000000000000000000000.*******--*-*********",
"oooooooooooooooooooo.000000000000000000050000000000005555..wwwwwwww..555500000000000050000000000000000000.oooooooooooooooooooo",
"XXXXXXXXXXXXXXXXXXXX.000000000000000000.5000000000000000555........5550000000000000005.000000000000000000.XXXXXXXXXXXXXXXXXXXX",
"X7777777777777777777.00000000000000000..5000000000000000005555555555000000000000000005..00000000000000000.777777777777777777oX",
"X7>>>>>:>>>>>>>>>>>>.00000000000000000.550000000000000000000055550000000000000000000055.00000000000000000.::::>>::::::::::-*oX",
"X7>>>>>::::>>>>>>>>>.0000000000000000.50000000000000000000000000000000000000000000000005.0000000000000000.>>>:::>>>>>>>>>>-*oX",
"X7>;==>>>>::::::::::.0000000000000000.50000000000000000000000000000000000000000000000005.0000000000000000.>>>>>>>>>>>>>;==-*oX",
"X7>=q,7>>>>>>>>>>>>>.0000000000000000.50000000000000000000000000000000000000000000000005.0000000000000000.>>>>:::::::::=q,7*oX",
"X7>=,,7>>>>>>>>>>>>>.0000000000000000.50000000000000000000000000000000000000000000000005.0000000000000000.>::::>>>>>>>>=,,7*oX",
"X7>;77>>>>>>>>>>>>>>.000000000000000..50000000000000000000000000000000000000000000000005..000000000000000.::>>>>>>>>>>>;77--oX",
"X7>>>>>>>>>>>>>>>>>>.000000000000000.5000000000000000000000000000000000000000000000000005.000000000000000.>>>>>>>>>>>>>>>>--oX",
"X7>>>>>>>>>>>>>>>>>>.00000000000000..5000000000000000000000000000000000000000000000000005..00000000000000.>>>>>::::>>>>>>>-*oX",
"X7>>>>>:::::::::::::.00000000000000.550000000000000000000000000000000000000000000000000055.00000000000000.>>>::>>>:>>>>>>>-*oX",
"X7>>:::>>>>>>>>>>>>>.00000000000000.500000000000000000000000000000000000000000000000000005.00000000000000.:::>>>>:>>>>>>>>-*oX",
"X7:::>>>>>>>>>>>>>>>.0000000000000.55000000000000000000000000000000000000000000000000000055.0000000000000.>>>>>::>>>>>>:::-*oX",
"X7:>>>>>::::::::::::.0000000000000.50000000000000000000000000000000000000000000000000000005.0000000000000.>>>>:>>>>>>:::>>--oX",
"X7>>>>>:>>>>>>>>>>>>.0000000000000.55000000000000000000000000000000000000000000000000000055.0000000000000.>>::>>>>>>::>>>>-*oX",
"X7>>>>::::::::::::::..00000000000...500000000000000000000000000000000000000000000000000005...00000000000..::>>>>>>>:>>>>>>--oX",
"X7:::>>>>>>>>>>>>>>>>.00000000000.w.500000000000000000000000000000000000000000000000000005.w.00000000000.:>>>>>>>>::>>>>>>-*oX",
"X7:>>::::>>>>>>>>>>>>.0000000000.ww.500000000000000000000000000000000000000000000000000005.ww.0000000000.>>>>>>>>:>>>>>:::-*oX",
"X7>>>>>>>:::::::::::.....000000..www......................................................www..000000.....>>>>>::>>>>>::>>-*oX",
"X7>;==;>>>>>>>>>>>>..www........wwww.<11111111111111111111111111111111111111111111111111<.wwww........www..>:::>>>>>>:>;==-*oX",
"X7>=q,7>>>>>>>>>>>>.wwwwwwwwwwwwwwww.<<111111111111111111111111111111111111111111111111<<.wwwwwwwwwwwwwwww.:>>>>>>>>:>>=q,7*oX",
"X7>=,,7>>>>>>>>>>>.wwwwwwwwwwwwwwwwww.<111111111111111111111111111111111111111111111111<.wwwwwwwwwwwwwwwwww.>>>>>>>:>>>=,,7*oX",
"X7--77------------.wwwwwwwwwwwwwwwwww.<111111111111111111111111111111111111111111111111<.wwwwwwwwwwwwwwwwww.------------77-*oX",
"X7*********-----**.wwwwwwwwwwwwwwwwww.<111111111111111111111111111111111111111111111111<.wwwwwwwwwwwwwwwwww.*----*********-*oX",
"Xooooooooooooooooo.wwwwwwwwwww.....ww.<111111111111111111111111111111111111111111111111<.ww.....wwwwwwwwwww.oooooooooooooooooX",
"XXXXXXXXXXXXXXXXXX.wwwwwwwwwwwwwwww..<<1111111111111111.11111111111111.1111111111111111<<..wwwwwwwwwwwwwwww.XXXXXXXXOOOXXXXXXX",
"77777oX77777777777.wwwwwwwwwwwwwwwww.<<111111111111111<..111111111111..<111111111111111<<.wwwwwwwwwwwwwwwww.777777777777777777",
">>>--oX7>>>>>>>>>:.wwwwwwwwwwwwwwwwww.<111111111111111<<...11111111...<<111111111111111<.wwwwwwwwwwwwwwwwww.>>>>>>>>:>>>>>>>>>",
">>>-*oX7>>>>>>:::>>.wwwwwwwwwwwwwwwww.<<111111111111111<<<..........<<<111111111111111<<.wwwwwwwwwwwwwwwww.>>>>>>>>>::>>>>>>>>",
";==--oX7>;==;:>>>>>.wwwwwwwwwwwwwwwww..<1111111111111111<..>>:::>>>..<1111111111111111<..wwwwwwwwwwwwwwwww.>>>>>>>>>>>:::>>>>>",
"=q,7-oX7>=q,7>>>>>>>.wwwwwwwwwwwwwwww..<1111111111111111<.>>>>>::::=.<1111111111111111<..wwwwwwwwwwwwwwww.::>>>>>>>>>>>>:::>>>",
"=,,7*oX7>=,,7>>>>>>>..wwwwwwwwwwwwww.>..1111111111111111<.>>>>>>>>>=.<1111111111111111..>.wwwwwwwwwwwwww..>>:::>>>>>>>>>>>::::",
";77-*oX7>;77>>>>>>>:::..wwwwwwwwwwww.::.<1111111111111111.:>>>>>>>>>.1111111111111111<.>>.wwwwwwwwwwww..>>>>>>::::>>>>>>>>>>>>",
">>>-*oX7>>>>>>>>:::>>>>>..wwwwwww...>>>..1111111111111111.:::>>>>>>>.1111111111111111..:::...wwwwwww..>>>>>>>>>>>>:::>>>>>>>>>",
">::-*oX7>>>>>:::>>>>>>>>>>.......>>>>>>>.1111111111111111.>>>:::::>>.1111111111111111.>>>>>>>.......>>>>>>>>>>>>>>>>>::>>>>>>>",
"::>-*oX7>>::::>>>>>>>>>>::::::::::>>>>>>.1111111111111111.>>>>>>>:::.1111111111111111.>>>>>>>>>>>:::>>>>>>>>>>>>>>>>>>>::>>>>>",
">>>-*oX7::>>>>>>>:::::::>>>>>>>>>:::::::..111111111111111.>>>>>>>>>>.111111111111111..::::>>>>>>>>>>:::>>>>>>>>>>>>>>>>>::>>>>",
">>>-*oX7>>>>>>:::>>>>>>>>>:::::>>>>>>>>>:.111111111111111.:::>>>>>>>.111111111111111.>>>>::::>>>>>>>>>>::::>>>>>>>>>>>>>>:::::",
">>>-*oX7>>>>>>:>>>>>>>>>>>>>>>>>>>>>>>>>>.111111111111111.>>:::::>>>.111111111111111.>>>>>>>:::>>>>>>>>>>>::::>>>>>>>>>>>>>>>:",
":::--oX7>>>>>>>:::::::::::::::::::::>>>>>.111111111111111.>>>>>>::::.111111111111111.>>>>>>>>>:::>>>>>>>>>>>>>:::>>>>>>>>>>>>>",
">>>--oX7>>>>>>>>>>>>>>>>>>>>>>>>>>>>:::::.11111111111111..>>>>>>>>>>..11111111111111.:>>>>>>>>>>:::>>>>>>>>>>>>>>:::>>>>>>>>>>",
">>>-*oX7:::>>>>>>>>>>>>>>>>>>>>>>>>>>>>>>.1111111111111<.:>>>>>>>>>>>.<1111111111111.>:::>>>>>>>>>>::>>>>>>>>>>>>>>>::::>>>>>>",
">>>-*oX7>>>:::::>>>>>>>>>>>>>>>>>>>>>>>>>>.11111111111<<.::::>>>>>>>>.<<11111111111.>>>>:::::>>>>::::>>>>>>>>>>>>>>>>>>>::::::",
">>>-*oX7>>>>>>>>::::>>>>>>>>>>>>>>>>>>>>>>.111111<<<<<<<.>>>::>>>>>>>.<<<<<<<111111.:::>>>>>:::::>>>>>>>>>>>>>>>>>>>>>>>>>>>>>",
";==-*oX7>;==>>>>>>>>::::::>>>>>>>>>>>>>>>>.1111111<<<<<<.>>>>:>>>>>>=.<<<<<<1111111.>>>:::>>>>>>>>>>>>>>>>::::::::>>>>>>>>>>>>",
"=q,7*oX7>=q,7>>>>>>>>>>>>>::::::>>>>>>>>>>............<<.:::::>>>>>=q.<<............>>>>>:::::>>>>>>:::::::>>>>>>>::::::>>>>>>",
"=,,7*oX7>=,,7>>>>>>>>>>>>>>>>>>>::::::::...$$$$$$$$$$......>>>>>>>>......$$$$$$$$$$...>>>>>>>:::::::>>>>>>>>>>>>>>>>>>>:>>>>>>",
"-77-*oX7--77--------------------------..$$$$$$$$$$$$$$$$$$.--------.$$$$$$$$$$$$$$$$$$..--------------------------------------",
"****-oX7**********---******--*---****.$$$$$$$$$$$$$$$$$$$$$.****--.$$$$$$$$$$$$$$$$$$$$$.***--******************--**----****--",
"ooooooX@@@@ooooooooooooooooooooooooo.$$$$$$$$$$$$$$$$$$$$$$.oooooo.$$$$$$$$$$$$$$$$$$$$$$.oooooooooooooooooooooooooooooooooooo",
"                                    ........................      ........................                                    "
};
