/* XPM */
static char *dd8f420018214b3ecb263b1fcd976d06ITN0MPpzMuSyIVO4[] = {
/* columns rows colors chars-per-pixel */
"126 126 32 1 ",
"  c None",
". c black",
"X c #130F09",
"o c #221B10",
"O c #282013",
"+ c #39221A",
"@ c #372C1A",
"# c #480B1F",
"$ c #610303",
"% c #71041A",
"& c #590E27",
"* c #493A23",
"= c #4B3C25",
"- c #584427",
"; c #58462A",
": c #5C492C",
"> c #6B5737",
", c #6A6A6A",
"< c #8C2200",
"1 c #B72D01",
"2 c #8F0823",
"3 c #8F2222",
"4 c #A02626",
"5 c #AC5D2F",
"6 c #AA4257",
"7 c #967D57",
"8 c #CD5555",
"9 c #B99A6E",
"0 c #E6905D",
"q c #A8A6A0",
"w c #E8C798",
"e c white",
/* pixels */
"77777777777777777777777777777oX7777777777777777777777777777777777777777777777777777777777oX77777777777777777777777777777777777",
">>>>>>>>>>>>>>>>>>>>>>>>>>>-*oX7>>>>>>>>:>>>>>>>>>>>>>>>>>>>>>::>>>>>>>>>>>>>>>>>>>>>>>-*oX7>>>:>>>>>>>>>>>>>>>>>>>>>>>>>>::>>",
">>>>>>>>>>>>>::::::::::::::-*oX7:>>>>>>>:::>>>>>>>>>>>>>>>>>>>>>::::::::::>>>>>>>>>>>>>-*oX7>>>:::>>>>>>>>>>>>>>>>>>>>>>>::>>>",
">>>>>>>>>:::::>>>>>>>>>>>;==-oX7::;==;>>>>:::>>>>>>>>>>>>>>>>>>>>>>>>>>>>>::::::>>>>>;==-oX7>;==;::>>>>>>>>>>>>>>>>>>>>>::>>>>",
">>>>>>::::>>>>>>>>>>>>>>>=q,7oX7>>=q,7:>>>>>>:::::::>>>>>>>>>>>>>>>>>>>>>>>>>>>::::::=q,7oX7>=q,7>::>>>>>>>>>>>>>>>>>:::>>>>>>",
">>:::::>>>>>>>>>>>>>>>>>>=,,7oX7>>=,,7:::>>>>>>>>>>>::::::::::::>>>>>>>>>>>>>>>>>>>>>=,,7oX7>=,,7>>::>>>>>>>>>>>>>:::>>>>>>>>>",
"::>>>>>>>>>>:::::>>>>>>>>>77*oX7>>>77>>>>:>>>>>>>>>>>>>>>>>>>>>>:::::::>>>>>>>>>>>>>>>77*oX7>;77>>>>::>>>>>>>:::::>>>>>>>>>>::",
">>>>>>>>>>::>>>>:::::::>>>>-*oX7>>>>>>>>>::>>>>>>>>>>>>>>>>>>>>>>>>>>>>::::::>>>>>>>>>>-*oX7>>>>>>>>>>:::::::>>>>>>>>>>>>::::>",
">>>>>>>>>>>:::>>>>>>>>>::::-*oX7>>>>>>>>::>>>>>>>>>>>>>>>............>>>>>>>>:::::>>>>>-*oX7>>>>>>>>>>>>>>>>>>>>>>>>>::::>>>>>",
">>>>>>>>>>>>>::>>>>>>>>>>>>-*oX7>>>>::::>>>>>>>>>>:::....++++++++++++....>>>>>>>>>:::>>-*oX7:>>>>>>>>>>>>>>>>>>>>>>:::>>>>>>>>",
">>>>>>>>>>>>>>>::>>>>>>>>>>-*oX7::::>>>>>>>>>:::::>..++++++++++++++++++++..>>>>>>>>>>::-*oX7::::>>>>>>>>>>>>>>:::::>>>>>>>>>>>",
">>>>>>>>>>>>>>>>>::>>>>>>>>-*oX7>>>>>>>>>>:::>>>...++++++++++++++++++++++++.:::>>>>>>>>-*oX7>>>::::::::::::::::>>>>>>>>>>>>>>>",
"::>>>>>>>>>>>>>>>>::>>>>>>>-*oX7>>>>>>>>:::>>>>.++++++++++++++++++++++++++++.>>::>>>>>>-*oX7>>>>>>>>>>>>>>>>>>>>>>>>>>>>>>>:::",
">::::::>>>>>>>>>>>>>:>>>>>>-*oX7>>>>>:::>>>>>..++++++++++++++++++++++++++++++.>>>:::>>>--oX7>>>>>>>>>>>>>>>>>>>>>>>>>>:::::>>>",
">>>>>>:::::>>>>>>>>>>::>>>>-*oX7>>>:::>>>>>:.++++++++++++++++++++++++++++++++.>>>>>:::>-*oX7>>>>>>>>>>>>>>>>>>>>>::::::>>>>>>>",
">>>>>>>>>>>::::>>>>>>>::>>>--oX7::::>>>>>::.++++++++++++++++++++++++++++++++++.>>>>>>::-*oX7>>>>>>>>>>>>>>>>>:::::>>>>>>>>>>>>",
">>>>>>>>>>>>>>>:::>>>>>>::>-*oX7>>>>>>>>>:.++++++++++++++++++++++++++++++++++++.>>>>>>>-*oX7>>>>>>>>>>>>>::::>>>>>>>>>>>>>>>>>",
"::::>>>>>>>>>>>>>>::>>>>>:>-*oX7>>>>>>>>>.++++++++++++++++++++++++++++++++++++++.::>>>>-*oX7>>>>>>>>>>>:::>>>>>>>>>>>>>>::::::",
">>>>::>>>>>>>>>>>>>>::>>>>:-*oX7>>>>>>>>.+++++++++++++++++++++++++++++++++++++++.>:::>>--oX7>>>>>>>>>:::>>>>>>>>>>>:::::>>>>>>",
">>>>>>:::>>>>>>>>>>>>>:>>;==-oX7>>;==>>.+++++++++++++++++++++++++++++++++++++++++.>>>;==-oX7>>==>>>:::>>>>>>>>>>::::>>>>>>>>>>",
">>>>>>>>>:::>>>>>>>>>>::>=q,7oX7>>=q,7.+++++++++++++++++++++++++++++++++++++++++++.>>=q,7oX7>=q,7>::>>>>>>>>::::>>>>>>>>>>>>>>",
">>>>>>>>>>>::>>>>>>>>>>::=,,7oX7>>=,,.++++++++++++++++++++++++++++++++++++++++++++.>>=,,7oX7>=,,7::>>>>>>>>::>>>>>>>>>>>>>>>>>",
"--------------------------77-oX7---77.+++++++++++++++++++++++++++++++++++++++++++++.--77-oX7--77------------------------------",
"*****--*********--***-*******oX7----.++++++++++++++++++++++++++++++++++++++++++++++.***-*oX7************---**********----*****",
"ooooooooooooooooooooooooooooooXoooo.++++++++++++++++++++++++++++++++++++++++++++++++.oooooXoooooooooooooooooooooooo@@@oooooooo",
"XXXXXXXXXXXXXXXXXXXXXXXXXXXXXXXXXXX.++++++++++++++++++++++++++++++++++++++++++++++++.XXXXXXXXXXXXXXXXXXXXXXXXXXXXXXXXXXXXXXXXX",
"X7777777777777777777777777777777777.+++++++++++++++++++++++++++++++++++++++++++++++++.77777777777777777777777777777777777777oX",
"X7>>>>>:>>>>>>>>>>>>>>>>>>>>>>>>>>.++++++++++++++++++++++++++++++++++++++++++++++++++.>>:::::::::::>>>>:::::::>>::::::::::-*oX",
"X7>>>>>::::>>>>>>>>>>>>>>>>>>>>:::.+++++++++++++++++++++++++++++++++++++++++++++++++++.:>>>>>>>>>>>::::>>>>>>:::>>>>>>>>>>-*oX",
"X7>;==>>>>::::::::::::::::::::::>..+++++++++++++++++++++++++++++++++++++++++++++++++++.>>>>>>>>>>>>>>>>>>>>>>>>>>>>>>>>;==-*oX",
"X7>=q,7>>>>>>>>>>>>>>>>>>>>>>>>>>.w++++++++++++++++++++++++++++++++++++++++++++++++++++.>>>>>>>>>>>>>>>>>>>>>>:::::::::=q,7*oX",
"X7>=,,7>>>>>>>>>>>>>>>>>>>>>>>>>>.w999+++++++++++++++++++++++++++++++++++++++++++++++++.>>>>>>>>>>>>>>>>>>>::::>>>>>>>>=,,7*oX",
"X7>;77>>>>>>>>>>>>>>>>>>>>>>>>>>>.wwww999++++++++++++++++++++++++++++++++++++++++++++99.:::::>>>>>>>>>>>>:::>>>>>>>>>>>;77--oX",
"X7>>>>>>>>>>>>>>>>>>>>>>>>>>>>>>.wwwwwwww999999++++++++++++++++++++++++++++++++999999www.>>:::>>>>>>>>>:::>>>>>>>>>>>>>>>>--oX",
"X7>>>>>>>>>>>>>>>>>>>>>>>>>>>>>>.wwwwwwwwwwwwww999999++++++++++++++++++++999999wwwwwwwww.::>>>>>>>>>>:::>>>>>>>::::>>>>>>>-*oX",
"X7>>>>>::::::::::::::::::::>>>>>.wwwwwwwwwwwwwwwwwwww99999999999999999999wwwwwwwwwwwwwww.>>>>>>>>>>::>>>>>>>>::>>>:>>>>>>>-*oX",
"X7>>:::>>>>>>>>>>>>>>>>>>>>:::::.wwwwwwwwwwwwwwwwwwwwwwwwwwwwwwwwwwwwwwwwwwwwwwwwwwwwwwww.>>>>>>:::>>>>>>::::>>>>:>>>>>>>>-*oX",
"X7:::>>>>>>>>>>>>>>>>>>>>>>>>>>>.wwwwwwwwwwwwwwwwwwwwwwwwwwwwwwwwwwwwwwwwwwwwwwwwwwwwwwww.>>>:::>>>>>>>>::>>>>>::>>>>>>:::-*oX",
"X7:>>>>>::::::::::::::>>>>>>>>>>.wwwwwwwwwwwwwwwwwwwwwwwwwwwwwwwwwwwwwwwwwwwwwwwwwwwwwwww.:::>>>>>>>>>::>>>>>>:>>>>>>:::>>--oX",
"X7>>>>>:>>>>>>>>>>>>>:::>>>>>>>>.wwwwwwwwwwwwwwwwwwwwwwwwwwwwwwwwwwwwwwwwwwwww........www..>>>>>>>>:::>>>>>>::>>>>>>::>>>>-*oX",
"X7>>>>:::::::::::::::::>>>>>>>>>.wwwwwwwwwwwwwwwwwwwwwwwwwwwwwwwwwwwwwwwwwwwwwwwwwwwwwwwww.>>>>>:::>>>>>>>::>>>>>>>:>>>>>>--oX",
"X7:::>>>>>>>>>>>>>>>>>>>>>>>>:::.wwwwwwwwwwwwwwwwwwwwwwwwwwwwwwwwwwwwwwwwwwwwwwwwwwwwww99w.>>>>::>>>>>::::>>>>>>>>::>>>>>>-*oX",
"X7:>>::::>>>>>>>>>>>>>>::::::>>>.wwwwwwwwwwwwwwwwwwwwwwwwwwwwwwwwwwwwwwwwwwwwwweeee333ww99.>>>>:::::::>>>>>>>>>>>:>>>>>:::-*oX",
"X7>>>>>>>:::::::::::::::>>>>>>>>.wwwwwwwwwwwwwwwwwwwwwwwwwwwwwwwwwwwwwwwwwwwwwweeee333ww999.>>>:>>>>>>>>>>>>>>>::>>>>>::>>-*oX",
"X7>;==;>>>>>>>>>>>>>>>>>>>>>>>>>.wwwwwwwwwwwwwwwwwwwwwwwwwwwwwwwwwwwwwwwwwwwwwweeee333www99.>>>>>>>>>>>>>>>>:::>>>>>>:>;==-*oX",
"X7>=q,7>>>>>>>>>>>>>>>>>>>>>:::::.wwwwwwwwwwwwwwwwwwwwwwwwwwwwwwwwwwwwwwwwwwwwweeee444wwwww.>>>>>>>>>>>>>:::>>>>>>>>:>>=q,7*oX",
"X7>=,,7>>>>>>>>>>>>>>>>>>>:::>>>>.wwwwwwwwwwwwwwwwwwwwwwwwwwwwwwwwwwwwwwwwwwwwweeee444wwwww.:>>>>>>>>>:::>>>>>>>>>>:>>>=,,7*oX",
"X7--77---------------------------.wwwwwwwwwwwwwwwwwwwwwwwwwwwwwwwwwwwwwwwwwwwwweeee444wwwww..---------------------------77-*oX",
"X7*********-----*********---*---*.wwwwwwwwwwwwwwwwwwwwwwwwwwwwwwwwwwwwwwwwwwwwweeee444wwwwww.**-***********-*----*********-*oX",
"Xooooooooooooooooooooooooooooooooo.wwwwwwwwwwwwwwwwwwwwwwwwwwwwwwwwwwwwwwwwwwwweeee844wwwwww.ooooooooooooooooooooooooooooooooX",
"XXXXXXXXXXXXXXXXXXXXXXXXXXXXXXXXXX.wwwwwwwwwwwwwwwwwwwwwwwwwwwwwwwwwwwwwwwwwwwweeee488wwwwww.XXXXXXXXXXXXXXXXXXXXXXXXXXXXXXXXX",
"77777777777777777777777777777oX7777.wwwwwwwwwwwwwwwwwwwwwwwwwwwwwwwwwwwwwwwwwwweeee444wwww9w.777777777777777777777777777777777",
">>>>>>>>>>>>>>>>:>>>>>>>>>>-*oX7>>>.wwwwwwwwwwwwwwwwwwwwwwwwwwwwwwwwwwwwwwwwwwwwwwwwwwwww9ww.>>>>>>>>>>>>>>>>>>>>>>>>>>>>>>>>>",
">>>>>>>>>>>>>>>>>::>>>>>>>>-*oX7>>>.wwwwwwwwwwwwwwwwwwwwwwwwwwwwwwwwwwwwwwwwwwwwwwwwwwwwwwww.::::::::>>>>>>>>>>>>>>>>>>>>>>>>>",
">>>>>>>>>>>>>>>>>>::>>>>;==--oX7>;=.wwwwwwwwwwwwwwwwwwwwwwwwwwwwwwwwwwwwwwwwwwwwwwwwwwwwwwww.;==>>>>:::::::::::::::::::>>>>>>>",
">>>>>>>>>>::::>>>>>>:::>=q,7-oX7>=q,.wwwwwwwwwwwwwwwwwwwww9wwwwwwwwwwwwwwwwwwwwwwwwwwwwwwwww.=q,7>>>>>>>>>>>>>>>>>>>>>:::::>>>",
":::::::::::>>:::>>>>>>::=,,7*oX7>=,,.wwwwwwwwwwwwwwwwwwwww99wwwwwwwwwwwwwwwwwwwwwwww.........=,,7>>>>>>>>>>>>>>>>>>>>>>>>>::::",
">>>>>>>>>>>>>>>:::>>>>>>>77-*oX7>>77>.wwwwwwwwwwwwwwwwwwwww99wwwwwwwwwwwwwwwwwwwww..&&&&&&&.>>77>>>>>>>>>>>>>>>>>>>>>>>>>>>>>>",
">>>>>>>>>>>>>>>>>:::>>>>>>>-*oX7>>::::.wwwwwwwwwwwwwwwwwwwww99wwwwwwwwwwwwwwwwwww..&&&&&&&.7>>>>>>>>>>>>>>>:::::::::::>>>>>>>>",
">>>>>>>:::::::::>>>>::>>>>>--oX7:::>>>>.wwwwwwwwwwwwwwwwwwwww99wwwwwwwwwwwwwwwww.&&&&&&&&&.7>>>>>>>>>>:::::>>>>>>>>>>>::::>>>>",
"::::::::>>>>>>>::>>>>>::::>-*oX7>>>>>>>>.wwwwwwwwwwwwwwwwwwwww9wwwwwwwwwwwwwwwww.&&&&&&&&&.7::>>>>>>>>::>>>>>>>>::>>>>>>>>::::",
">>>>>>>>>>>>>:::>>>>>>>>>>:-*oX7:::::::::.wwwwwwwwwwwwwwwwwwww99wwwwwwwwwwwwwww.&&&&&&&&&&.7>::::>>>>>>>::::>>>>>>::::>>>>>>>>",
":::>>>>>>>::::>>>>>>>>>>>>>--oX7>>>>>>>>>>.wwwwwwwwwwwwwwwwwwww999wwwwwwwwwwwww.&&&&&&&&&&.7>>>>::::>>>>>>>>::::>>>>>>>>>>>>::",
">>>>>>>>:::>>>>>>>>>>>>>>::--oX7>>>>>>>>>>>..wwwwwwwwwwwwwwwwwww99wwwwwwwwwwww..&&########.7>>>>>>>:::>>>>>>>>>>::::::::>>>>>>",
"::::::::>>>>>>>>>>:::::::>>--oX7::::::::>>>>>.wwwww.....wwwwwwwwww99wwwwwwwwww.############.>>>>>>>>>::::>>>>>>>>>>>>>>>::::::",
">>>>>>>>>>>>>>:::::>>>>>>>>-*oX7>>>>>>>>:::::>.....00000..wwwwwwwww99wwwwwwwww.#######22222222>>>>>>>>>>:::>>>>>>>>>>>>>>>>>>>",
">>>>>>>>>>::::>>>>>>>>>>>>>-*oX7>>>>>>>>>>>>>::.0000000000.wwwwwwwww999wwwwwwww.####22266666622>>>>>>>>>>>>::::::>>>>>>>>>>>>>",
"::::::::::>>>>>>>>>>>>::::>-*oX7>>:::>>>>>>>>>.000000000000..wwwwwwwww999wwwwwww.##2662222266622:::>>>>>>>>>>>>>>:::::::::::::",
">>>>>>>>>>>>>>>>>::::::>>>>-*oX7:::>:::>>>>>>..00000000000000.wwwwwwwww999wwwwwww.22222222222662>>::::>>>>>>>>>>>>>>>>>>>>>>>>",
">>>>>>>>>>>>::::::>>>>>>;==-*oX7>;==;::>>>>>..0000000000000000.wwwwwwwwww99wwwwwww..2222%%%.2222>>>>>:::>>>>>>>>>>>>>>>>>>>>>>",
">>>>>>>:::::>>>>>>>>>>>>=q,7-oX7>=q,7>>>>>>:.000000000000000000.wwwwwwwwwww9wwwwwwww..2%%%%.>=227>>>>>>>:::::::::::::::::>>>>>",
"::::::::>>>>>>>>>>>>>>>>=,,7-oX7>=,,7>>>>::..0000000000000000000.wwwwwwwwwwwwwwwwwwwww.....7>=,,7>>>>>>>>>>>>>>>>>>>>>>>::::::",
"-------------------------77-*oX7--77-------.000000000000000000000.wwwwwwwwwwwwwwwwwwwwwwww.7--77------------------------------",
"***--******--******-*******-*oX7***---***--.0000000000000000000000.......wwwwwwwwwwwwwwww..7-*******--*--********--*-*********",
"ooooooooooooooooooooooooooooooXooooooooooo..00000000000000000000000000000.................Xooooooooooooooooooooooooooooooooooo",
"XXXXXXXXXXXXXXXXXXXXXXXXXXXXXXXXXXXXXXXXXX.0000000000000000000000000000000000000000.XXXXXXXXXXXXXXXXXXXXXXXXXXXXXXXXXXXXXXXXXX",
"X77777777777777777777777777777777777777777.0000000000000000000000000000000000000000.7777777777777777777777777777777777777777oX",
"X7>>>>>:>>>>>>>>>>>>>>>>>>>>>>>>>>>>>>>>>>.0000000000000000000000000000000000000000.>>>>:::::::::::>>>>:::::::>>::::::::::-*oX",
"X7>>>>>::::>>>>>>>>>>>>>>>>>>>>:::::::>>>>.0000000000000000000000000000000000000000.::::>>>>>>>>>>>::::>>>>>>:::>>>>>>>>>>-*oX",
"X7>;==>>>>::::::::::::::::::::::>>>>>:::::.00000000000000000000000000000000000000000.>>>>>>>>>>>>>>>>>>>>>>>>>>>>>>>>>>;==-*oX",
"X7>=q,7>>>>>>>>>>>>>>>>>>>>>>>>>>>>>>>>>>>.00000000000000000005000000000000000000000.>>>>>>>>>>>>>>>>>>>>>>>>>:::::::::=q,7*oX",
"X7>=,,7>>>>>>>>>>>>>>>>>>>>>>>>>>>::::>>>>.000000000000000000.5000000000000000000000.>>>>>>>>>>>>>>>>>>>>>>::::>>>>>>>>=,,7*oX",
"X7>;77>>>>>>>>>>>>>>>>>>>>>>>>>>>>:>>:::::.00000000000000000..5000000000000000000000.::::::::>>>>>>>>>>>>:::>>>>>>>>>>>;77--oX",
"X7>>>>>>>>>>>>>>>>>>>>>>>>>>>>>>>>::>>>>>>.00000000000000000.55000000000000000000000.>>>>>>:::>>>>>>>>>:::>>>>>>>>>>>>>>>>--oX",
"X7>>>>>>>>>>>>>>>>>>>>>>>>>>>>>>>>>:::::>>.0000000000000000.500000000000000000000000.::::::>>>>>>>>>>:::>>>>>>>::::>>>>>>>-*oX",
"X7>>>>>::::::::::::::::::::>>>>>>>>>>>>:::.0000000000000000.500000000000000000000000.>>>>>>>>>>>>>>::>>>>>>>>::>>>:>>>>>>>-*oX",
"X7>>:::>>>>>>>>>>>>>>>>>>>>:::::>>>>>>>>>>.0000000000000000.500000000000000000000000.>>>>>>>>>>>:::>>>>>>::::>>>>:>>>>>>>>-*oX",
"X7:::>>>>>>>>>>>>>>>>>>>>>>>>>>>:::::::::>.0000000000000000.500000000000000000000000.>>>>>>>>:::>>>>>>>>::>>>>>::>>>>>>:::-*oX",
"X7:>>>>>::::::::::::::>>>>>>>>>>>>>>>>>>>:.000000000000000..500000000000000000000000.>>>:::::>>>>>>>>>::>>>>>>:>>>>>>:::>>--oX",
"X7>>>>>:>>>>>>>>>>>>>:::>>>>>>>>>>>>>>>>>>.000000000000000.5000000000000000000000000.:::>>>>>>>>>>>:::>>>>>>::>>>>>>::>>>>-*oX",
"X7>>>>:::::::::::::::::>>>>>>>>>>>>>>>>>>>.00000000000000..5000000000000000000000000.>>>>>>>>>>>:::>>>>>>>::>>>>>>>:>>>>>>--oX",
"X7:::>>>>>>>>>>>>>>>>>>>>>>>>::::::::::::>.00000000000000.5500000000000000000000000..>>>>>>>>>>::>>>>>::::>>>>>>>>::>>>>>>-*oX",
"X7:>>::::>>>>>>>>>>>>>>::::::>>>>>>>>>>>>:.00000000000000.5000000000000000000000....>>>>>>>>>>>:::::::>>>>>>>>>>>:>>>>>:::-*oX",
"X7>>>>>>>:::::::::::::::>>>>>>>>>>>>>>>>>>.0000000000000.........................11.>>>>>>>>>>>:>>>>>>>>>>>>>>>::>>>>>::>>-*oX",
"X7>;==;>>>>>>>>>>>>>>>>>>>>>>>>>>>>>>>>>>>.0000000000000.<<111111111111111111111111.>>>>>>>>>>>>>>>>>>>>>>>>:::>>>>>>:>;==-*oX",
"X7>=q,7>>>>>>>>>>>>>>>>>>>>>::::::::::::::.0000000000000.<<11111111111111111111111..::::>>>>>>>>>>>>>>>>>:::>>>>>>>>:>>=q,7*oX",
"X7>=,,7>>>>>>>>>>>>>>>>>>>:::>>>>>>>>>>>>>..00000000000...<11111111111111111111111.>>>>>:::::>>>>>>>>>:::>>>>>>>>>>:>>>=,,7*oX",
"X7--77-------------------------------------.00000000000.w.<<1111111111111111111111.-------------------------------------77-*oX",
"X7*********-----*********---*---***---*****.0000000000.ww.<<1111111111111111111111.---*********-***********-*----*********-*oX",
"Xooooooooooooooooooooooooooooooooooooooooo.....000000..www..<11111111111111111111..ooooooooooooooooooooooooooooooooooooooooooX",
"XXXXXXXXXXXXXXXXXXXXXXXXXXXXXXXXXXXXXXXXX..www........wwww.<<11111111111111111111.XXXXXXXXXXXXXXXXXXXXXXXXXXXXXXXXXXOOOXXXXXXX",
"77777oX7777777777777777777777777777777777.wwwwwwwwwwwwwwww.<<1111111111111111111..77777777777777777777777777777777777777777777",
">>>--oX7>>>>>>>>>::>>>>>::>>>>>>>>>>>>>:.wwwwwwwwwwwwwwwwww.<1111111111111111111.>>>>>:>>>>>>>:::>>>>>>>>>>>>>>>>>>>:>>>>>>>>>",
">>>-*oX7>>>>>>:::>>>>>>>>::::::::::::::>.wwwwwwwwwwwwwwwwww.<1111111111111111111.>>>>>>:::>>>>>>::::>>>>>>>>>>>>>>>>::>>>>>>>>",
";==--oX7>;==;:>>>>>>>>>>>>>>>>>>>>>>>>>>.wwwwwwwwwwwwwwwwww.<111111111111111111.::::::::::>>>>>>>>>>::::>>>>>>>>>>>>>>:::>>>>>",
"=q,7-oX7>=q,7>>>>>>>>>>>>>>>>>>>>>>>>>>>.wwwwwwwwwww.....ww.<11111111111111111..>>>>>>>>>>>>>>>>>>>>>>>>::::>>>>>>>>>>>>:::>>>",
"=,,7*oX7>=,,7>>>>>>>>>:::::::::::::::>>>.wwwwwwwwwwwwwwww..<<11111111111111111.>>>>>>>>>>>>>>>>>>>>>>>>>>>>>:::>>>>>>>>>>>::::",
";77-*oX7>;77>>>>>>>::::>>>>>>>>>>>>>>:::.wwwwwwwwwwwwwwwww.<<1111111111111111..>>>>>>>>>>>>>>>>>>>>>>>>>>>>>>>::::>>>>>>>>>>>>",
">>>-*oX7>>>>>>>>:::>>>>>>>>>>>>>>>>>>>>>.wwwwwwwwwwwwwwwwww.<111111111111111.:::::::::::::::::>>>>>>>>>>>>>>>>>>>>:::>>>>>>>>>",
">::-*oX7>>>>>:::>>>>>>>>>>>>>>>>>>>>>>>>>.wwwwwwwwwwwwwwwww.<11111111111111.>>>>>>>>>>>>>>>>>>:::>>>>>>>>>>>>>>>>>>>>::>>>>>>>",
"::>-*oX7>>::::>>>>>>>>>>::::::::::>>>>>>>.wwwwwwwwwwwwwwwww.<1111111111111..>>>>>>>>>>>>>>>>>>>>>:::>>>>>>>>>>>>>>>>>>>::>>>>>",
">>>-*oX7::>>>>>>>:::::::>>>>>>>>>:::::::>>.wwwwwwwwwwwwwwww.<111111111111..:::::::::::::::>>>>>>>>>>:::>>>>>>>>>>>>>>>>>::>>>>",
">>>-*oX7>>>>>>:::>>>>>>>>>:::::>>>>>>>>>::..wwwwwwwwwwwwww...11111111111.1.>>>>>>>>>>>>>>::::>>>>>>>>>>::::>>>>>>>>>>>>>>:::::",
">>>-*oX7>>>>>>:>>>>>>>>>>>>>>>>>>>>>>>>>>>>>..wwwwwwwwwwww.>.1111111111111.>>>>>>>>>>>>>>>>>:::>>>>>>>>>>>::::>>>>>>>>>>>>>>>:",
":::--oX7>>>>>>>:::::::::::::::::::::>>>>>>>>>>..wwwwwww...>>.1111111111111.:::::::>>>>>>>>>>>>:::>>>>>>>>>>>>>:::>>>>>>>>>>>>>",
">>>--oX7>>>>>>>>>>>>>>>>>>>>>>>>>>>>:::::::::>>>.......>>>>>>.111111111111.>>>>>>:::::>>>>>>>>>>:::>>>>>>>>>>>>>>:::>>>>>>>>>>",
">>>-*oX7:::>>>>>>>>>>>>>>>>>>>>>>>>>>>>>>>>>::::>>>>>>::::>>>.111111111111.>>>>>>>>>>>:::>>>>>>>>>>::>>>>>>>>>>>>>>>::::>>>>>>",
">>>-*oX7>>>:::::>>>>>>>>>>>>>>>>>>>>>>>>>>>>>>>>:::>>>>>>::::.111111111111.::::::::>>>>>:::::>>>>::::>>>>>>>>>>>>>>>>>>>::::::",
">>>-*oX7>>>>>>>>::::>>>>>>>>>>>>>>>>>>>>>>>>>>>>>>:::>>>>>>>:..11111111111.>>>>>>>>::::>>>>>:::::>>>>>>>>>>>>>>>>>>>>>>>>>>>>>",
";==-*oX7>;==>>>>>>>>::::::>>>>>>>>>>>>>>>>>>>>>>>>>>>::>>>>>>:.11111111111.;==...>>>>>>:::>>>>>>>>>>>>>>>>::::::::>>>>>>>>>>>>",
"=q,7*oX7>=q,7>>>>>>>>>>>>>::::::>>>>>>>>>>>>>>>>>>>>>>>:::::::.11111111111.....$..>>>>>>>:::::>>>>>>:::::::>>>>>>>::::::>>>>>>",
"=,,7*oX7>=,,7>>>>>>>>>>>>>>>>>>>::::::::>>>>>>>>>>>>>>>>>>>>...$$$$$$$$$$$.$$$$$$$.>>>>>>>>>>:::::::>>>>>>>>>>>>>>>>>>>:>>>>>>",
"-77-*oX7--77---------------------------::------------------.$$$$$$$$$$$$$$$$$$$$$$$.------------------------------------------",
"****-oX7**********---******--*---********-***********-****.$$$$$$$$$$$$$$$$$$$$$$$$$.*******--******************--**----****--",
"ooooooX@@@@ooooooooooooooooooooooooooooooooooooooooooooooo.$$$$$$$$$$$$$$$$$$$$$$$$$.ooooooooooooooooooooooooooooooooooooooooo",
"                                                          ............................                                        "
};
