/* XPM */
static char *_c0bdc61f9f249c387d39dc4a109b46bKxmKkRqUzxFw6zQj[] = {
/* columns rows colors chars-per-pixel */
"126 126 22 1 ",
"  c None",
". c black",
"X c #130F09",
"o c #221B10",
"O c #282013",
"+ c #39221A",
"@ c #372C1A",
"# c #610303",
"$ c #493A23",
"% c #4B3C25",
"& c #584427",
"* c #58462A",
"= c #5C492C",
"- c #6B5737",
"; c #6A6A6A",
": c #B72D01",
"> c #AC5D2F",
", c #967D57",
"< c #B99A6E",
"1 c #E6905D",
"2 c #A8A6A0",
"3 c #E8C798",
/* pixels */
",,,,,,,,,,,,,,,,,,,,,,,,,,,,,oX,,,,,,,,,,,,,,,,,,,,,,,,,,,,,,,,,,,,,,,,,,,,,,,,,,,,,,,,,,oX,,,,,,,,,,,,,,,,,,,,,,,,,,,,,,,,,,,",
"---------------------------&$oX,--------=---------------------==-----------------------&$oX,---=--------------------------==--",
"-------------==============&$oX,=-------===---------------------==========-------------&$oX,---===-----------------------==---",
"---------=====-----------*%%&oX,==*%%*----===-----------------------------======-----*%%&oX,-*%%*==---------------------==----",
"------====---------------%2;,oX,--%2;,=------=======---------------------------======%2;,oX,-%2;,-==-----------------===------",
"--=====------------------%;;,oX,--%;;,===-----------============---------------------%;;,oX,-%;;,--==-------------===---------",
"==----------=====---------,,$oX,---,,----=----------------------=======---------------,,$oX,-*,,----==-------=====----------==",
"----------==----=======----&$oX,---------==----------------------------======----------&$oX,----------=======------------====-",
"-----------===---------====&$oX,--------==---------------............--------=====-----&$oX,-------------------------====-----",
"-------------==------------&$oX,----====----------===....++++++++++++....---------===--&$oX,=----------------------===--------",
"---------------==----------&$oX,====---------=====-..++++++++++++++++++++..----------==&$oX,====--------------=====-----------",
"-----------------==--------&$oX,----------===---...++++++++++++++++++++++++...=--------&$oX,---================---------------",
"==----------------==-------&$oX,--------===----.++++++++++++++++++++++++++++++.==------&$oX,-------------------------------===",
"-======-------------=------&$oX,-----===-----..++++++++++++++++++++++++++++++++..===---&&oX,--------------------------=====---",
"------=====----------==----&$oX,---===-----=.++++++++++++++++++++++++++++++++++++.-===-&$oX,---------------------======-------",
"-----------====-------==---&&oX,====-----==.++++++++++++++++++++++++++++++++++++++.--==&$oX,-----------------=====------------",
"---------------===------==-&$oX,---------=.++++++++++++++++++++++++++++++++++++++++.---&$oX,-------------====-----------------",
"====--------------==-----=-&$oX,---------.++++++++++++++++++++++++++++++++++++++++++.--&$oX,-----------===--------------======",
"----==--------------==----=&$oX,--------.++++++++++++++++++++++++++++++++++++++++++++.-&&oX,---------===-----------=====------",
"------===-------------=--*%%&oX,--*%%--.++++++++++++++++++++++++++++++++++++++++++++++.%&oX,--%%---===----------====----------",
"---------===----------==-%2;,oX,--%2;,.++++++++++++++++++++++++++++++++++++++++++++++++.,oX,-%2;,-==--------====--------------",
"-----------==----------==%;;,oX,--%;;.++++++++++++++++++++++++++++++++++++++++++++++++++.oX,-%;;,==--------==-----------------",
"&&&&&&&&&&&&&&&&&&&&&&&&&&,,&oX,&&&,,.++++++++++++++++++++++++++++++++++++++++++++++++++.oX,&&,,&&&&&&&&&&&&&&&&&&&&&&&&&&&&&&",
"$$$$$&&$$$$$$$$$&&$$$&$$$$$$$oX,&&&&.++++++++++++++++++++++++++++++++++++++++++++++++++++.X,$$$$$$$$$$$$&&&$$$$$$$$$$&&&&$$$$$",
"ooooooooooooooooooooooooooooooXoooo.++++++++++++++++++++++++++++++++++++++++++++++++++++++.oooooooooooooooooooooooo@@@oooooooo",
"XXXXXXXXXXXXXXXXXXXXXXXXXXXXXXXXXXX.++++++++++++++++++++++++++++++++++++++++++++++++++++++.XXXXXXXXXXXXXXXXXXXXXXXXXXXXXXXXXXX",
"X,,,,,,,,,,,,,,,,,,,,,,,,,,,,,,,,,,.++++++++++++++++++++++++++++++++++++++++++++++++++++++.,,,,,,,,,,,,,,,,,,,,,,,,,,,,,,,,,oX",
"X,-----=--------------------------.++++++++++++++++++++++++++++++++++++++++++++++++++++++++.=======----=======--==========&$oX",
"X,-----====--------------------===.++++++++++++++++++++++++++++++++++++++++++++++++++++++++.-------====------===----------&$oX",
"X,-*%%----======================-..++++++++++++++++++++++++++++++++++++++++++++++++++++++++..--------------------------*%%&$oX",
"X,-%2;,--------------------------.3++++++++++++++++++++++++++++++++++++++++++++++++++++++++3.-----------------=========%2;,$oX",
"X,-%;;,--------------------------.3<<<++++++++++++++++++++++++++++++++++++++++++++++++++<<<3.--------------====--------%;;,$oX",
"X,-*,,---------------------------.3333<<<++++++++++++++++++++++++++++++++++++++++++++<<<3333.------------===-----------*,,&&oX",
"X,------------------------------.33333333<<<<<<++++++++++++++++++++++++++++++++<<<<<<33333333.---------===----------------&&oX",
"X,------------------------------.33333333333333<<<<<<++++++++++++++++++++<<<<<<33333333333333.-------===-------====-------&$oX",
"X,-----====================-----.33333333333333333333<<<<<<<<<<<<<<<<<<<<33333333333333333333.-----==--------==---=-------&$oX",
"X,--===--------------------=====.333333333333333333333333333333333333333333333333333333333333.--===------====----=--------&$oX",
"X,===---------------------------.333333333333333333333333333333333333333333333333333333333333.==--------==-----==------===&$oX",
"X,=-----==============----------.333333333333333333333333333333333333333333333333333333333333.--------==------=------===--&&oX",
"X,-----=-------------===--------.333333333333333333333333333333333333333333333333333333333333.-----===------==------==----&$oX",
"X,----=================---------.333333333333333333333333333333333333333333333333333333333333.--===-------==-------=------&&oX",
"X,===------------------------===.333<3333333333333333333333333333333333333333333333333333<333.-==-----====--------==------&$oX",
"X,=--====--------------======---.3333<33333333333333333333333333333333333333333333333333<3333.-=======-----------=-----===&$oX",
"X,-------===============--------.3333<<333333333333333333333333333333333333333333333333<<3333.-=---------------==-----==--&$oX",
"X,-*%%*-------------------------.33<33<333333333333333333333333333333333333333333333333<33<33.--------------===------=-*%%&$oX",
"X,-%2;,---------------------=====.3<<3<333333333333333333333333333333333333333333333333<3<<3.------------===--------=--%2;,$oX",
"X,-%;;,-------------------===----.33<3<333333333333333333333333333333333333333333333333<3<33.---------===----------=---%;;,$oX",
"X,&&,,&&&&&&&&&&&&&&&&&&&&&&&&&&&.33<3<333333333333333333333333333333333333333333333333<3<33.&&&&&&&&&&&&&&&&&&&&&&&&&&&,,&$oX",
"X,$$$$$$$$$&&&&&$$$$$$$$$&&&$&&&$.33<3<333333333333333333333333333333333333333333333333<3<33.$$&$$$$$$$$$$$&$&&&&$$$$$$$$$&$oX",
"Xooooooooooooooooooooooooooooooooo.333<333333333333333333333333333333333333333333333333<333.oooooooooooooooooooooooooooooooooX",
"XXXXXXXXXXXXXXXXXXXXXXXXXXXXXXXXXX.333<333333333333333333333333333333333333333333333333<333.XXXXXXXXXXXXXXXXXXXXXXXXXXXXXXXXXX",
",,,,,,,,,,,,,,,,,,,,,,,,,,,,,oX,,,,.3<<333333333333333333333333333333333333333333333333<<3.,,,,,,,,,,,,,,,,,,,,,,,,,,,,,,,,,,,",
"----------------=----------&$oX,---.3<<333333333333333333333333333333333333333333333333<<3.,=---------------------------------",
"-----------------==--------&$oX,---.<<33333333333333333333333333333333333333333333333333<<.,-========-------------------------",
"------------------==----*%%&&oX,-*%.333333333333333333333333333333333333333333333333333333.,-*%%----===================-------",
"----------====------===-%2;,&oX,-%2;.3333333333333333333333333333333333333333333333333333.X,-%2;,---------------------=====---",
"===========--===------==%;;,$oX,-%...3333333333333333333333333333333333333333333333333333...-%;;,-------------------------====",
"---------------===-------,,&$.....111.33333333333333333333333333333333333333333333333333.111.....-----------------------------",
"-----------------===-------..111111111.333333333333333333333333333333333333333333333333.111111111..--------===========--------",
"-------=========----==----.111111111111.3333333333333333333333333333333333333333333333.111111111111.--=====-----------====----",
"========-------==-----===.11111111111111.33333333333333333333333333333333333333333333.11111111111111.-==--------==--------====",
"-------------===--------.1111111111111111.333333333333333333333333333333333333333333.1111111111111111.--====------====--------",
"===-------====---------..11111111111111111..33333333333333333333333333333333333333..11111111111111111..-----====------------==",
"--------===-----------..1111111111111111111...3333333333333333333333333333333333...1111111111111111111..--------========------",
"========----------====.11111111111111111111111...3333333333333333333333333333...11111111111111111111111.=---------------======",
"--------------=====--..11111111111111111111111111...3333333333333333333333...11111111111111111111111111..==-------------------",
"----------====-------.11111111111111111111111111111.......3333333333.......11111111111111111111111111111.--======-------------",
"==========-----------.111111111111111111111111111111111111..........111111111111111111111111111111111111.--------=============",
"-----------------===..1111111111111111111111111111111111111111111111111111111111111111111111111111111111..--------------------",
"------------======--.111111111111111111111111111111111111111111111111111111111111111111111111111111111111.--------------------",
"-------=====--------.111111111111111111111111111111111111111111111111111111111111111111111111111111111111.===============-----",
"========------------.111111111111111111111111111111111111111111111111111111111111111111111111111111111111.--------------======",
"&&&&&&&&&&&&&&&&&&&&.111111111111111111111111111111111111111111111111111111111111111111111111111111111111.&&&&&&&&&&&&&&&&&&&&",
"$$$&&$$$$$$&&$$$$$$&.111111111111111111111111111111111111111111111111111111111111111111111111111111111111.$$$$$$$&&$&$$$$$$$$$",
"oooooooooooooooooooo.1111111111111111111>11111111111111111111111111111111111111111111>1111111111111111111.oooooooooooooooooooo",
"XXXXXXXXXXXXXXXXXXXX.111111111111111111.>11111111111111111111111111111111111111111111>.111111111111111111.XXXXXXXXXXXXXXXXXXXX",
"X,,,,,,,,,,,,,,,,,,,.11111111111111111..>11111111111111111111111111111111111111111111>..11111111111111111.,,,,,,,,,,,,,,,,,,oX",
"X,-----=------------.11111111111111111.>>11111111111111111111111111111111111111111111>>.11111111111111111.====--==========&$oX",
"X,-----====---------.1111111111111111.>111111111111111111111111111111111111111111111111>.1111111111111111.---===----------&$oX",
"X,-*%%----==========.1111111111111111.>111111111111111111111111111111111111111111111111>.1111111111111111.-------------*%%&$oX",
"X,-%2;,-------------.1111111111111111.>111111111111111111111111111111111111111111111111>.1111111111111111.----=========%2;,$oX",
"X,-%;;,-------------.1111111111111111.>111111111111111111111111111111111111111111111111>.1111111111111111.-====--------%;;,$oX",
"X,-*,,--------------.111111111111111..>111111111111111111111111111111111111111111111111>..111111111111111.==-----------*,,&&oX",
"X,------------------.111111111111111.>11111111111111111111111111111111111111111111111111>.111111111111111.----------------&&oX",
"X,------------------.11111111111111..>11111111111111111111111111111111111111111111111111>..11111111111111.-----====-------&$oX",
"X,-----=============.11111111111111.>>11111111111111111111111111111111111111111111111111>>.11111111111111.---==---=-------&$oX",
"X,--===-------------.11111111111111.>1111111111111111111111111111111111111111111111111111>.11111111111111.===----=--------&$oX",
"X,===---------------.1111111111111.>>1111111111111111111111111111111111111111111111111111>>.1111111111111.-----==------===&$oX",
"X,=-----============.1111111111111.>111111111111111111111111111111111111111111111111111111>.1111111111111.----=------===--&&oX",
"X,-----=------------.1111111111111.>>1111111111111111111111111111111111111111111111111111>>.1111111111111.--==------==----&$oX",
"X,----==============..11111111111...>1111111111111111111111111111111111111111111111111111>...11111111111..==-------=------&&oX",
"X,===----------------.11111111111.3.>1111111111111111111111111111111111111111111111111111>.3.11111111111.=--------==------&$oX",
"X,=--====------------.1111111111.33.>1111111111111111111111111111111111111111111111111111>.33.1111111111.--------=-----===&$oX",
"X,-------===========.....111111..333......................................................333..111111.....-----==-----==--&$oX",
"X,-*%%*------------..333........333.::::::::::::::::::::::::::::::::::::::::::::::::::::::.333........333..-===------=-*%%&$oX",
"X,-%2;,------------.333333333333333.::::::::::::::::::::::::::::::::::::::::::::::::::::::.333333333333333.=--------=--%2;,$oX",
"X,-%;;,-----------.3333333333333333.::::::::::::::::::::::::::::::::::::::::::::::::::::::.3333333333333333.-------=---%;;,$oX",
"X,&&,,&&&&&&&&&&&&.3333333333333333..::::::::::::::::::::::::::::::::::::::::::::::::::::..3333333333333333.&&&&&&&&&&&&,,&$oX",
"X,$$$$$$$$$&&&&&$$.33333333333333333.::::::::::::::::::::::::::::::::::::::::::::::::::::.33333333333333333.$&&&&$$$$$$$$$&$oX",
"Xooooooooooooooooo.33333333333.....3.::::::::::::::::::::::::::::::::::::::::::::::::::::.3.....33333333333.oooooooooooooooooX",
"XXXXXXXXXXXXXXXXXX.3333333333333333..:::::::::::::::::::::::::..:::::::::::::::::::::::::..3333333333333333.XXXXXXXXOOOXXXXXXX",
",,,,,oX,,,,,,,,,,,.33333333333333333.:::::::::::::::::::::::::..:::::::::::::::::::::::::.33333333333333333.,,,,,,,,,,,,,,,,,,",
"---&&oX,---------=.333333333333333333.:::::::::::::::::::::::....:::::::::::::::::::::::.333333333333333333.--------=---------",
"---&$oX,------===--.33333333333333333.::::::::::::::::::::....--....::::::::::::::::::::.33333333333333333.---------==--------",
"*%%&&oX,-*%%*=-----.33333333333333333..::::::::::::::::::..--===---..::::::::::::::::::..33333333333333333.-----------===-----",
"%2;,&oX,-%2;,-------.3333333333333333..::::::::::::::::::.-----====%.::::::::::::::::::..3333333333333333.==------------===---",
"%;;,$oX,-%;;,-------..33333333333333.-..:::::::::::::::::.---------%.:::::::::::::::::..-.33333333333333..--===-----------====",
"*,,&$oX,-*,,-------===..333333333333.==.:::::::::::::::::.=---------.:::::::::::::::::.--.333333333333..------====------------",
"---&$oX,--------===-----..3333333...---..::::::::::::::::.===-------.::::::::::::::::..===...3333333..------------===---------",
"-==&$oX,-----===----------.......-------.::::::::::::::::.---=====--.::::::::::::::::.-------.......-----------------==-------",
"==-&$oX,--====----------==========------.::::::::::::::::.-------===.::::::::::::::::.-----------===-------------------==-----",
"---&$oX,==-------=======---------=======..:::::::::::::::.----------.:::::::::::::::..====----------===-----------------==----",
"---&$oX,------===---------=====---------=.:::::::::::::::.===-------.:::::::::::::::.----====----------====--------------=====",
"---&$oX,------=--------------------------.:::::::::::::::.--=====---.:::::::::::::::.-------===-----------====---------------=",
"===&&oX,-------=====================-----.:::::::::::::::.------====.:::::::::::::::.---------===-------------===-------------",
"---&&oX,----------------------------=====.::::::::::::::..----------..::::::::::::::.=----------===--------------===----------",
"---&$oX,===------------------------------.::::::::::::::.=-----------.::::::::::::::.-===----------==---------------====------",
"---&$oX,---=====--------------------------.:::::::::::::.====--------.:::::::::::::.----=====----====-------------------======",
"---&$oX,--------====----------------------.:::::::::::::.---==-------.:::::::::::::.===-----=====-----------------------------",
"*%%&$oX,-*%%--------======----------------.:::::::::::::.----=------%.:::::::::::::.---===----------------========------------",
"%2;,$oX,-%2;,-------------======----------.:::::::::::::.=====-----%2.:::::::::::::.-----=====------=======-------======------",
"%;;,$oX,-%;;,-------------------========...:::::::::::::...--------...:::::::::::::...-------=======-------------------=------",
"&,,&$oX,&&,,&&&&&&&&&&&&&&&&&&&&&&&&&&..##.:::::::::::::.#.&&&&&&&&.#.:::::::::::::.##..&&&&&&&&&&&&&&&&&&&&&&&&&&&&&&&&&&&&&&",
"$$$$&oX,$$$$$$$$$$&&&$$$$$$&&$&&&$$$$.####.:::::::::::::.##.$$$$&&.##.:::::::::::::.####.$$$&&$$$$$$$$$$$$$$$$$$&&$$&&&&$$$$&&",
"ooooooX@@@@ooooooooooooooooooooooooo.#####.:::::::::::::.##.oooooo.##.:::::::::::::.#####.oooooooooooooooooooooooooooooooooooo",
"                                    ........................      ........................                                    "
};
