/* XPM */
static char *result[] = {
/* columns rows colors chars-per-pixel */
"126 126 11 1 ",
"  c #41231D",
". c #4E2923",
"X c #683931",
"o c #7D4940",
"O c #824C42",
"+ c #864C42",
"@ c #93564B",
"# c #9D5E53",
"$ c #A05D51",
"% c #A86154",
"& c #B98076",
/* pixels */
"@@@@@@##@@###############@@@@. &@@@@@################@@@@@@@@@@@##############@@@@@@@@@@@. &@@@@@@@@@@@@@@@@@@@@############@@",
"@@####################@@@@@@@. &@@@###@@##########@@@@@@@@@@@@@@@@@@@@@@@@@@@@@@@@@@@@@@@. &@@@@@@@@@@@@@@@#########@#####@@@@",
"@@@@@@@@@@@@@@@@@@@@@@@@@@@@@. &@@@@@@@###@@@@@@@@@@@@@@@@@@@@@@@@@@@@@@@@@@@@@@@@@@@@@@@. &@@@@@@@@@@@@@@@@@@@@@@@@@@@@@@@@@@",
"@@@@@@@@@@@@@@@@@@@@@@@@@@@@@. &@@@@@@@@@@@@@@@@@@@@@@@@&  @@@@@@@@@@@@@@@@@@@@@@@@@@@@@@. &@@@@@@@@@@@@@@@@@@@@@@@@@@@@@@@@@@",
"@@@@@@@@@@@@@@@@@@@@@@@@@@@@.  &@@@@@@@@@@@@@@@@@@@@@@@@@&  @@@@@@@@@@@@@@@@@@@@@@@@@@@@@. &@@@@@@@@@@@@@@@@@@@@@@@@@@@@@@@@@@",
"@@@@@@@@@@@@@@@@@@@@@@@@@@@.   &@@@@@@@@@@@@@@@@@@@@@@@@@&    @@@@@@@@@@@@@@@@@@@@@@@@@@@   @@@@@@@@@@@@@@@@@@@@@@@@@@@@@@@@@@",
"@@@@@@@@@@@@@@@@@@@@@@@@@@.    &@@@@@@@@@@@@@@@@@@@@@@@@@@&     @@@@@@@@@@@@@@@@@@@@@@@@@   @@@@@@@@@@@@@@@@@@@@@@@@@@@@@@@@@@",
"..........................     ............................       ......................     .................................",
"                                                                                                                              ",
" &&&&&&&&&&&&&&&&&&&&&&&&&&&&&&&&&&&&&&&&&&&&&&&&&&&&&&&&&&. &&&&&&&&&&&&&&&&&&&&&&&&&&&&&&&&&&&&&&&&&&&&&&&&&&&&&&&&&&&&&    ",
" &@@@@@@@@@@@@@@@@@@@@@@@@@@@@@@@@@@@@@@@@@@@@@@@@@@@@@@@@@. &@@@@@@@@@@@@@@@@@@@@@@@@@@@@@@@@@@@@@@@@@@@@@@@@@@@@@@@@@@@@&   ",
" &@@@@@@@@@@@@@@@@@@@@@@@@@@@@@@@@@@@@@@@@@@@@@@@@@@@@@@@@@. &@@@@@@@@@@@@@@@@@@@@@@@@@@@@@@@@@@@@@@@@@@@@@@@@@@@@@@@@@@@@@&  ",
" &@@@@@@@@@##################@@@@@@@@@@@@@@@@@@@@@@@@@@@@@@. &@@@@@@@@@@@@@@@@@@@@@@@@@@@@@@@@@@@@@@@@@@@@@@@@@@@@@@@@@@@@@@. ",
" &@@@@@####@@@@##############@@@@@@@@@@@@@@@@@@@@@@@@@@@@@@. &@@@@@@@@@@@@@@@@@@@@@@@@@@@@@@@@@@@@@@@@@@@@@@@@@@@@@@@@@@@@@@. ",
" &@@@@@@@@@@@@@@@@@@#####################@@@@@@@@@@@@@@@@@@. &@@@@@@####@@@@@@@@@@@@@@@@@@@@@@@@@############@@@@@@@@@@@@@@@. ",
" &@@@@@@@@@@@@@@@@@@@@@@@@@@@@@@@#######@@@@@@@##########@@. &@@@@@@@@@############@@@@@@@@@@@@@@@@@@##########@@@@@@@@@@@@@. ",
" &@@@@@@@@@@@@@@@@@@@@@@@@@@@@@@@@@@@@#################@@@@. &@@@@@@#############@@@@@@@@@@@@@@@@@@#############@@@@@@@@@@@@. ",
" &@@@@@@@@@@@@@@@@@@@@@@@@@@@@@@@@@@######@##############@@. &@@@#################@@@@@@@@@@@@@@@@#########@@@@@@@@@@@@@@@@@. ",
" &@@@@@@@@@@@@@@@@@@@@@@@@@@@@@@@@##############@@@@@@@@@@@. &@@@@@@@@@@@######@@@@@@@@@##########@@@@@@@@@@@@@@@@@@@@@@@@@@. ",
" &@@@@@@@@@@@@@@@@@@@@##########@@@@@@@@@@@@@@@@@@@@@@@@@@@. &@@@@@@@@@@@#############@#############@@@@@@@@@@@@@@@@@@@@@@@@. ",
" &@@@@@@@@@@@@@@@@@@@@@#######@@@@@@@@@@@@@@@@@@@@@@@@@@@@@. &@@@@@@@@@#########@@@@@##@@@@@@@@@@@@@@@@@@@@@@####@@@@@@@@@@@. ",
" &@@@@@@@@@@@@@@@@@@@###########@@@@@##########@@@@@@@@@@@@. &@@@@@@#############@@@@@@@@@@@@@@@@@@@@@@@@#####@@@@@@@@@@@@@@. ",
" &@@@@@@@@@@@@@@@@@@@@@@@@@#####@############@@@@@@@@@@@@@@. &@@@@@@##############@@@@@@@@@@@@@@@@@@@@###$$$####@@@@@@@@@@@@. ",
" &@@@@@@@@@@########@@@@@@############@@@@@@@@@@@@@@@@@@@@@. &@@@@@@@@@@@@@@@@@@@@@@@@@@@@@@@@@@@@############$$####@@@@@@@@. ",
" &@@@@@@############@@@@@@@@@@@@@@@@@@@@@@@@@@@@@@@@@@@@@@@. &@@@@@@@@@@@@@@@@@@@@@@@@@@@@@@@######################@@@@@@@@@. ",
" &@@@@@@@#############@@@@@@@@@@@@@@@@@@@@@@@@@@@@@@@@@@@@@. &@@@@@@@@@@@@@@@@@@@@@@@@@@%%%%%@@@@@@@@@###############@@@@@@@. ",
" &@@@@@##@@@@@@#######@@@@@@@@@@@@@@@@@@@@@@@@@@@@@@@@@@@@@. &@@@@@@@@@@@@@@@@@@@@@@@@@@@@@@@@@@@@@@@@@@@@@@@####@@@@@@@@@@@. ",
" &@@@@@#############################@@@@@@@@@@@@@####@@@@@@. &@@@@@@@@@@@@@@@@@@@@@@@@@@@@@@@@@@@@@@@@#########@@@@@@@@@@@@@. ",
" &@@@@@@#@@@@@@@@@@@@@@@@@@@@@@@@################@@@@@@@@@@. &@@@@@@@@@@@@@@@@@@@@@@@@@@@@@@@@@@@@@@@@#######@@@@@@@@@@@@@@@. ",
" &@@@@@@@@@@@@@@@@@@@@@@@@@@@@@@@@@@@@@@@@@@@@@@@@@@@@@@@@@. &@@@@@@@@@@@@@@@@@@@@@@@@@@@@@@@@@@@@@@@@@@@@@@@@@@@@@@@@@@@@@@. ",
" &@@@@@@@@@@@@@@@@@@@@@@@@@@@@@@@@@@@@@@@@@@@@@@@@@@@@@@@@@. &@@@@@@@@@@@@@@@@@@@@@@@@@@@@@@@@@@@@@@@@@@@@@@@@@@@@@@@@@@@@@@. ",
" &@@@@@@@@@@@@@@@@@@@@@@@@@@@@@@@@@@@@@@@@@@@@@@@@@@@@@@@@@. &@@@@@@@@@@@@@@@@@@@@@@@@@@@@@@@@@@@@@@@@@@@@@@@@@@@@@@@@@@@@@@. ",
"  .......................................................... ................................................................ ",
"                                                                                                                              ",
"&&&&&&&&&&&&&&&&&&&&&&&&&&&&.   .&&&&&&&&&&&&&&&&&&&&&&&&&&&&+OOOOOOOOOOOOOOOOOOOOOOOOOOO. OOOOOOOOOOOOOOOOOOOOOOOOOOOOOOOOOO+",
"@@@@@@@@@@@@@@@@@@@@@@@@@@@@@. .@@@@@@@@@@@@@@@@@@@@@@@@@@@@@@++OOOOOOOOOOOOOOOOOOOOOOOOO. OOOOOOOOOOOOOOOOOOOOOOOOOOOOOOOOO+@",
"@@@@@@@@@@@@@@@@@@@@@@@@@@@@@. &@@@@@@@@@@@@@@@@@@@@@@@@@@@@@@@@+++++++++++++++++++++++++. +++++++++++++++++++++++++++++++++@@",
"@@@@@@@@@@@@@@@@@@@@@@@@@@@@@. &@@@@@@@@@@@@@@@@@@@@@@@@@@@@@@@@@@@@@@@@@@@@@@@@@@@@@@@@@. &@@@@@@@@@@@@@@@@@@@@@@@@@@@@@@@@@@",
"@@@@@@@@@@@@@@@@@@@@@@@@@@@@@. &@@@@@@@@@@@@@@@@@@@@@@@@@@@@@@@@@@@@@@@@@@@@@@@@@@@@@@@@@. &@@@@@@@@@@@@@@@@@@@@@#############",
"############@@@@@@@@@###@@@@@. &@@@@@@@####@@##@@@@@@###########@@@@@@@@@@@@@@@@@@@@@@@@@. &@@@#########@@@@@@@@@@@@##########",
"#############@@@@@###@@@@@@@@. &@@@@@@##@@@@#@@@@@@@###############@@@@@@#########@@@@@@@. &@@@@@###@@@@@@####################",
"@@@@@@@@@@@@@##@#####@@@@@@@@. &@@@@##@@@@##@@@@@@@@@@###############@@@#########@@@@@@@@. &@@@@@##@@@@@@@@@########@@@@@@@@@@",
"@@@@@@@@@@@@@####@@@@###@@@@@.  @@@@########@@@@@@@#####################@@####@@@@@@@@@@@. &@@###@@@@@@@@@@@@@@@@@####@@@@@@@@",
"@@@##########@@@@@@@##@@@@@@@.  @@@@@@######@@@@@@##################################@@@@@. &@@@@@@@@@@@@##########@@@@@@@@@@@@",
"####################@@@@@@@@@.   @@@@####@@@@@######@@@@@@@@@@@@#######@@######@@@@@@@@@@. &@@@@@@@@@@@@@@########@@@@@@@@@@@@",
"@@@@@@@@################@@@@@. &  @@@@@@@@@@@#@@@@@@@@@@@@@@@@@@@@@@@@@@@@@@@@@@@@@@@@@@@. &@@@@@@@@@@@@@@@@@@@###@@@@@@@@@@@@",
"@@@#######@@@@@@@#######@@@@@. &&&@@@@@@@@@@@@@@@@@@@@@@#########@@@@@@@@@@@@@@@@@@@@@@@@. &@@@@@@@@@@@@@@#####@@@@@@@@@######",
"@@@@@@@###@@@####@@@@#####@@@. &@@@####@@@@@@@@@@@@@@@@@@@@@@@@@@#######@@@@######@@@@@@@. &@@@@@@@@@@@@@@@@@@@#####@#########",
"@@#####@@@@@#############@@@@. &@@##@####@@@@@@@@@@@@@@@#@@@@@@@@@@@@@@@####@@@@@@@@@@@@@. &@@@@@@@@@@@#######################",
"##@@############@@@@@@@@@@@@@. &@@######@@@@@@@@@@#################@@@@@@@@@@@@@@@@@@@@@@. &@@@@@@@@@@@@@@@@@@@@@@@@@@@@@@@###",
"########@@@@@@@@@@@@@@@@@@@@@. &@@@@@@@@####@########@@@@@@###########@@@@@@@@@####@@@@@@. &@@@##@@@@@@@@@@@@@@@@@@@@@@@######",
"############@@@@@@@@@@@@@@@@@. &@@@@@####@@@#@@@@@@###########@@@@@@@@@@@@@#####@@@@@@@@@. &@@@@@######@@@@@@@@@@@@@@@@@@#####",
"####@@@@@@@@@@@@@@@@@@@@@@@@@. &@@@@@@#####################@@@@@@##############@@@@@@@@@@. &@@@@@#######@@@@@@@@@@@@@@@@@@@@@@",
"@@@@@@@@@@@@@@@@@@@@@@@@@@@@@. &@@@@@@@@@@@@@@@@@@@@@@@@@@@@@@@@#####@@@@@@@@@@@@@@@@@@@@. &@@@@@@@@#########@@@@@@@@@@@@@@@@@",
"@@@@@@@@@@@@@@@@@@@@@@@@@@@@@. &@@@@@@@@@@@@@@@@@@@@@@@@@@@@@@@@@@@@@@@@@@@@@@@@@@@@@@@@@..&@@@@@@@@@@@@@@@@@@@@@@@@@@@@@@@@@@",
"@@@@@@@@@@@@@@@@@@@@@@@@@@@@@. &@@@@@@@@@@@@@@@@@@@@@@@@@@@@@@@@@@@@@@@@@@@@@@@@@@@@@@@@@. .@@@@@@@@@@@@@@@@@@@@@@@@@@@@@@@@@@",
"@@@@@@@@@@@@@@@@@@@@@@@@@@@@@. &@@@@@@@@@@@@@@@@@@@@@@@@@@@@@@@@@@@@@@@@@@@@@@@@@@@@@@@@.   .@@@@@@@@@@@@@@@@@@@@@@@@@@@@@@@@@",
".............................. .........................................................     .................................",
"                                                                                                                              ",
"  XXXXXXXXXXXXXXXXXXXXXXXXXXXXXXXXXXXXXXXXXXXXXXXXXXXXXXXXX. &&&&&&&&&&&&&&&&&&&&&&&&&&&&&&&&&&&&&&&&&&&&&&&&&&&&&&&&&&&&&&&. ",
" XXXXXXXXXXXXXXXXXXXXXXXXXXXXXXXXXXXXXXXXXXXXXXXXXXXXXXXXXX. &@@@@@@@@@@@@@@@@@@@@@@@@@@@@@@@@@@@@@@@@@@@@@@@@@@@@@@@@@@@@@@. ",
" X@@@@@@@@@@@@@@@@@@@@@@@@@@@@@@@@@@@@@@@@@@@@@@@@@@@@@@@@X. &@@@@@@@@@@@@@@@@@@@@@@@@@@@@@@@@@@@@@@@@@@@@@@@@@@@@@@@@@@@@@@. ",
" X@@@@@@@@@@@@@@@@@@@@@@@@@@@@@@@@@@@@@@@@@@@@@@@@@@@@@@@@X. &@@@@@@@@@@@@@@@@@@@@@@@@@@@@@@@@@@@@@@@@@@@@@@@@@@@@@@@@@@@@@@. ",
" X@@@@@@@@@@@@@@@@@@@@@@@@@@@@@@@@@@@@@@@@@@@@@@@@@@@@@@@@X. &@@@@@@@###################@@@@@@@@@@@@@@@@@@@@@@@@@@@@@@@@@@@@. ",
" X@@@@@@@@@@@@@@@@@@@@@@@@@@@@@@@@@@@@@@@@@@@@@@@@@@@@@@@@X. &@@#############@@@@@@@@@@@@@@@@@@@#################@@@@@@@@@@@. ",
" X@@@@@@@@@@@@@@@@@@@@@@@@@@@@@###############@@@@@@@@@@@@X. &@@@##################@@############################@@@@@@@@@@@. ",
" X@@@@@@@@@@@@@@@@@@@@@@@@@@@@@@@@@##########@@@@@@@@@@@@@X. &@@@@@@@@@@#############@@@@@@@@@@@@@@@@@@@@@@@@@@@@@@@@@@@@@@@. ",
" X@@@@@@@@@############@@@@@@@@@#####@@@@@@@@@@@@@@@@@@@@@X. &@@@@@#########################@@@@@@@@@@@@@@@@@@@@@@@@@@@@@@@@. ",
" X@@@@#####################@@@##########@@@@@@@@@@@@@@@@@@X. &@@@@@@@@@@@@@@@@@@@@@@@@@@@@@@@@@@@@@@@@@@@@@@@@@@@@@@@@@@@@@@. ",
" X@@@@@@@@@@##################@@@@@@@@@@@@@@@@@@@@@@@@@@@@X. &@@@@@@@@@@@@@@@@@@@@@@@@@@@@@@@@@@@@#############@@@@@@@@@@@@@. ",
" X@@@@@@@@#############@@@@@@@@@@@@@@@@@@@@@@@@@@@@@@@@@@@X. &@@@@@@@@@@@@@@@@@@@@@@@@@@@@@@@@@@@###@@@@@@@@####@@@@@@@@@@@@. ",
" X@@@@@@#######@@@@@@@@@@@@@@@@@@@@@@@@#####@@@@@@@@@@@@@@X. &@@@@@@@@@@@@@@@@@@@@@@@@@@@@@@@@@################@@@@@@@@@@@@@. ",
" X@@@@@@@@@@@@@@@@@@@@@@@@@@@@@@#################@@@@@@@@@X. &@@@@@@@@@@@@@@@@@@@@@@@@@@@@@@@###@##@@@@@########@@@@@@@@@@@@. ",
" X@@@@@@@@@@@@@@@@@@@@@@@@@@@@##################@@@###@@@@X. &@@@@@@@@@@@@@@@@@@@@@@@@###################@@@@@@@@@@@@@@@@@@@. ",
" X@@@@@@@@@@@@@@@@@@@@@@@@@@@@@####################@@@@@@@X. &@@@@@@@@@@@@@@@@@@@@@@@@@@@@@@@@@@############@@@@@@@@@@@@@@@@. ",
" X@@@@@@@@@@@@@@@@@@@@@@@@@@@@@#####################@@@@@@X. &@@@@@@@@@@@@@######@@@@@@@@@@@@@@@@@@@@@@@@@@@@@@@@@@@@@@@@@@@. ",
" X@@@@@@@@@@@@@@@@@@@@@@@@@@#######################@@@@@@@X. &@@@@@@@############@@@@@@@@@@@@@@@@@@@@@@@@@@@@@@@###@@@@@@@@@. ",
" X@@@@@@@@@@@@@@@@@@@@@@@@@@@@@@@@@@@@@@@@@@@@@@@@@@@@@@@@X. &@@@@@@##@##################@@@@@@@@@@@@@@@@@@@###########@@@@@. ",
" X@@@@@@@@@@@@@@@@@ o@@@@@@@@@@@@@@@@@@@@@@@@@@@@@@@@@@@@@X. &@@@@@@@@@@@@@@@@@@#############################@@@@@@@@@@@@@@@. ",
" X@@@@@@@@@@@@@@@@@ o@@@@@@@@@@@@@@@@@@@@@@@@@@@@@@@@@@@@@X. &@@@@@@@@@@@@@@@@@@@@@@@@@@@@@@@@@@@@@@@@@@@@@@ &@@@@@@@@@@@@@@. ",
" X@@@@@@@@@@@@@@@@   o@@@@@@@@@@@@@@@@@@@@@@@@@@@@@@@@@@@@X   @@@@@@@@@@@@@@@@@@@@@@@@@@@@@@@@@@@@@@@@@@@@@  &@@@@@@@@@@@@@@  ",
" X@@@@@@@@@@@@@@@@    o@@@@@@@@@@@@@@@@@@@@@@@@@@@@@@@@@@@     @@@@@@@@@@@@@@@@@@@@@@@@@@@@@@@@@@@@@@@@@@@   &@@@@@@@@@@@@    ",
" ................     ..................................         ........................................    ............     ",
"                                                                                                                              ",
"&&&&      &&&&&&&&&&&&&&&&&&&&&&&&&&&&&&&&&&&&&&&&&&&&&&&&&&&&&&&&&&&&&. &&&&&&&&&&&&&&&&&&&&&&&&&&&&&&&&&&&&&&&&&&&&&&&&&&&&&",
"@@@@@    &@@@@@@@@@@@@@@@@@@@@@@@@@@@@@@@@@@@@@@@@@@@@@@@@@@@@@@@@@@@@@. &@@@@@@@@@@@@@@@@@@@@@@@@@@@@@@@@@@@@@@@@@@@@@@@@@@@@",
"@@@@@. &&@@@@@@@@@@@@@@@@@@@@@@@@@@@@@@@@@@@@@@@@@@@@@@@@@@@@@@@@@@@@@@. &@@@@@@@@@@@@@@@@@@@@@@@@@@@@@@@@@@@@@@@@@@@@@@@@@@@@",
"@@@@@. &@@@@@@@@@@@@@@@@@@@@@@@@@@@@@@@@@@@@@@@@@@@@@@@@@@@@@@@@@@@@@@@. &@@@@@@@@@@@@@@@@#########@@@@@@@@@@@@@@@@@@@@@@@@@@@",
"@@@@@. &@@@@@@@@@@@@@@@@@@@@@@@@@@@@@@@@@@@@@@@@@@@@@@@@@@@@@@@@@@@@@@@. &@@@@@@@@@@@@@@@@##@@@@@@@#############@@@@@@@@@@####",
"##@@@. &@@@@@@########@@@@@@@@@@@@@@@@@@@@@@@@@@@@@@@@@@@@@@@@@@@@@@@@@. &@@@@@@@@@###########################@@@@@@@@@@@#####",
"#@@@@. &@@@@@#@@@@@@@@##########@@@@@@@@@@@@#############@@@@@@@@@@@@@@. &@@@@@@@@@@@@@################@@@@@@@@@@@@@@@@@@@@@##",
"@@@@@. &@@@@@####################@@@@@@@###############@@@@@@@@@@@@@@@@. &@@@@@@@#######################@@@@@@@@@@@@@@@@@@@@@@",
"@@@@@. &@@@@@@@@@@@@@#####################################@@@@@@@@@@@@@. &@@@@@@@@@@@#######################@@@@@@@@@@@@@@@@@@",
"@@@@@. &@@@@@@@@@@@@#######################@@@@@@@@@@@@@@@@@@@@@@@@@@@@. &@@@@@@@@@########@@@@@@@@@@@@@@@@@@@@@@@@@@@@@@@@@@@",
"@@@@@. &@@@@@@@@@@#######################@@@@@@@@@@@@@@@@@@@@@@@@@@@@@@. &@@@@@@@@@@@@@@@@@@@@@@@@@@@@@@@@@@@@@@@@@@@@@#######",
"@@@@@. &@@@@@@@@@@@@@@@@@@##############@@@@@@@@@@@@@@@@@@@@@@@@@@@@@@@. &@@@@@@@@@@@@@@@@@@@@@@@@@@@@@@@@@@@@@@@@@@########@#",
"#@@@@. &@@@@@@@@@@@@@@#########@@@@@@@@@@@@@@@@@@@@@@@@@@@@@@@@@@@@@@@@. &@@@@@@@@@@@@@@@@@@@@@@@@@@@@@@@@@@@#################",
"#####. &@@@@@@@@@@@@@@@@@@@@@@@@@@@@@@@@@@@@@@@@@@@@@@@@@######@@@@@@@@. &@@@@@@@@@@@@@@@@@@@@@@@@@@@@@@@@################@@@@",
"####@. &@@@@@@@@@@@@@@@@@@@@@@@@@@@@@@@@@@@@@@@@@@@@@#########@@@@@@@@@. &@@@@@@@@@@@#@@@@@@@@@@@@@@@@@###@@@@@@########@@@@@@",
"###@@. &@@@@@@@@@@@@@@@@@@@@@@@@@@@@@@@@@@@@@@@@@@@@@@#######@@@@@@@@@@. &@@@@@@@@@@@@####################@@#####@@@@@@@@@@@@@",
"##@@@. &@@@@@@@@@@@@@@@@@@@@@@@@@@@@@@@@@@#######@@###########@@@@@@@@@. &@@@@@@@@@@@@@@@@@#############@@@@@@@@@@@@@@@@@@@@@@",
"@@@@@. &@@@@@@@@@@@@@@@@@@@@@###############################@@@@@@@@@@@. &@@@@@@@@@@@@@@@@###@@@@@@@@@@@@@@@@@@@@@@@@@@@@@@@@@",
"@@@@@. &@@#######@@@@@@@@@@@@@@@@@@######@@@##################@@@@@@@@@. &@@@@@@@@@@@@@@@@@@@@@@@@@@@@@@@@@@@@@@@@@@@@@@@@@@@@",
"@@@@@. &@@@#####@@@@@@@@@@@@@@@@@@@@@@@###########@@@@@@@@@@@@@@@@@@@@@. &@@@@@@@@@@@@@@@@@@@@@@@@@@@@@@@@@@@@@@@@@@@@@@@@@@@@",
"@@@@@. &@@@#######@@@@@@@@@@@@@@@@@@@@##########@@@@@@@@@@@@@@@@@@@@@@@. &@@@@@@@@@@@@@@@@@@@@@@@@@@@@@@@@@@@@@@@@@@@@@@@@@@@@",
"@@@@@. &@@#################@@@@@@@@@@@@@@@@@@@@@@@@@@@@@@@@@@@@@@@@@@@@. &@@@@@@@@@@@@@@@@@@@@@@@@@@@@@@@@@@@@@@@@@@@@@@@@@@@@",
"@@@@@. &@@@@@@@@@@@@@@@@@@@@@@@@@@@@@@@@@@@@@@@@@@@@@@@@@@@@@@@@@@@@@@@. &@@@@@@@@@@@@@@@@@@@@@@@@@@@@@@@@@@@@@@@@@@@@@@@@@@@@",
"...... ................................................................. .....................................................",
"                                                                                                                              ",
"&&&&&&&&&&&&&&&&&&&&&&&&&&&&&. &&&&&&&&&&&&&&&&&&&&&&&&&&&&&&&&&&&&&&&&&&&&&&&&&&&&&&&&&   &&&&&&&&&&&&&&&&&&&&&&&&&&&&&&&&&&&",
"@@@@@@@@@@@@@@@@@@@@@@@@@@@@@. &@@@@@@@@@@@@@@@@@@@@@@@@@@@@@@@@@@@@@@@@@@@@@@@@@@@@@@@@@  &@@@@@@@@@@@@@@@@@@@@@@@@@@@@@@@@@@",
"@@@@@@@@@@@@@@@@@@@@@@@@@@@@@. &@@@@@@@@@@@@@@@@@@@@@@@@@@@@@@@@@@@@@@@@@@@@@@@@@@@@@@@@@. &@@@@@@@@@@@@@@@@@@@@@@@@@@@@@@@@@@",
"@@@@@@@@@@@@@@@@@@@@@@@@@@@@@. &@@@@@@@@@@@@@@#############@@@@@@@@@@@@@@@@@@@@@@@@@@@@@@. &@@@@@@@@@@@@@@@@@@@@@@@@@@@@@@@@@@",
"@@@@@@@@@@@@@@@@@@@@@@@@@@@@@. &@@@@@@@#################@@@#######@@@@@@@@@@@@@@@@@@@@@@@. &@@@@@@@@@@@@@@@@@@@@@@@###########",
"@##########@@@@@@@@@@@@@@@@@@. &@@@@@@@@@@###########################@@@@@@@@#######@@@@@. &@@@@@@@@@@@@@@@@@@@@@@@@@@@###@@@@",
"##############@@@@@@@@@@@@@@@. &@@@@@@@@@@#######################@@@@@@@@@@@@@@@###@@@@@@. &@@@@@@@@@@@@@@@@@@@@@@@@@@@@@@@@@@",
"@@@@@@@@@@####@@@@@@@@@@@@@@@. &@@@@@@@@@@@@@@##@@######@##@@@@@@@@@@@@@@@@@@@@@@@###@@@@. &@@@@@@###@@@@@@@@@@@@@@@@@@@@@@@@@",
"@@@@@@@@@@@@@@@@@@@@@@@@@@@@@. &@@@@@@@@@########################@@@@@@@@@@@@@@@@###@@@@@. &@@@@##@#######@@@@@@@@@@@@@@@@@@@@",
"@@@@@@@@@@@@@@@@@@@@@@@@@@@@@. &@@@@@@@@@@@@@@@@@@@@@@#####################@@@@@@@@####@@. &@@@@@###############@@@@@@@@@@@@@@",
"@@@@@@@@@@@@@@@@@@@@@@@@@@@@@. &@@@@@@@@@@@@@@@@@@@@@@@@@@@@@@@@@########@@@@@@@@@@####@@. &@@@@@@@##################@@@@@@@@@",
"@@@@@@@@@@@@@@@@@@@@@@@@@@@@@. &@@@@@@@@@@@@@@@@@@@@@@@@@@@@@@@@@@@@@@@@@@@@@@@@@@@@@@@@@. &@@@@@@@@@@@###@@@######@@#####@@@@",
"@@@@@@@@@@@@@@@@@@@@@@@@@@@@@. &@@@@@@@@@@@@@@@@@@@@@@@@@@@@@@@@@@@@@@@@@@@@@@@@@@@@@@@@@. &@@@@@@@@@#################@@@@@@@@",
"@@@@@@@@@@@@@@@@@@@@@@@@@@@@@. &@@@@@@@@@@@@@@@@@@@@@@@@@@@@@@@@@@@@@@@@@@@@@@@@@@@@@@@@@. &@@@@@@@@@@@###################@@@@",
"@@@@@@@@@@@@@#########@@@@@@@. &@@@@@@@@@@@@@@@@@@@@@@@@@@@@@#########@@#######@@@@@@@@@@. &@@@@@################@@@@@#@@@@@@@",
"@@@@@@@@@##############@@@@@@. &@@@@@@@@@@@@@@@@@@@@@@@######@@##################@@@@@@@@. &@@@@@@@@@@@@@@@@@#######@#@@@@@@@@",
"@@@@@@@@@#################@@@. &@@@@@@@@@@###############@#########################@@@@@@. &@@@@@@@@@@@@#############@@@@@@@@@"
};
